<?xml version="1.0" encoding="UTF-8"?>
<svg version="1.1" xmlns="http://www.w3.org/2000/svg" width="1024" height="1024">
<path d="M0 0 C337.92 0 675.84 0 1024 0 C1024 337.92 1024 675.84 1024 1024 C686.08 1024 348.16 1024 0 1024 C0 686.08 0 348.16 0 0 Z " fill="#182037" transform="translate(0,0)"/>
<path d="M0 0 C0.62648438 0.33902344 1.25296875 0.67804688 1.8984375 1.02734375 C8.07263806 4.81544497 11.74482905 11.23448715 14 18 C30.5 18 47 18 64 18 C66.475 13.05 66.475 13.05 69 8 C73.18257907 1.5097911 79.68736119 -1.96871144 87 -4 C97.49433155 -5.06932762 106.35450124 -3.82842608 114.8125 2.6875 C119.28530598 6.8430857 123.14043391 12.87283661 124 19 C123.835 20.09570312 123.67 21.19140625 123.5 22.3203125 C122.90666889 26.83519141 122.85058541 29.574981 124 34 C128.18717244 37.96193144 132.98481628 40.15874518 138.16259766 42.61132812 C143.56710339 45.25638308 148.75972787 48.29677356 154 51.25 C156.32829647 52.54117298 158.65751692 53.83049395 160.98828125 55.1171875 C167.73415489 58.84699631 174.46260994 62.60751857 181.1875 66.375 C182.21834717 66.95032471 183.24919434 67.52564941 184.3112793 68.1184082 C188.89004188 70.67703064 193.45444082 73.2525147 197.9765625 75.91015625 C199.08994995 76.55815186 199.08994995 76.55815186 200.22583008 77.21923828 C201.56777619 78.00270746 202.90411123 78.79591097 204.2331543 79.60107422 C207.49366114 81.51503731 207.49366114 81.51503731 211.17578125 81.875 C213.19862276 80.90472913 215.01632759 79.82027631 216.875 78.5625 C224.66517119 73.62587137 232.41738092 72.77412884 241.49609375 74.46484375 C250.74859263 77.17484776 256.20325944 82.45046838 260.87109375 90.73046875 C262 93 262 93 263 96 C275.87 96 288.74 96 302 96 C300.02 93.69 298.04 91.38 296 89 C296 84.88880963 296.06762312 82.93237688 299 80 C303.1775311 79.29317261 305.56365959 79.02215056 309.12011719 81.44335938 C311.31881303 83.45823151 313.35339431 85.55771466 315.375 87.75 C316.08527344 88.47960937 316.79554688 89.20921875 317.52734375 89.9609375 C325.21302797 97.98205006 325.21302797 97.98205006 325.5625 104.25 C325.4062938 110.23465008 322.05783675 112.9791873 318 117 C316.43175565 118.7866408 314.86935727 120.57842795 313.3125 122.375 C310.00933082 126.16513728 307.55949439 128.61607584 302.5 129.375 C300 129 300 129 297.625 127.4375 C296 125 296 125 295.875 121.6875 C297 118 297 118 303 111 C289.8 111.33 276.6 111.66 263 112 C261.68 114.97 260.36 117.94 259 121 C255.13833168 126.85686361 250.56027226 130.58105791 244 133 C243.37351562 133.23589844 242.74703125 133.47179687 242.1015625 133.71484375 C231.11013802 137.14685996 221.75865647 133.0732602 212 128 C201.90713678 137.85848535 201.90713678 137.85848535 192.46875 148.33203125 C190.91758342 150.09359542 189.24153882 151.61615702 187.5 153.1875 C184.75243621 155.64247861 184.75243621 155.64247861 185.02734375 158.1640625 C186.42971695 162.25290967 188.6965879 165.58868524 191.0625 169.1875 C192.15532848 170.88172833 193.24637543 172.5771067 194.3359375 174.2734375 C194.9247168 175.18834961 195.51349609 176.10326172 196.12011719 177.04589844 C199.54385848 182.42606333 202.85903745 187.87307602 206.1875 193.3125 C211.20663226 201.50742598 216.28138586 209.64805928 221.59375 217.65625 C223 220 223 220 223 222 C223.99 221.67 224.98 221.34 226 221 C236.5309978 220.16464127 245.1242654 221.14815186 253.75 227.5 C257 231 257 231 263 243 C275.87 243 288.74 243 302 243 C300.35 241.35 298.7 239.7 297 238 C295.875 234.5 295.875 234.5 296 231 C298.0625 228 298.0625 228 301 226 C304.41958695 225.8072043 306.38467233 226.51170255 309.0612793 228.63574219 C311.38496619 230.81941699 313.60625767 233.07283409 315.8125 235.375 C316.58787109 236.15617188 317.36324219 236.93734375 318.16210938 237.7421875 C323.14189865 242.83089605 325.00194306 245.44736118 325.42578125 252.76953125 C324.22425794 259.06374971 318.4582689 263.93783044 314.125 268.3125 C313.52558594 268.94478516 312.92617188 269.57707031 312.30859375 270.22851562 C309.4827547 273.08806859 307.62137763 274.80130799 303.73828125 276.04296875 C301 276 301 276 298.0625 274 C296 271 296 271 295.875 267.5 C297 264 297 264 302 259 C289.13 259 276.26 259 263 259 C261.02 262.96 259.04 266.92 257 271 C251.29854191 277.14003179 244.79116312 280.63578953 236.3515625 281.27734375 C227.089832 281.36327733 227.089832 281.36327733 223 280 C222.5973291 281.08498779 222.5973291 281.08498779 222.18652344 282.19189453 C221.00698855 284.98346043 219.63858209 287.37360426 218.015625 289.9296875 C217.11710815 291.35390015 217.11710815 291.35390015 216.20043945 292.80688477 C215.55679443 293.81936279 214.91314941 294.83184082 214.25 295.875 C212.89340821 298.02663609 211.53796939 300.17899949 210.18359375 302.33203125 C209.49120605 303.43240723 208.79881836 304.5327832 208.08544922 305.66650391 C204.78634227 310.93997689 201.54445047 316.24767937 198.3125 321.5625 C197.73725586 322.50657715 197.16201172 323.4506543 196.56933594 324.42333984 C193.64098361 329.24389845 190.77004722 334.08670456 188 339 C194.91644958 346.4722489 201.83474236 353.91197986 209.08984375 361.05859375 C211.89364612 363.9082661 214.44785192 366.92433437 217 370 C219.34862912 369.54542662 221.67722543 369.08895362 223.984375 368.453125 C232.39954856 366.24488797 239.98288681 366.84888059 247.83203125 370.7109375 C255.8816911 375.49722173 260.07820446 381.23461337 263 390 C282.8 390.495 282.8 390.495 303 391 C300.69 388.03 298.38 385.06 296 382 C295.875 378.0625 295.875 378.0625 297 375 C300.57470457 372.61686362 301.78553535 372.35162082 306 373 C310.89543665 376.06105464 314.68140519 380.67909334 318.35546875 385.06640625 C319.93361154 386.9794785 319.93361154 386.9794785 321.55078125 388.52734375 C325.05819674 392.09403951 325.55775995 394.88349057 325.56640625 399.65625 C324.04487547 405.95223944 318.85205706 410.43038053 314.375 414.8125 C313.78976562 415.39708984 313.20453125 415.98167969 312.6015625 416.58398438 C307.24326771 421.88697566 307.24326771 421.88697566 302.5625 422.3125 C299 422 299 422 297 420.4375 C295.53080042 416.85632603 295.96116149 414.70086219 297 411 C298.65 409.35 300.3 407.7 302 406 C289.13 406 276.26 406 263 406 C261.35 409.3 259.7 412.6 258 416 C254.29203887 421.75373279 248.98747586 424.79351937 242.75 427.3125 C233.45264979 429.01701421 225.38565483 428.5950913 217 424 C216.071875 423.236875 215.14375 422.47375 214.1875 421.6875 C212.15468631 419.7228297 212.15468631 419.7228297 209.70800781 420.21411133 C206.67054231 421.09561164 204.23899122 422.33132259 201.484375 423.88671875 C200.4109082 424.48822754 199.33744141 425.08973633 198.23144531 425.70947266 C197.07089818 426.36870006 195.91041815 427.0280456 194.75 427.6875 C193.54040341 428.36832352 192.33043657 429.04848958 191.12011719 429.72802734 C188.62891281 431.12792682 186.13981022 432.53145807 183.65234375 433.93798828 C179.22199191 436.44181453 174.77817549 438.921383 170.3347168 441.40185547 C165.21857589 444.25976782 160.10931915 447.12991527 155 450 C153.94603027 450.59151855 152.89206055 451.18303711 151.80615234 451.79248047 C148.68198154 453.54687753 145.55946978 455.30418971 142.4375 457.0625 C141.03709473 457.84874756 141.03709473 457.84874756 139.60839844 458.65087891 C137.87074147 459.63136406 136.13843678 460.62141814 134.41259766 461.62255859 C132.82460717 462.52920121 131.21445703 463.39824759 129.58349609 464.22509766 C127.48815614 465.3508763 125.72735198 466.36453784 124 468 C123.18343165 471.49633714 123.18343165 471.49633714 123.75 475.25 C124.37857919 485.36853206 121.12408927 491.38248125 114.78515625 499.12109375 C109.27711281 504.91839986 100.90860414 506.07007836 93.25 506.5 C85.32764823 506.33975015 78.68719814 503.29494302 72.796875 498.03125 C68.85894585 493.72931059 65 489.04108048 65 483 C39.755 483.495 39.755 483.495 14 484 C12.02 487.96 10.04 491.92 8 496 C2.32288594 502.11381515 -4.09213141 505.45344191 -12.4375 506.3828125 C-19.90579018 506.62424429 -25.56711659 505.82243797 -32 502 C-33.051875 501.443125 -34.10375 500.88625 -35.1875 500.3125 C-40.88160544 495.63067997 -44.80390769 489.29616312 -46 482 C-45.92007813 480.89914062 -45.84015625 479.79828125 -45.7578125 478.6640625 C-45.67273438 477.43429687 -45.58765625 476.20453125 -45.5 474.9375 C-45.3659375 473.77089844 -45.231875 472.60429688 -45.09375 471.40234375 C-46.16892916 467.36578752 -46.84874955 467.06910947 -50.30078125 464.9765625 C-52.19115259 463.96664037 -54.09149541 462.97522138 -56 462 C-57.88242212 460.94243178 -59.76128119 459.87849912 -61.63671875 458.80859375 C-63.65286199 457.68349007 -65.66982213 456.55984926 -67.6875 455.4375 C-69.91037621 454.19700866 -72.13302764 452.95611445 -74.35546875 451.71484375 C-75.46841309 451.09335449 -76.58135742 450.47186523 -77.72802734 449.83154297 C-82.66101461 447.0702185 -87.58065473 444.28552945 -92.5 441.5 C-94.37235558 440.44263706 -96.24475186 439.38534616 -98.1171875 438.328125 C-102.35774047 435.9326099 -106.59001286 433.522945 -110.8203125 431.109375 C-113.08841792 429.8226985 -115.35664436 428.53623532 -117.625 427.25 C-119.21731445 426.33637695 -119.21731445 426.33637695 -120.84179688 425.40429688 C-122.33163086 424.5622168 -122.33163086 424.5622168 -123.8515625 423.703125 C-125.16374756 422.95530762 -125.16374756 422.95530762 -126.50244141 422.19238281 C-129.06395184 420.96946815 -131.17572877 420.27521901 -134 420 C-135.68996005 421.30368347 -137.35135455 422.64444707 -139 424 C-146.90585989 428.33217784 -154.90955299 429.48740686 -163.703125 427.33984375 C-172.10912798 424.36164331 -178.67427367 418.81958222 -183 411 C-186.14257514 402.94999775 -186.3850575 393.79719803 -183.4375 385.625 C-179.68411329 377.61777501 -174.31567824 372.06620568 -166 369 C-165.06027344 368.64615234 -165.06027344 368.64615234 -164.1015625 368.28515625 C-157.78680928 366.31340678 -150.51373719 366.49031564 -144.41796875 369.109375 C-141.62945362 370.13648558 -140.68820194 370.20727632 -138 369 C-135.80391686 367.20600522 -135.80391686 367.20600522 -133.6875 364.9375 C-132.49833984 363.70966797 -132.49833984 363.70966797 -131.28515625 362.45703125 C-128.77369478 359.75667354 -126.36177787 356.98862878 -123.96875 354.18359375 C-120.57577577 350.42035448 -116.90111437 346.93717996 -113.2578125 343.41796875 C-110.81465629 341.13785764 -110.81465629 341.13785764 -110 338 C-110.92765167 335.81859134 -110.92765167 335.81859134 -112.4375 333.51953125 C-112.99566406 332.61420654 -113.55382812 331.70888184 -114.12890625 330.77612305 C-114.74636719 329.79812744 -115.36382812 328.82013184 -116 327.8125 C-116.94166016 326.29426636 -116.94166016 326.29426636 -117.90234375 324.74536133 C-119.92465289 321.49039471 -121.96152417 318.24486195 -124 315 C-125.35481332 312.83113298 -126.70898699 310.66186624 -128.0625 308.4921875 C-129.98714778 305.40818426 -131.91340258 302.32530295 -133.84765625 299.24731445 C-134.43417969 298.31363037 -135.02070313 297.37994629 -135.625 296.41796875 C-136.19637695 295.52207031 -136.76775391 294.62617187 -137.35644531 293.703125 C-139 291 -139 291 -140.47949219 288.09375 C-142.75452817 283.24702603 -142.75452817 283.24702603 -146.90039062 280.28295898 C-149.09687413 280.1557364 -151.07122671 280.32626776 -153.25 280.625 C-154.76078643 280.72935446 -156.27264044 280.81928902 -157.78515625 280.89453125 C-158.50977051 280.93143066 -159.23438477 280.96833008 -159.98095703 281.00634766 C-165.73384557 280.98826119 -170.79772321 278.09637978 -175.3125 274.75 C-181.87505292 268.03482957 -185.26783734 260.72317889 -185.375 251.25 C-185.22806621 241.96378429 -182.67982657 234.52801233 -176 228 C-171.64391351 224.76224628 -167.31401234 222.27254928 -162 221 C-160.04373238 221.31468649 -158.08746306 221.63208142 -156.14013672 221.99804688 C-152.13690251 222.58624738 -148.7539822 222.64712096 -145 221 C-139.4694814 215.61219534 -136.25331691 208.11097733 -132.76660156 201.32373047 C-129.87910894 195.89112619 -126.55813128 190.74572417 -123.25 185.5625 C-122.00231643 183.575216 -120.75618441 181.58695693 -119.51171875 179.59765625 C-118.92052246 178.6555127 -118.32932617 177.71336914 -117.72021484 176.74267578 C-115.16263012 172.66491439 -112.61249657 168.58250911 -110.0625 164.5 C-109.26176024 163.21872407 -108.46098408 161.93747089 -107.66015625 160.65625 C-107.11230469 159.7796875 -106.56445312 158.903125 -106 158 C-109.85045863 153.4581724 -113.76914713 148.99592072 -117.8125 144.625 C-118.32586914 144.06772217 -118.83923828 143.51044434 -119.36816406 142.9362793 C-123.26939717 138.72568398 -127.30268894 134.67349408 -131.453125 130.70703125 C-133 129 -133 129 -133 127 C-133.70125 127.40992188 -134.4025 127.81984375 -135.125 128.2421875 C-144.81720956 133.74673043 -151.84431331 136.18021266 -163 134 C-171.29288544 131.45544215 -177.54370963 126.91144524 -181.875 119.375 C-185.90551421 111.76773807 -186.40442387 102.71075972 -184.3515625 94.36328125 C-180.62406303 85.23568639 -173.99105835 78.87230424 -165 75 C-156.99683294 72.45724224 -148.66282846 73.47685042 -141.1171875 76.83984375 C-139 78 -139 78 -136.1875 80.3125 C-134.1451409 82.29036727 -134.1451409 82.29036727 -131.64404297 81.74707031 C-129.00282778 81.00079899 -126.9048486 80.06153588 -124.5078125 78.734375 C-123.22136841 78.02788818 -123.22136841 78.02788818 -121.90893555 77.30712891 C-120.99023682 76.79327637 -120.07153809 76.27942383 -119.125 75.75 C-118.1553833 75.2142334 -117.1857666 74.6784668 -116.18676758 74.12646484 C-107.41326508 69.26570869 -98.68341927 64.32657561 -89.9609375 59.375 C-82.58550488 55.19140459 -75.18134994 51.05919891 -67.77416992 46.93212891 C-61.5931077 43.48025365 -55.47726343 39.9387966 -49.4050293 36.29833984 C-47 35 -47 35 -45 35 C-45.33 34.01 -45.66 33.02 -46 32 C-46.11979145 30.04433497 -46.17528496 28.08429234 -46.1875 26.125 C-46.20167969 25.09632813 -46.21585938 24.06765625 -46.23046875 23.0078125 C-45.67868004 15.80650223 -41.25620584 7.88905509 -35.88671875 3.125 C-33.6500873 1.57983146 -31.4113379 0.25323394 -29 -1 C-28.04287109 -1.50853516 -28.04287109 -1.50853516 -27.06640625 -2.02734375 C-18.03949556 -6.09977539 -8.36058686 -4.89045911 0 0 Z " fill="#000000" transform="translate(442,261)"/>
<path d="M0 0 C6.07642619 5.03878511 11.6681928 10.48477307 17.25 16.0625 C18.1471875 16.94744141 19.044375 17.83238281 19.96875 18.74414062 C20.82984375 19.60330078 21.6909375 20.46246094 22.578125 21.34765625 C23.35575195 22.12117432 24.13337891 22.89469238 24.93457031 23.69165039 C26.99643398 25.99601457 28.5050154 28.30085482 30 31 C29.36497559 31.6297876 28.72995117 32.2595752 28.07568359 32.90844727 C25.69176873 35.2751882 23.31022221 37.64426387 20.93017578 40.01489258 C19.90505501 41.03502454 18.87903367 42.05425245 17.85205078 43.07250977 C12.34303221 48.53593276 6.93233641 53.99871013 2 60 C-0.8469589 59.48237111 -3.49335583 58.83871059 -6.25 57.9375 C-14.31698929 55.92075268 -21.2928058 56.96720517 -29 60 C-29.99 60.66 -30.98 61.32 -32 62 C-36.19224294 61.83806787 -38.89975138 58.7745277 -41.875 56.125 C-45.49415577 52.95961416 -49.12522892 49.86172541 -52.96484375 46.96484375 C-53.60760254 46.47806152 -54.25036133 45.9912793 -54.91259766 45.48974609 C-56.16132513 44.55167608 -57.41737772 43.62326426 -58.68115234 42.70556641 C-60.39453125 41.41015625 -60.39453125 41.41015625 -63 39 C-63 34.23028422 -62.28377347 33.73051369 -59.125 30.375 C-58.30515625 29.4984375 -57.4853125 28.621875 -56.640625 27.71875 C-53.25263771 24.2305264 -49.81131297 20.79971776 -46.3515625 17.3828125 C-44.2296742 15.23272635 -42.22312139 13.03603932 -40.25 10.75 C-39.69570313 10.11835937 -39.14140625 9.48671875 -38.5703125 8.8359375 C-37.53033532 7.62004378 -36.5238736 6.37460154 -35.5546875 5.1015625 C-34.125 3.375 -34.125 3.375 -31 1 C-28.73514652 1.09397732 -26.85776382 1.66856134 -24.69140625 2.33203125 C-16.33087232 4.40699686 -7.71875939 3.70500451 0 0 Z " fill="#4A6CF7" transform="translate(441,538)"/>
<path d="M0 0 C1.794375 0.7425 1.794375 0.7425 3.625 1.5 C10.13960525 3.66810995 18.55652869 4.54643761 25.13818359 2.25585938 C27.57272973 1.42909193 29.42236046 0.94057078 32 1 C35.47686191 3.05960395 37.9554681 5.87299893 40.625 8.875 C41.69234375 10.00421875 41.69234375 10.00421875 42.78125 11.15625 C46.17081386 14.76930159 49.43379845 18.48799303 52.68359375 22.2265625 C55.48838289 25.45207001 58.39429388 28.49848164 61.4375 31.5 C62.30246094 32.3559375 63.16742187 33.211875 64.05859375 34.09375 C64.69925781 34.7228125 65.33992187 35.351875 66 36 C62.50269942 40.47313914 58.89969953 43.90552016 54.375 47.3125 C53.13433211 48.26030074 51.89476319 49.20954164 50.65625 50.16015625 C50.04265625 50.6308252 49.4290625 51.10149414 48.796875 51.58642578 C47.08542476 52.93279764 45.42773789 54.3213672 43.78125 55.74609375 C42.8221875 56.57238281 41.863125 57.39867187 40.875 58.25 C40.02679687 58.99765625 39.17859375 59.7453125 38.3046875 60.515625 C36 62 36 62 34.01953125 61.86328125 C33.35308594 61.57839844 32.68664062 61.29351563 32 61 C31.18144531 60.67902344 30.36289062 60.35804688 29.51953125 60.02734375 C28.62621094 59.66769531 27.73289062 59.30804687 26.8125 58.9375 C21.66232957 57.07090384 17.43763518 56.17908352 12 57 C11.16364014 57.39670898 10.32728027 57.79341797 9.46557617 58.20214844 C5.99513141 59.7152248 3.8031221 60.26352974 0 60 C-6.05166379 56.58874181 -10.63224969 50.76379533 -15.25 45.6875 C-16.58889603 44.27332142 -17.93131455 42.86246898 -19.27734375 41.45507812 C-22.56027206 38.00723769 -25.79167389 34.51730654 -29 31 C-28.03975225 29.87295907 -27.07855029 28.74673109 -26.11694336 27.62084961 C-25.58177597 26.99359482 -25.04660858 26.36634003 -24.495224 25.72007751 C-22.92498244 23.91370121 -21.28882721 22.21994632 -19.5625 20.5625 C-17.12837912 18.17098955 -14.84611167 15.71544202 -12.625 13.125 C-8.65380536 8.51153926 -4.34627493 4.25757544 0 0 Z " fill="#4A6CF7" transform="translate(520,538)"/>
<path d="M0 0 C1.72787573 0.69115029 3.44626101 1.40633561 5.15625 2.140625 C8.63135305 3.03375896 10.87972954 2.6800026 14.36010742 2.05297852 C18.34300617 1.4890564 21.74349664 1.4293748 25.5 3 C31.01586166 8.09382208 34.30752558 15.27989086 37.78515625 21.83056641 C40.54493088 26.93127744 43.63388724 31.82185925 46.6875 36.75 C47.8407811 38.65359297 48.9918538 40.55852577 50.140625 42.46484375 C52.35105175 46.12178094 54.59004079 49.75823819 56.859375 53.37890625 C57.37991455 54.21389648 57.9004541 55.04888672 58.43676758 55.90917969 C59.41456377 57.47505341 60.39848903 59.03712173 61.3894043 60.59472656 C62.48721832 62.36000985 63.50320944 64.1757661 64.5 66 C64.17 66.66 63.84 67.32 63.5 68 C60.91216145 68.80943808 58.38226179 69.4993744 55.75 70.125 C55.03328125 70.30675781 54.3165625 70.48851562 53.578125 70.67578125 C45.83096575 72.56984776 45.83096575 72.56984776 42.5 72 C40.61328125 70.20703125 40.61328125 70.20703125 38.8125 67.8125 C33.61348674 61.54803431 26.73660538 57.65383766 18.5625 56.796875 C13.61382393 56.68040606 13.61382393 56.68040606 8.94042969 58.20141602 C5.46473376 59.75812321 3.32553097 60.29093324 -0.5 60 C-6.72723368 56.42907451 -11.46679178 50.4286382 -16.25 45.1875 C-17.63707794 43.72514297 -19.02767297 42.26611343 -20.421875 40.81054688 C-23.82319288 37.24428604 -27.17315049 33.63577125 -30.5 30 C-29.54910439 28.88187251 -28.59695694 27.76480956 -27.64428711 26.64819336 C-27.1141954 26.02601425 -26.5841037 25.40383514 -26.03794861 24.76280212 C-24.14240844 22.5901273 -22.13105471 20.5703265 -20.0625 18.5625 C-17.19367263 15.73218038 -14.44476455 12.86406333 -11.8125 9.8125 C-11.25433594 9.17054688 -10.69617188 8.52859375 -10.12109375 7.8671875 C-9.04482932 6.62753835 -7.97444249 5.38276047 -6.91015625 4.1328125 C-3.16777074 0 -3.16777074 0 0 0 Z " fill="#4A6CF7" transform="translate(520.5,313)"/>
<path d="M0 0 C0.49371094 0.76441406 0.98742187 1.52882813 1.49609375 2.31640625 C5.99533039 8.53593925 11.50333553 12.09884711 19.04296875 13.9375 C25.75388278 14.97405838 31.15407882 14.45657631 37.453125 11.875 C40.04975588 11.16502253 41.03065909 11.19533125 43.49609375 12.31640625 C45.38250122 14.14654725 47.09123479 15.96367538 48.80859375 17.94140625 C53.63004974 23.33834118 58.61069502 28.52959047 63.74609375 33.62890625 C64.41423096 34.29293457 65.08236816 34.95696289 65.77075195 35.64111328 C67.34382409 37.20163048 68.91877498 38.76018331 70.49609375 40.31640625 C65.31235961 47.77811353 59.06930216 53.97277404 52.62109375 60.31640625 C51.53989741 61.38754948 50.45916448 62.45916069 49.37890625 63.53125 C46.7566194 66.13171569 44.12812997 68.72580436 41.49609375 71.31640625 C40.94066895 71.0846167 40.38524414 70.85282715 39.81298828 70.61401367 C35.80424227 69.08689252 32.69678563 67.97730695 28.42578125 68.8671875 C23.8399948 69.80581184 19.87015866 70.30434944 15.49609375 68.31640625 C9.66432819 62.60209678 6.09009894 54.83480855 2.31347656 47.69091797 C-0.51741264 42.4345302 -3.67408994 37.39034807 -6.81640625 32.31640625 C-7.96106296 30.42794788 -9.104327 28.53864455 -10.24609375 26.6484375 C-12.33835514 23.20370957 -14.46450221 19.78548914 -16.63671875 16.390625 C-17.11326904 15.64361328 -17.58981934 14.89660156 -18.08081055 14.12695312 C-18.96324811 12.75001484 -19.85235476 11.37731909 -20.74926758 10.00976562 C-21.72755512 8.482159 -22.62549968 6.90355161 -23.50390625 5.31640625 C-22.50390625 3.31640625 -22.50390625 3.31640625 -20.61791992 2.56689453 C-17.98150061 1.83378103 -15.34078613 1.12630501 -12.69140625 0.44140625 C-11.77552734 0.1784375 -10.85964844 -0.08453125 -9.91601562 -0.35546875 C-3.14118225 -2.11208978 -3.14118225 -2.11208978 0 0 Z " fill="#4A6CF7" transform="translate(400.50390625,639.68359375)"/>
<path d="M0 0 C7.05415749 0.11197075 14.32112296 1.73395243 21 4 C21.495 4.99 21.495 4.99 22 6 C21.21826172 7.72973633 21.21826172 7.72973633 19.9296875 9.83203125 C19.45225098 10.6194873 18.97481445 11.40694336 18.48291016 12.21826172 C17.68699463 13.50240967 17.68699463 13.50240967 16.875 14.8125 C16.33020996 15.70469238 15.78541992 16.59688477 15.22412109 17.51611328 C13.4908273 20.34912477 11.74595227 23.17477611 10 26 C8.93189909 27.74064459 7.86418033 29.48152373 6.796875 31.22265625 C5.21059526 33.81010049 3.61565129 36.38974788 1.99072266 38.953125 C-0.96861692 43.6265937 -3.74016702 48.32864298 -6.3359375 53.21484375 C-14.39726722 67.89826996 -14.39726722 67.89826996 -19.12939453 69.90136719 C-22.88014557 70.53048281 -26.18353753 70.17571902 -29.89453125 69.48046875 C-34.72009878 68.5767823 -38.56577823 70.15868699 -43 72 C-58.25193941 56.93926137 -58.25193941 56.93926137 -63.50390625 50.71875 C-66.17269833 47.65277476 -69.09568978 44.84035194 -72 42 C-66.96174972 36.00533611 -61.77297961 30.15741274 -56.37988281 24.48046875 C-55.37262492 23.40588603 -54.38004904 22.31735962 -53.40234375 21.21582031 C-50.19665618 17.61476461 -47.1679499 14.47110195 -43 12 C-38.50602096 11.96934162 -35.11019817 13.32483043 -31 15 C-23.01651621 16.16104921 -15.19528251 13.97885793 -8.62890625 9.31640625 C-5.89025965 6.97976282 -3.52232672 4.78833927 -1.52734375 1.77734375 C-1.02332031 1.19082031 -0.51929688 0.60429688 0 0 Z " fill="#4A6CF7" transform="translate(563,639)"/>
<path d="M0 0 C6.08231806 5.05057053 11.70767179 10.4902817 17.3125 16.0625 C18.21806641 16.94744141 19.12363281 17.83238281 20.05664062 18.74414062 C21.35311523 20.03288086 21.35311523 20.03288086 22.67578125 21.34765625 C23.8500769 22.50793335 23.8500769 22.50793335 25.0480957 23.69165039 C27.04899508 26.05794227 28.03382137 28.07495805 29 31 C28.55197021 31.44279297 28.10394043 31.88558594 27.64233398 32.34179688 C25.57129904 34.39176683 23.50439303 36.44585433 21.4375 38.5 C20.73302734 39.19609375 20.02855469 39.8921875 19.30273438 40.609375 C15.20297491 44.69024156 11.2808849 48.85866331 7.52148438 53.25585938 C5.45537208 55.62432956 3.25567081 57.81268285 1 60 C0.31035156 59.7834375 -0.37929688 59.566875 -1.08984375 59.34375 C-11.07805164 56.384281 -19.25270015 55.81809394 -29 60 C-34.81753418 63.35626972 -38.27212649 67.52099827 -42 73 C-45.48232265 72.2218025 -48.96017577 71.42521165 -52.4375 70.625 C-53.43072266 70.40328125 -54.42394531 70.1815625 -55.44726562 69.953125 C-56.39150391 69.73398437 -57.33574219 69.51484375 -58.30859375 69.2890625 C-59.18314209 69.09006348 -60.05769043 68.89106445 -60.95874023 68.68603516 C-63 68 -63 68 -64 66 C-62.89868164 63.79882812 -62.89868164 63.79882812 -61.16015625 61.03125 C-60.5168335 59.99750244 -59.87351074 58.96375488 -59.21069336 57.89868164 C-58.49472672 56.76572594 -57.77865969 55.63283368 -57.0625 54.5 C-56.3345342 53.3357259 -55.60741306 52.17092328 -54.88110352 51.00561523 C-53.36176179 48.5692692 -51.83873311 46.13528363 -50.31347656 43.70263672 C-48.06219731 40.10642665 -45.83547205 36.49554114 -43.6171875 32.87890625 C-43.26428146 32.30365204 -42.91137543 31.72839783 -42.54777527 31.13571167 C-41.51078385 29.44478398 -40.47413871 27.75364394 -39.4375 26.0625 C-37.56477768 23.00929673 -35.69053716 19.95833314 -33.78686523 16.92431641 C-32.56337307 14.92199517 -31.39564168 12.88482827 -30.27758789 10.82177734 C-26.12739304 3.45481225 -26.12739304 3.45481225 -22.98657227 2.18774414 C-20.74696457 2.02145333 -18.78376159 2.17980023 -16.5625 2.5 C-15.06589996 2.61503608 -13.56843522 2.71936946 -12.0703125 2.8125 C-11.01312012 2.88791016 -11.01312012 2.88791016 -9.93457031 2.96484375 C-6.13407438 3.03390879 -3.32348952 1.69710103 0 0 Z " fill="#4A6CF7" transform="translate(441,313)"/>
<path d="M0 0 C1.0209375 0.495 1.0209375 0.495 2.0625 1 C10.81034302 4.81724059 18.63769738 6.77023357 27.875 3.4375 C28.58269531 3.14746094 29.29039062 2.85742188 30.01953125 2.55859375 C32.50620969 1.87867976 33.6421002 2.15676209 36.0625 3 C37.59545898 4.28417969 37.59545898 4.28417969 39.05859375 5.921875 C39.61144043 6.5295874 40.16428711 7.1372998 40.73388672 7.76342773 C41.3167041 8.41899658 41.89952148 9.07456543 42.5 9.75 C43.73884659 11.11253362 44.97978208 12.4731705 46.22265625 13.83203125 C47.17035889 14.869646 47.17035889 14.869646 48.13720703 15.92822266 C51.157523 19.17833695 54.28759587 22.31352643 57.4375 25.4375 C58.00267334 25.99856445 58.56784668 26.55962891 59.15014648 27.13769531 C60.45214645 28.427272 61.75697462 29.71399244 63.0625 31 C60.20499809 35.58515474 57.05332596 39.28001679 53.203125 43.0546875 C52.65388367 43.60109894 52.10464233 44.14751038 51.53875732 44.71047974 C49.80135208 46.43678305 48.05708921 48.15596018 46.3125 49.875 C45.1258399 51.05161739 43.93963732 52.22869639 42.75390625 53.40625 C39.86203212 56.27619645 36.96399084 59.13977763 34.0625 62 C33.50127441 61.77401123 32.94004883 61.54802246 32.36181641 61.31518555 C26.91702569 59.2852641 23.27318584 58.97278951 17.4375 59.8125 C13.41777865 60.10289812 10.37818598 59.91150675 7.00097656 57.57177734 C2.77825676 53.73099674 -0.81518014 49.36383733 -4.375 44.9140625 C-6.2525102 42.61411251 -8.29022823 40.54816692 -10.4375 38.5 C-13.57536735 35.41658588 -16.46055332 32.16656988 -19.328125 28.83203125 C-21.42989542 26.43948191 -23.65190942 24.21633026 -25.9375 22 C-24.57422336 18.84752913 -23.13811552 17.06580583 -20.453125 14.94140625 C-19.76476562 14.39033203 -19.07640625 13.83925781 -18.3671875 13.27148438 C-17.64789063 12.70751953 -16.92859375 12.14355469 -16.1875 11.5625 C-14.77580925 10.43909408 -13.36434748 9.31540036 -11.953125 8.19140625 C-10.93327515 7.38727295 -10.93327515 7.38727295 -9.89282227 6.56689453 C-8.07524943 5.1103853 -6.3074039 3.60986541 -4.54296875 2.08984375 C-1.9375 0 -1.9375 0 0 0 Z " fill="#314698" transform="translate(407.9375,424)"/>
<path d="M0 0 C3.90408446 0.41923055 6.13744049 2.51865349 9.0625 5 C13.55680443 8.79862634 13.55680443 8.79862634 18.1640625 12.45703125 C19.16179687 13.23433594 20.15953125 14.01164062 21.1875 14.8125 C22.10917969 15.52019531 23.03085937 16.22789062 23.98046875 16.95703125 C26 19 26 19 26 23 C24.84179688 24.70410156 24.84179688 24.70410156 23.21875 26.390625 C22.62779541 27.01380615 22.03684082 27.6369873 21.42797852 28.27905273 C20.47362915 29.25467163 20.47362915 29.25467163 19.5 30.25 C18.85796631 30.92168213 18.21593262 31.59336426 17.55444336 32.28540039 C13.67510912 36.32933322 9.73085634 40.30620958 5.734375 44.234375 C3.2795836 46.73339687 1.00389499 49.37258034 -1.26171875 52.04296875 C-2.12216797 53.01169922 -2.12216797 53.01169922 -3 54 C-4.10021484 55.35158203 -4.10021484 55.35158203 -5.22265625 56.73046875 C-8.77490887 59.6332237 -11.39679601 59.47952229 -15.75 59.125 C-22.15602947 58.66565293 -27.00777069 59.64180155 -33 62 C-48.25193941 46.93926137 -48.25193941 46.93926137 -53.50390625 40.71875 C-56.17269833 37.65277476 -59.09568978 34.84035194 -62 32 C-56.96174972 26.00533611 -51.77297961 20.15741274 -46.37988281 14.48046875 C-45.37262492 13.40588603 -44.38004904 12.31735962 -43.40234375 11.21582031 C-40.19665618 7.61476461 -37.1679499 4.47110195 -33 2 C-28.50602096 1.96934162 -25.11019817 3.32483043 -21 5 C-13.73101616 6.05214593 -7.62550526 3.94598359 -1 1 C-0.67 0.67 -0.34 0.34 0 0 Z " fill="#314698" transform="translate(553,424)"/>
<path d="M0 0 C7.49477134 3.21446175 12.84598959 10.75093397 18.04296875 16.82421875 C21.35152182 20.50259013 24.91239225 23.92993359 28.44921875 27.38671875 C35 34.09800919 35 34.09800919 35 36.9375 C33.60405646 39.81663355 31.79812829 42.3556937 30 45 C28.98251229 46.99116016 27.97979347 48.99002369 27 51 C16.73426419 51.06941058 6.4685839 51.12276564 -3.79733849 51.15543652 C-8.56386967 51.17111433 -13.3302407 51.19239099 -18.09667969 51.22631836 C-22.6937582 51.25883666 -27.29068236 51.27683706 -31.88786697 51.28463173 C-33.64462338 51.29018882 -35.40137103 51.30104003 -37.15806198 51.31719017 C-39.61256128 51.33886478 -42.06641701 51.34197117 -44.52099609 51.34057617 C-45.25251389 51.351362 -45.98403168 51.36214783 -46.73771667 51.3732605 C-48.76034546 51.36076355 -48.76034546 51.36076355 -52 51 C-54 48 -54 48 -53.91015625 45.5625 C-52.72936903 42.23805187 -51.23513699 41.1347096 -48.4375 39 C-47.44234375 38.22398437 -46.4471875 37.44796875 -45.421875 36.6484375 C-44.87337891 36.2265918 -44.32488281 35.80474609 -43.75976562 35.37011719 C-41.21000609 33.38492705 -38.7157747 31.3339956 -36.21606445 29.28637695 C-29.88614301 24.10222538 -23.48985084 19.01062538 -17.03930664 13.9777832 C-11.25199497 9.44621687 -5.61598793 4.74170409 0 0 Z " fill="#4A6CF7" transform="translate(369,454)"/>
<path d="M0 0 C3.83345948 1.67075716 6.94412437 4.16118317 10.1875 6.75 C10.79335938 7.22953125 11.39921875 7.7090625 12.0234375 8.203125 C17.62857515 12.65994844 23.14670156 17.22149859 28.66064453 21.7902832 C33.8047986 26.0439455 39.02573787 30.1854102 44.29345703 34.28442383 C48.66997501 37.70394149 52.89257597 41.26249926 57 45 C56.01 46.98 55.02 48.96 54 51 C27.93 51 1.86 51 -25 51 C-32 38 -32 38 -32 34 C-30.71484375 32.359375 -30.71484375 32.359375 -28.9375 30.75 C-26.38651345 28.34667535 -24.01429994 25.92549242 -21.75 23.25 C-18.81720583 19.84161759 -15.69931359 16.65596979 -12.5 13.5 C-8.11765265 9.16600959 -3.96242939 4.71975378 0 0 Z " fill="#4A6CF7" transform="translate(591,454)"/>
<path d="M0 0 C0.73511307 0.00359528 1.47022614 0.00719055 2.22761536 0.01089478 C2.99829346 0.01074875 3.76897156 0.01060272 4.56300354 0.01045227 C7.12237823 0.01115157 9.68168104 0.01894471 12.24104309 0.02676392 C14.01081299 0.02862804 15.7805834 0.03005197 17.550354 0.03105164 C22.2176505 0.03487728 26.88491607 0.04470796 31.55220032 0.05575562 C36.31110719 0.06596873 41.07001905 0.07054904 45.82893372 0.07559204 C55.17334837 0.08633019 64.51774004 0.10340717 73.86213684 0.12442017 C74.56439825 1.36618712 75.24842793 2.61827616 75.92463684 3.87442017 C76.3074884 4.57051392 76.69033997 5.26660767 77.08479309 5.98379517 C78.01483291 8.54490985 77.87093337 9.62084696 76.86213684 12.12442017 C74.60432434 14.64004517 74.60432434 14.64004517 71.73713684 17.37442017 C68.48417119 20.52299026 65.29103292 23.66689406 62.36213684 27.12442017 C58.63065503 31.50642665 54.52518004 35.49194089 50.41291809 39.51113892 C48.04306952 41.93905422 45.92942094 44.43743498 43.86213684 47.12442017 C40.98371884 45.79296367 38.67017433 44.29143695 36.24494934 42.25332642 C35.56295471 41.68476929 34.88096008 41.11621216 34.17829895 40.53042603 C33.45521545 39.92206909 32.73213196 39.31371216 31.98713684 38.68692017 C26.64601804 34.23835964 21.28540811 29.83111468 15.79963684 25.56192017 C8.05943396 19.53218416 0.46048647 13.3313837 -7.13786316 7.12442017 C-6.0786477 0.01254495 -6.0786477 0.01254495 0 0 Z " fill="#314698" transform="translate(322.1378631591797,518.8755798339844)"/>
<path d="M0 0 C26.07 0 52.14 0 79 0 C79.99 1.98 80.98 3.96 82 6 C76.77576474 10.74471608 71.45354942 15.30271674 65.91796875 19.6796875 C63.0276945 21.97797787 60.1626251 24.3044856 57.30175781 26.63916016 C54.55899872 28.87605578 51.80982356 31.10496238 49.05908203 33.33203125 C47.69156441 34.43979511 46.32534157 35.54915936 44.96044922 36.66015625 C43.04208737 38.21850255 41.11603332 39.76676984 39.1875 41.3125 C38.60709961 41.7866333 38.02669922 42.2607666 37.42871094 42.74926758 C33.34319092 46 33.34319092 46 30 46 C28.39355469 44.75 28.39355469 44.75 26.671875 43 C26.04063721 42.36425049 25.40939941 41.72850098 24.7590332 41.07348633 C24.09605225 40.38923584 23.43307129 39.70498535 22.75 39 C22.06832764 38.30737061 21.38665527 37.61474121 20.68432617 36.90112305 C16.92460846 33.0582877 13.26953122 29.16713387 9.83203125 25.03125 C8.24256787 23.26894519 6.61205427 21.65725265 4.88671875 20.03125 C4.33008545 19.50039795 3.77345215 18.9695459 3.19995117 18.42260742 C2.08627368 17.36778866 0.96041167 16.32565398 -0.1784668 15.2980957 C-1.71875 13.83203125 -1.71875 13.83203125 -4 11 C-4.05432614 6.674281 -2.00130484 4.00260967 0 0 Z " fill="#314698" transform="translate(566,519)"/>
<path d="M0 0 C3.08629297 0.60815074 6.12313027 1.28381193 9.1796875 2.01953125 C10.10339142 2.2381633 11.02709534 2.45679535 11.97879028 2.68205261 C13.93821007 3.14752723 15.89692258 3.61598751 17.85498047 4.0871582 C20.8531032 4.80724087 23.85402421 5.51461145 26.85546875 6.22070312 C28.75539121 6.67371286 30.65513691 7.12746471 32.5546875 7.58203125 C33.90480423 7.89935966 33.90480423 7.89935966 35.28219604 8.22309875 C36.11961334 8.4263829 36.95703064 8.62966705 37.81982422 8.83911133 C38.55627167 9.01533524 39.29271912 9.19155914 40.05148315 9.37312317 C42 10 42 10 45 12 C45.70052461 14.663063 45.77744818 17.24035737 46 20 C39.48843074 24.54112232 32.76055207 28.41137939 25.75 32.125 C17.96128694 36.29677829 10.21990247 40.52905151 2.5625 44.9375 C-6.44155032 50.12122806 -15.49322892 55.21533951 -24.56420898 60.28100586 C-25.56137939 60.83796143 -26.5585498 61.39491699 -27.5859375 61.96875 C-28.99117676 62.74992188 -28.99117676 62.74992188 -30.42480469 63.546875 C-32.67565356 64.81697857 -34.8880351 66.13538228 -37.1015625 67.46875 C-38.05804687 67.9740625 -39.01453125 68.479375 -40 69 C-40.66 68.67 -41.32 68.34 -42 68 C-38.06964413 60.3289107 -33.58673088 53.0881056 -28.95483398 45.828125 C-24.81924533 39.33340114 -20.79899551 32.77463473 -16.8125 26.1875 C-2.39747472 2.39747472 -2.39747472 2.39747472 0 0 Z " fill="#314697" transform="translate(600,647)"/>
<path d="M0 0 C1.87862683 2.47592306 3.62438952 4.88225222 5.20727539 7.55395508 C5.74586182 8.45243164 6.28444824 9.3509082 6.83935547 10.27661133 C7.40678467 11.23825195 7.97421387 12.19989258 8.55883789 13.19067383 C9.79832763 15.26052066 11.0392613 17.32950338 12.28149414 19.39770508 C12.92103027 20.46456543 13.56056641 21.53142578 14.21948242 22.63061523 C17.41763934 27.91794848 20.70802689 33.14661849 23.99633789 38.37817383 C26.39475434 42.20989581 28.78988242 46.04366349 31.18383789 49.87817383 C31.69479004 50.69511719 32.20574219 51.51206055 32.73217773 52.35375977 C34.05832231 54.48155942 35.37334445 56.6157111 36.68383789 58.75317383 C37.2538855 59.66292969 37.2538855 59.66292969 37.83544922 60.59106445 C38.68121771 61.98375638 39.44311879 63.42688118 40.18383789 64.87817383 C39.85383789 65.53817383 39.52383789 66.19817383 39.18383789 66.87817383 C30.8134332 62.92692689 22.80984107 58.43736173 14.79345703 53.82202148 C7.8665289 49.83454236 0.91033529 45.90324861 -6.06616211 42.00317383 C-7.09660645 41.42583496 -8.12705078 40.84849609 -9.1887207 40.25366211 C-14.13759973 37.48317837 -19.0913971 34.72243945 -24.06027222 31.98794556 C-25.79942513 31.03016737 -27.53680918 30.06917954 -29.27416992 29.1081543 C-31.46181933 27.8984192 -33.65244871 26.69405274 -35.84643555 25.49584961 C-36.83289063 24.94912598 -37.8193457 24.40240234 -38.83569336 23.83911133 C-39.70299072 23.3626416 -40.57028809 22.88617187 -41.46386719 22.39526367 C-43.99265656 20.76434544 -45.91093491 19.21181999 -47.81616211 16.87817383 C-47.56616211 13.12817383 -47.56616211 13.12817383 -46.81616211 9.87817383 C-39.03927609 6.85781143 -31.17326473 4.63315974 -23.10644531 2.53198242 C-21.44599119 2.09384111 -19.7887119 1.64349758 -18.13476562 1.18139648 C-15.72916547 0.5102319 -13.31620587 -0.12207909 -10.89819336 -0.74682617 C-10.16164017 -0.96008545 -9.42508698 -1.17334473 -8.66621399 -1.39306641 C-4.72572668 -2.36255433 -3.30446926 -2.48973926 0 0 Z " fill="#314698" transform="translate(363.816162109375,649.121826171875)"/>
<path d="M0 0 C0.495 0.99 0.495 0.99 1 2 C0.25 3.68212891 0.25 3.68212891 -1 5.7265625 C-1.46720459 6.49863037 -1.93440918 7.27069824 -2.41577148 8.06616211 C-2.93856689 8.91057861 -3.4613623 9.75499512 -4 10.625 C-4.53890869 11.50873291 -5.07781738 12.39246582 -5.63305664 13.30297852 C-11.09759544 22.23469442 -16.65811257 31.10793522 -22.23046875 39.97265625 C-24.76156596 44.00526289 -27.26227206 48.05443623 -29.73828125 52.12109375 C-30.62592163 53.5743103 -30.62592163 53.5743103 -31.53149414 55.05688477 C-32.65180069 56.89403471 -33.76712446 58.73423532 -34.87670898 60.57788086 C-35.37630127 61.39522705 -35.87589355 62.21257324 -36.390625 63.0546875 C-37.0407959 64.12952393 -37.0407959 64.12952393 -37.70410156 65.22607422 C-39 67 -39 67 -42 69 C-43.98648071 68.82963562 -43.98648071 68.82963562 -46.27197266 68.2331543 C-47.12941071 68.01600266 -47.98684875 67.79885101 -48.87026978 67.57511902 C-49.79222137 67.32732193 -50.71417297 67.07952484 -51.6640625 66.82421875 C-52.61187592 66.57960403 -53.55968933 66.33498932 -54.53622437 66.08296204 C-56.54004511 65.56337004 -58.54226732 65.03757996 -60.54296875 64.50610352 C-63.61657231 63.68973844 -66.69433877 62.89106316 -69.7734375 62.09570312 C-71.7164124 61.58956388 -73.6591301 61.082436 -75.6015625 60.57421875 C-76.99056259 60.21163216 -76.99056259 60.21163216 -78.40762329 59.84172058 C-79.25875702 59.61511246 -80.10989075 59.38850433 -80.98681641 59.1550293 C-81.73943756 58.95580368 -82.49205872 58.75657806 -83.26748657 58.55131531 C-85 58 -85 58 -86 57 C-86.45459858 54.34536879 -86.70243238 51.67810862 -87 49 C-78.77897852 43.83651698 -70.46793364 38.94763391 -61.94036865 34.30184937 C-58.77374957 32.57608828 -55.6138155 30.83815043 -52.453125 29.1015625 C-51.81990326 28.7539537 -51.18668152 28.40634491 -50.53427124 28.04820251 C-44.62519017 24.80138711 -38.74351418 21.50708898 -32.875 18.1875 C-31.95444824 17.66679932 -31.03389648 17.14609863 -30.08544922 16.60961914 C-22.97349222 12.57476802 -15.89517493 8.4822615 -8.84716797 4.33666992 C-8.11900879 3.9110376 -7.39084961 3.48540527 -6.640625 3.046875 C-5.68978027 2.48758301 -5.68978027 2.48758301 -4.71972656 1.91699219 C-3 1 -3 1 0 0 Z " fill="#314698" transform="translate(403,308)"/>
<path d="M0 0 C3.6901061 0.5792798 6.41387479 1.58231327 9.640625 3.44921875 C10.53330078 3.96033203 11.42597656 4.47144531 12.34570312 4.99804688 C13.30412109 5.55556641 14.26253906 6.11308594 15.25 6.6875 C17.32776679 7.87953085 19.40590463 9.07091511 21.484375 10.26171875 C22.55880859 10.87966309 23.63324219 11.49760742 24.74023438 12.13427734 C29.97171468 15.12850836 35.23634409 18.0628264 40.5 21 C48.81967425 25.65394976 57.13406843 30.31712476 65.4375 35 C66.35402344 35.515625 67.27054688 36.03125 68.21484375 36.5625 C69.95487674 37.54510687 71.69182855 38.53319478 73.42529297 39.52734375 C75.22299312 40.55557505 77.03016607 41.56734296 78.84423828 42.56640625 C80.20718018 43.33791016 80.20718018 43.33791016 81.59765625 44.125 C82.41886963 44.58132813 83.24008301 45.03765625 84.08618164 45.5078125 C86 47 86 47 86.81103516 48.98413086 C87.10848847 52.15735047 86.40919788 54.16230017 85 57 C82.54296875 58.21484375 82.54296875 58.21484375 79.1875 58.9375 C78.56673584 59.08026367 77.94597168 59.22302734 77.30639648 59.37011719 C75.81094603 59.71393071 74.31301002 60.04701412 72.81347656 60.37255859 C69.38288971 61.13762352 65.96886261 61.96624379 62.5546875 62.80078125 C61.22893293 63.12447296 59.90316788 63.44812173 58.57739258 63.77172852 C57.9155899 63.93327423 57.25378723 64.09481995 56.57192993 64.26126099 C51.38498774 65.52284317 46.19204885 66.75963945 41 68 C36.53978552 61.77686133 32.37149549 55.47867103 28.5 48.875 C23.8284644 40.99900391 19.04766536 33.19851604 14.1875 25.4375 C13.57777344 24.46345215 12.96804688 23.4894043 12.33984375 22.48583984 C11.746875 21.54047363 11.15390625 20.59510742 10.54296875 19.62109375 C9.67551025 18.23639893 9.67551025 18.23639893 8.79052734 16.82373047 C7.5415186 14.85399566 6.27476003 12.89545264 4.99462891 10.94580078 C4.35315918 9.96466309 3.71168945 8.98352539 3.05078125 7.97265625 C2.17353394 6.64826538 2.17353394 6.64826538 1.27856445 5.29711914 C0 3 0 3 0 0 Z " fill="#314698" transform="translate(559,309)"/>
<path d="M0 0 C6.08811094 5.04171687 11.78059966 10.46223876 17.40966797 16.00463867 C18.47811174 17.05126743 19.55278528 18.09157087 20.63330078 19.12573242 C22.20763556 20.63342241 23.76160156 22.15966385 25.3125 23.69140625 C26.23675781 24.59060791 27.16101563 25.48980957 28.11328125 26.41625977 C30 29 30 29 29.98046875 31.45678711 C28.85035715 34.38815478 27.40499599 37.19000802 26 40 C9.5 40 -7 40 -24 40 C-25.32 37.03 -26.64 34.06 -28 31 C-26.05432417 27.10864835 -24.39826579 25.21762774 -21.3125 22.25 C-18.22909896 19.23286116 -15.23858474 16.21858282 -12.4375 12.9375 C-8.53966809 8.37759616 -4.28291023 4.1955039 0 0 Z " fill="#314698" transform="translate(480,353)"/>
<path d="M0 0 C16.5 0 33 0 50 0 C54 8 54 8 53 12 C51.05137308 14.20466295 49.09878363 16.24979844 46.99609375 18.296875 C46.39821548 18.89050842 45.80033722 19.48414185 45.18434143 20.09576416 C43.27565898 21.98767195 41.3568046 23.86887499 39.4375 25.75 C38.14059164 27.03186002 36.84435922 28.3144043 35.54882812 29.59765625 C32.37367043 32.73976072 29.18935054 35.87230539 26 39 C22.76951252 37.5800745 20.61757512 35.86380613 18.13671875 33.3671875 C17.41419922 32.64273438 16.69167969 31.91828125 15.94726562 31.171875 C15.20154297 30.41390625 14.45582031 29.6559375 13.6875 28.875 C12.95337891 28.14023437 12.21925781 27.40546875 11.46289062 26.6484375 C0.19106459 15.28659688 0.19106459 15.28659688 -4 9 C-2.68 6.03 -1.36 3.06 0 0 Z " fill="#314698" transform="translate(456,631)"/>
<path d="M0 0 C4.13922888 1.64582286 6.99540069 4.63722895 10.11328125 7.70703125 C10.97399483 8.55064461 10.97399483 8.55064461 11.85209656 9.41130066 C13.05921921 10.59957697 14.26349444 11.79075194 15.46508789 12.98461914 C17.30984687 14.80987492 19.17481734 16.61272014 21.04101562 18.41601562 C22.21224879 19.57419627 23.38221563 20.7336592 24.55078125 21.89453125 C25.11211258 22.43116898 25.67344391 22.9678067 26.25178528 23.52070618 C29.99221939 27.30536056 29.99221939 27.30536056 30.02807617 30.5065918 C28.8336679 33.40340768 27.40129607 36.19740786 26 39 C9.5 39 -7 39 -24 39 C-25.32 35.7 -26.64 32.4 -28 29 C-26.824375 27.845 -25.64875 26.69 -24.4375 25.5 C-21.78344017 22.85056397 -19.23853143 20.17131594 -16.8125 17.3125 C-11.57282123 11.20362218 -5.72541503 5.64792821 0 0 Z " fill="#314698" transform="translate(480,579)"/>
<path d="M0 0 C16.5 0 33 0 50 0 C54 8 54 8 53 12 C51.05137308 14.20466295 49.09878363 16.24979844 46.99609375 18.296875 C46.39821548 18.89050842 45.80033722 19.48414185 45.18434143 20.09576416 C43.27565898 21.98767195 41.3568046 23.86887499 39.4375 25.75 C38.14059164 27.03186002 36.84435922 28.3144043 35.54882812 29.59765625 C32.37367043 32.73976072 29.18935054 35.87230539 26 39 C22.76951252 37.5800745 20.61757512 35.86380613 18.13671875 33.3671875 C17.41419922 32.64273438 16.69167969 31.91828125 15.94726562 31.171875 C15.20154297 30.41390625 14.45582031 29.6559375 13.6875 28.875 C12.95337891 28.14023437 12.21925781 27.40546875 11.46289062 26.6484375 C0.19106459 15.28659688 0.19106459 15.28659688 -4 9 C-2.68 6.03 -1.36 3.06 0 0 Z " fill="#4A6CF7" transform="translate(456,406)"/>
<path d="M0 0 C1.10677442 0.93384646 2.21141738 1.87021938 3.31518555 2.80761719 C4.23825752 3.5893631 4.23825752 3.5893631 5.17997742 4.38690186 C7.93171461 6.82578487 10.36401225 9.5123044 12.8125 12.25 C18.04284694 18.01220431 23.44104179 23.55172902 29 29 C28.52449439 30.48034764 28.04448784 31.95925021 27.5625 33.4375 C27.29566406 34.26121094 27.02882813 35.08492187 26.75390625 35.93359375 C26 38 26 38 25 39 C23.43452952 39.09326716 21.86487228 39.11745582 20.29663086 39.11352539 C19.29566879 39.11344986 18.29470673 39.11337433 17.26341248 39.11329651 C16.1748848 39.10813522 15.08635712 39.10297394 13.96484375 39.09765625 C12.85645645 39.0962413 11.74806915 39.09482635 10.60609436 39.09336853 C7.04986931 39.08775033 3.49370617 39.07519475 -0.0625 39.0625 C-2.46679597 39.05748734 -4.87109292 39.05292403 -7.27539062 39.04882812 C-13.18361504 39.03777499 -19.0918031 39.02101917 -25 39 C-25.72767003 37.76115681 -26.43154815 36.50831659 -27.125 35.25 C-27.51945312 34.55390625 -27.91390625 33.8578125 -28.3203125 33.140625 C-29 31 -29 31 -28.2862854 28.91766357 C-26.20940942 25.82134497 -23.54657963 23.30415861 -20.8984375 20.703125 C-20.30197418 20.10949158 -19.70551086 19.51585815 -19.0909729 18.90423584 C-17.1903019 17.01473373 -15.28278526 15.13231608 -13.375 13.25 C-12.08287532 11.96790935 -10.79120324 10.68536239 -9.5 9.40234375 C-6.33855521 6.26291568 -3.1709539 3.12982199 0 0 Z " fill="#314698" transform="translate(481,691)"/>
<path d="M0 0 C0.88602402 0.00222061 1.77204803 0.00444122 2.68492126 0.00672913 C3.68588333 0.00680466 4.6868454 0.00688019 5.71813965 0.00695801 C6.80666733 0.01211929 7.89519501 0.01728058 9.01670837 0.02259827 C10.67928932 0.02472069 10.67928932 0.02472069 12.37545776 0.02688599 C15.93168281 0.03250418 19.48784596 0.04505977 23.04405212 0.05775452 C25.44834809 0.06276717 27.85264504 0.06733048 30.25694275 0.07142639 C36.16516716 0.08247952 42.07335522 0.09923535 47.98155212 0.12025452 C48.70922215 1.3590977 49.41310028 2.61193792 50.10655212 3.87025452 C50.69823181 4.91439514 50.69823181 4.91439514 51.30186462 5.97962952 C51.98155212 8.12025452 51.98155212 8.12025452 51.19778442 10.27363586 C49.82284916 12.36121494 48.32466203 13.9863511 46.53233337 15.72962952 C45.84848572 16.40252014 45.16463806 17.07541077 44.46006775 17.76869202 C43.74528259 18.46220764 43.03049744 19.15572327 42.29405212 19.87025452 C37.50679401 24.53772026 32.89696224 29.22988948 28.6111908 34.36732483 C26.98155212 36.12025452 26.98155212 36.12025452 22.98155212 39.12025452 C13.41155212 29.55025452 3.84155212 19.98025452 -6.01844788 10.12025452 C-2.69862229 0.16077776 -2.69862229 0.16077776 0 0 Z " fill="#314698" transform="translate(458.01844787597656,518.8797454833984)"/>
<path d="M0 0 C1.10677442 0.93384646 2.21141738 1.87021938 3.31518555 2.80761719 C4.23825752 3.5893631 4.23825752 3.5893631 5.17997742 4.38690186 C7.93171461 6.82578487 10.36401225 9.5123044 12.8125 12.25 C18.04284694 18.01220431 23.44104179 23.55172902 29 29 C28.52449439 30.48034764 28.04448784 31.95925021 27.5625 33.4375 C27.29566406 34.26121094 27.02882813 35.08492188 26.75390625 35.93359375 C26 38 26 38 25 39 C23.43452952 39.09326716 21.86487228 39.11745582 20.29663086 39.11352539 C19.29566879 39.11344986 18.29470673 39.11337433 17.26341248 39.11329651 C16.1748848 39.10813522 15.08635712 39.10297394 13.96484375 39.09765625 C12.85645645 39.0962413 11.74806915 39.09482635 10.60609436 39.09336853 C7.04986931 39.08775033 3.49370617 39.07519475 -0.0625 39.0625 C-2.46679597 39.05748734 -4.87109292 39.05292403 -7.27539062 39.04882812 C-13.18361504 39.03777499 -19.0918031 39.02101917 -25 39 C-25.72767003 37.76115681 -26.43154815 36.50831659 -27.125 35.25 C-27.51945312 34.55390625 -27.91390625 33.8578125 -28.3203125 33.140625 C-29 31 -29 31 -28.2862854 28.91766357 C-26.20940942 25.82134497 -23.54657963 23.30415861 -20.8984375 20.703125 C-20.30197418 20.10949158 -19.70551086 19.51585815 -19.0909729 18.90423584 C-17.1903019 17.01473373 -15.28278526 15.13231608 -13.375 13.25 C-12.08287532 11.96790935 -10.79120324 10.68536239 -9.5 9.40234375 C-6.33855521 6.26291568 -3.1709539 3.12982199 0 0 Z " fill="#4A6CF7" transform="translate(481,466)"/>
<path d="M0 0 C0.88602402 0.00222061 1.77204803 0.00444122 2.68492126 0.00672913 C3.68588333 0.00680466 4.6868454 0.00688019 5.71813965 0.00695801 C6.80666733 0.01211929 7.89519501 0.01728058 9.01670837 0.02259827 C10.67928932 0.02472069 10.67928932 0.02472069 12.37545776 0.02688599 C15.93168281 0.03250418 19.48784596 0.04505977 23.04405212 0.05775452 C25.44834809 0.06276717 27.85264504 0.06733048 30.25694275 0.07142639 C36.16516716 0.08247952 42.07335522 0.09923535 47.98155212 0.12025452 C51.02398799 5.47494164 51.02398799 5.47494164 50.83750916 8.3106842 C49.28337381 11.59626641 46.45710305 13.8988344 43.85655212 16.37025452 C42.66196499 17.53238887 41.46924199 18.6964426 40.27842712 19.86244202 C39.70543884 20.42286194 39.13245056 20.98328186 38.542099 21.5606842 C36.06851997 24.03271531 33.80952539 26.66719077 31.54795837 29.33119202 C28.84814054 32.41477449 25.91003023 35.25624455 22.98155212 38.12025452 C16.42778116 32.73384528 10.50908577 26.76140325 4.54405212 20.74525452 C3.51629229 19.71246857 2.48829927 18.67991461 1.46006775 17.64759827 C-1.03546385 15.14115165 -3.52782869 12.63158372 -6.01844788 10.12025452 C-5.54294227 8.63990687 -5.06293572 7.16100431 -4.58094788 5.68275452 C-4.31411194 4.85904358 -4.047276 4.03533264 -3.77235413 3.18666077 C-2.66772136 0.15893675 -2.66772136 0.15893675 0 0 Z " fill="#314698" transform="translate(458.01844787597656,293.87974548339844)"/>
<path d="M0 0 C4.20492182 1.77258519 7.00407146 5.59131507 10.06640625 8.87109375 C10.62714844 9.41636719 11.18789063 9.96164062 11.765625 10.5234375 C13.19140625 11.99609375 13.19140625 11.99609375 15.06640625 14.87109375 C13.90074992 20.70820615 10.36909519 25.50703284 7.19140625 30.43359375 C6.66160156 31.27083984 6.13179687 32.10808594 5.5859375 32.97070312 C4.55868681 34.58040241 3.51662051 36.18076973 2.45800781 37.77001953 C1.31858714 39.49034484 0.24167344 41.25192233 -0.81640625 43.0234375 C-2.93359375 44.87109375 -2.93359375 44.87109375 -6.59375 44.83984375 C-8.04812297 44.55389238 -9.49505994 44.22829034 -10.93359375 43.87109375 C-11.69784668 43.68804688 -12.46209961 43.505 -13.24951172 43.31640625 C-15.63701476 42.70980618 -18.00316713 42.04986059 -20.37109375 41.37109375 C-21.18513672 41.14550781 -21.99917969 40.91992188 -22.83789062 40.6875 C-28.79709731 39.00759019 -28.79709731 39.00759019 -29.93359375 37.87109375 C-31.32981276 33.5095105 -32.11562588 29.4593742 -31.93359375 24.87109375 C-29.6966217 21.22495568 -26.42694486 19.25500789 -22.93359375 16.87109375 C-21.15348628 15.50193797 -19.39768405 14.1050033 -17.64208984 12.70458984 C-15.83489409 11.26701495 -14.01082447 9.85337995 -12.18359375 8.44140625 C-9.6169326 6.44005662 -7.19681531 4.33431632 -4.80859375 2.12109375 C-1.93359375 -0.12890625 -1.93359375 -0.12890625 0 0 Z " fill="#314698" transform="translate(595.93359375,586.12890625)"/>
<path d="M0 0 C5.43007491 4.00969349 10.7200739 8.15566948 15.9375 12.4375 C21.56654935 17.0359983 27.22326599 21.58721708 33 26 C32.68391801 28.11022358 32.32061249 30.21341062 31.9375 32.3125 C31.74027344 33.48425781 31.54304688 34.65601563 31.33984375 35.86328125 C30 39 30 39 26.88671875 40.77734375 C25.6019885 41.21788442 24.30517643 41.62433742 23 42 C22.34346436 42.20214111 21.68692871 42.40428223 21.01049805 42.61254883 C18.97527236 43.20807453 16.93236866 43.73663013 14.875 44.25 C14.18535156 44.435625 13.49570312 44.62125 12.78515625 44.8125 C8.81282544 45.8150768 5.89916542 46.31660131 2 45 C0.19482422 42.94628906 0.19482422 42.94628906 -1.4453125 40.265625 C-2.04730469 39.29882812 -2.64929688 38.33203125 -3.26953125 37.3359375 C-3.88183594 36.31757812 -4.49414062 35.29921875 -5.125 34.25 C-5.74503906 33.24710938 -6.36507813 32.24421875 -7.00390625 31.2109375 C-8.68590115 28.48357373 -10.34857023 25.74595173 -12 23 C-12.85972412 21.66473267 -12.85972412 21.66473267 -13.73681641 20.30249023 C-15 18 -15 18 -14.390625 15.89453125 C-12.96546635 13.95295275 -11.50139026 12.34027594 -9.75 10.6875 C-6.25449813 7.30191957 -3.12222532 3.73144002 0 0 Z " fill="#314698" transform="translate(366,585)"/>
<path d="M0 0 C5.92587859 0.51934666 11.61482085 1.66360364 17.375 3.125 C18.18066406 3.3003125 18.98632812 3.475625 19.81640625 3.65625 C22.09261 4.24341144 23.97445979 4.80429272 26 6 C27.46875 9.43359375 27.46875 9.43359375 28 13 C28.20882812 13.73089844 28.41765625 14.46179688 28.6328125 15.21484375 C29.08854167 16.80989583 29.54427083 18.40494792 30 20 C21.39804695 27.0818574 12.71065078 34.05263885 4 41 C-0.40510648 38.99072656 -3.29517812 36.07230844 -6.6875 32.6875 C-7.28111328 32.11837891 -7.87472656 31.54925781 -8.48632812 30.96289062 C-9.05158203 30.40150391 -9.61683594 29.84011719 -10.19921875 29.26171875 C-10.97011841 28.50314575 -10.97011841 28.50314575 -11.7565918 27.72924805 C-13.40874947 25.43153887 -13.83084048 23.82578723 -14 21 C-12.93603516 18.61230469 -12.93603516 18.61230469 -11.2890625 16.171875 C-10.41121094 14.84929687 -10.41121094 14.84929687 -9.515625 13.5 C-8.89171875 12.5925 -8.2678125 11.685 -7.625 10.75 C-7.00882812 9.82703125 -6.39265625 8.9040625 -5.7578125 7.953125 C-1.28878348 1.28878348 -1.28878348 1.28878348 0 0 Z " fill="#314698" transform="translate(369,393)"/>
<path d="M0 0 C1.7734375 1.86328125 1.7734375 1.86328125 3.375 4.3125 C4.25478516 5.64861328 4.25478516 5.64861328 5.15234375 7.01171875 C8.20528552 11.94935185 11.14329453 16.94649671 14 22 C8.72898586 28.41069287 2.90871848 34.18590512 -3 40 C-6.48509931 38.45555924 -9.14322337 36.37524647 -12.0625 33.9375 C-15.05933107 31.43677959 -18.05707514 28.95525195 -21.12890625 26.546875 C-22.11761719 25.76828125 -23.10632813 24.9896875 -24.125 24.1875 C-25.03507813 23.47980469 -25.94515625 22.77210938 -26.8828125 22.04296875 C-29.12644058 19.87799184 -29.75621239 19.05314953 -30 16 C-29.90625 13.52734375 -29.90625 13.52734375 -29.5 10.9375 C-29.3865625 10.08027344 -29.273125 9.22304688 -29.15625 8.33984375 C-27.70323248 5.39944682 -26.03136185 4.74089388 -23.01464844 3.63696289 C-19.65431003 2.57453888 -16.29475793 1.60332334 -12.875 0.75 C-11.84052734 0.4715625 -11.84052734 0.4715625 -10.78515625 0.1875 C-6.89955573 -0.79318694 -3.78761393 -1.50037524 0 0 Z " fill="#314698" transform="translate(594,394)"/>
<path d="M0 0 C5.35712016 4.40013921 8.25732988 8.45145128 9.1875 15.48046875 C9.49374173 20.71264131 9.48261793 24.60278228 6.12109375 28.8046875 C3.5732728 31.51051285 1.48912393 32.22401514 -2.19140625 32.6171875 C-10.11343973 32.02908894 -15.75843098 30.05016277 -21.44140625 24.3671875 C-24.49107701 19.57484773 -25.48842297 15.56429709 -24.62890625 9.9296875 C-22.3077545 4.58094651 -17.85494915 0.18727731 -12.44140625 -2.1328125 C-7.72386762 -2.65698346 -4.03305823 -2.54492444 0 0 Z " fill="#4A6CF7" transform="translate(544.19140625,722.3828125)"/>
<path d="M0 0 C5.11986904 3.03223252 9.26820732 7.22735773 11 13 C11.32844162 18.77421551 10.02264354 23.07790026 6.37890625 27.5625 C2.80900449 31.2840973 -0.80547958 32.60959034 -5.953125 33.0546875 C-10.33759518 32.93754517 -13.61847335 31.34729964 -16.734375 28.30859375 C-21.05637717 23.37945319 -22.21843666 20.26566286 -22.3125 13.6875 C-22.34988281 12.37136719 -22.38726562 11.05523437 -22.42578125 9.69921875 C-21.93318956 5.41954599 -21.07118842 3.95608426 -18 1 C-12.26158169 -3.47273069 -6.60044237 -2.02233096 0 0 Z " fill="#314698" transform="translate(432,271)"/>
<path d="M0 0 C5.06350668 2.70635702 7.97646026 5.95402199 10.375 11.09375 C11.23783676 15.09417496 11.42919514 18.42573107 10.0625 22.28125 C7.17261734 26.5782483 3.98489045 30.39016214 -0.9375 32.28125 C-5.82119545 32.97431569 -9.79771199 32.84039129 -14.25 30.65625 C-21.94347277 23.85736709 -21.94347277 23.85736709 -22.9375 18.40625 C-23.21300146 13.89491366 -22.29411614 10.14259739 -19.9375 6.28125 C-14.56201971 0.43668299 -7.96903533 -2.95625504 0 0 Z " fill="#4A6CF7" transform="translate(292.9375,642.71875)"/>
<path d="M0 0 C4.80427871 2.35681597 8.01863737 5.57054695 11 10 C12.6702519 14.93902708 12.18079409 19.35341388 10.15625 24.10546875 C7.52659553 28.41419313 3.75234935 31.41588355 -1 33 C-7.46708082 33.5389234 -10.69593897 32.77404343 -16 29 C-20.39585345 24.4853397 -21.9611934 20.406009 -22.0625 14.125 C-21.24287306 8.92736574 -17.84369651 5.39009257 -14 2 C-9.57736353 -0.76302643 -5.06132817 -0.64168978 0 0 Z " fill="#4A6CF7" transform="translate(292,349)"/>
<path d="M0 0 C3.72866872 2.98464537 5.98252673 6.32323456 7.25 10.9375 C7.73574232 16.69701611 6.25187558 21.04096082 2.62890625 25.5 C-0.94041051 29.22098744 -4.5578845 30.55355029 -9.70703125 30.98828125 C-15.45023621 30.84552472 -18.83109421 28.16685129 -22.625 24.1875 C-25.63315255 20.48983833 -26.83875432 17.81898739 -26.75 12.9375 C-25.60101487 6.27338625 -22.68474529 3.42758692 -17.6875 -0.8125 C-12.11488561 -4.40773509 -5.43543816 -3.47166695 0 0 Z " fill="#4A6CF7" transform="translate(545.75,273.0625)"/>
<path d="M0 0 C4.56770417 3.01274105 8.19046399 6.69639197 9.9375 11.9375 C10.52467652 17.92670055 9.24317074 22.03231116 5.9375 26.9375 C1.05633485 31.58055954 -3.02950606 32.29478013 -9.55859375 32.21875 C-14.51296555 31.6622527 -17.20175306 28.91456409 -20.375 25.3125 C-23.85169745 20.41937026 -23.76050494 15.81372767 -23.0625 9.9375 C-21.30440606 5.43546504 -18.34509056 2.8295449 -14.1875 0.5 C-9.20379683 -1.67334424 -5.16665398 -1.79251261 0 0 Z " fill="#314698" transform="translate(682.0625,643.0625)"/>
<path d="M0 0 C5.28073816 2.7606462 8.07619529 6.76764838 9.92578125 12.31640625 C10.3234235 17.58516605 9.85005792 20.88282549 6.92578125 25.31640625 C2.84782173 29.4425686 -0.31976721 32.04636198 -6.26171875 32.62890625 C-12.34639703 32.13016213 -17.07470447 29.95390043 -21.07421875 25.25390625 C-24.02926512 20.60596891 -23.94004186 15.62358125 -23.07421875 10.31640625 C-18.50493888 1.00861393 -10.0198059 -3.30219592 0 0 Z " fill="#314698" transform="translate(682.07421875,349.68359375)"/>
<path d="M0 0 C5.57899195 3.55935687 9.3111408 7.58233505 11 14 C11.17200704 19.41822187 10.29304183 22.10923234 6.875 26.3125 C3.4334758 29.87318084 0.80292424 31.73607257 -4 33 C-10.38515396 33 -14.34041312 31.36295536 -19 27 C-22.12513854 23.14566246 -23.15012956 18.92612623 -23 14 C-20.9652357 7.3304948 -17.71874764 3.53891376 -11.6875 0.125 C-7.4314021 -1.17347055 -4.16424208 -1.55169477 0 0 Z " fill="#4A6CF7" transform="translate(293,496)"/>
<path d="M0 0 C4.78458661 2.3922933 8.05694049 5.54336703 11 10 C12.51149979 14.73661854 12.48080638 18.6997799 10.4375 23.25 C7.72007725 27.97718333 4.24601798 31.25132734 -1 33 C-6.61599916 33.36826224 -10.17665989 33.21556007 -15 30 C-19.57725542 25.63080165 -21.72847141 21.39721347 -22 15 C-21.15668254 9.1394774 -18.22594963 5.75641121 -13.71875 2.12890625 C-9.51892816 -0.62961309 -4.83790425 -0.58917873 0 0 Z " fill="#4A6CF7" transform="translate(541,383)"/>
<path d="M0 0 C4.78458661 2.3922933 8.05694049 5.54336703 11 10 C12.35511701 14.5558535 12.24144908 18.10965654 11 22.6875 C8.27785414 27.19605408 4.7399971 30.63000145 0 33 C-6.54093522 33.81262128 -10.67994619 32.85964688 -16 29 C-20.67749657 23.83013537 -21.35281363 20.604991 -21.28125 13.76171875 C-20.75919674 8.63544581 -18.12436465 6.01467054 -14.4375 2.6875 C-9.89095349 -0.46010912 -5.36065963 -0.65284191 0 0 Z " fill="#314698" transform="translate(431,383)"/>
<path d="M0 0 C4.33810135 3.64794886 6.77618551 7.08565627 7.75 12.6875 C8.10508084 17.70090328 6.6472818 21.26914154 3.75 25.3125 C-0.68976058 29.75226058 -4.88406679 31.27433979 -11.125 31.375 C-16.32263426 30.55537306 -19.85990743 27.15619651 -23.25 23.3125 C-26.02944053 18.88698305 -25.76245318 14.37917414 -25.25 9.3125 C-23.42198883 4.58117697 -19.40295865 1.13472566 -15.25 -1.6875 C-9.89001615 -3.53759305 -4.89118308 -2.53965276 0 0 Z " fill="#314698" transform="translate(684.25,497.6875)"/>
<path d="M0 0 C4.69933998 2.9621908 7.6118921 6.70722561 9.078125 12.08984375 C9.48417546 18.07908811 8.02762536 22.49988387 4.078125 27.08984375 C-0.28558772 30.75932945 -4.26310567 32.35355339 -9.921875 32.08984375 C-15.77443988 30.3744368 -18.99925789 27.57283474 -22.921875 23.08984375 C-24.48766396 18.39247688 -24.72918256 13.98039282 -23.921875 9.08984375 C-21.48378781 4.65498485 -17.98634123 1.34056603 -13.484375 -0.97265625 C-8.5024143 -2.28369854 -4.61310132 -2.18465977 0 0 Z " fill="#314698" transform="translate(433.921875,721.91015625)"/>
<path d="M0 0 C4.69933998 2.9621908 7.6118921 6.70722561 9.078125 12.08984375 C9.48417546 18.07908811 8.02762536 22.49988387 4.078125 27.08984375 C-0.28558772 30.75932945 -4.26310567 32.35355339 -9.921875 32.08984375 C-15.77443988 30.3744368 -18.99925789 27.57283474 -22.921875 23.08984375 C-24.48766396 18.39247688 -24.72918256 13.98039282 -23.921875 9.08984375 C-21.48378781 4.65498485 -17.98634123 1.34056603 -13.484375 -0.97265625 C-8.5024143 -2.28369854 -4.61310132 -2.18465977 0 0 Z " fill="#314698" transform="translate(433.921875,496.91015625)"/>
<path d="M0 0 C4.78458661 2.3922933 8.05694049 5.54336703 11 10 C12.51149979 14.73661854 12.48080638 18.6997799 10.4375 23.25 C7.72007725 27.97718333 4.24601798 31.25132734 -1 33 C-6.61599916 33.36826224 -10.17665989 33.21556007 -15 30 C-19.14205652 25.80196974 -21.15918948 22.6564894 -21.3125 16.75 C-21.25927779 11.66062631 -20.49801724 8.87618126 -17 5 C-11.67541734 0.19488882 -7.01210056 -0.85396079 0 0 Z " fill="#314698" transform="translate(431,608)"/>
<path d="M0 0 C3.72866872 2.98464537 5.98252673 6.32323456 7.25 10.9375 C7.73574232 16.69701611 6.25187558 21.04096082 2.62890625 25.5 C-0.94323171 29.22392853 -4.55319962 30.53482313 -9.69921875 31 C-14.59302857 30.85085532 -17.96912693 28.61425666 -21.5625 25.5 C-25.3356628 21.08000929 -26.16070502 17.89601488 -25.9921875 12.17578125 C-25.34054541 6.1533471 -21.94760009 2.87102491 -17.56640625 -0.86328125 C-12.10125912 -4.47145366 -5.30407953 -3.38776692 0 0 Z " fill="#4A6CF7" transform="translate(545.75,498.0625)"/>
<path d="M0 0 C5.98290437 2.07100536 9.19062737 5.95696422 12.375 11.3125 C13.3344909 15.43831088 13.28036639 18.94326017 12 23 C9.16011934 27.35646614 5.92180801 31.08021255 1 33 C-4.61361521 33.78590613 -9.24456407 33.24234268 -14 30 C-17.65485821 26.2857132 -20.13763827 23.15766499 -20.3125 17.875 C-20.2476367 12.83998656 -18.89079635 9.10846298 -16 5 C-10.74603204 0.12131547 -6.98991818 -0.63759389 0 0 Z " fill="#4A6CF7" transform="translate(540,608)"/>
<path d="M0 0 C4.13570051 3.81190901 7.01051257 7.80060011 9.875 12.625 C10.29007812 13.29273438 10.70515625 13.96046875 11.1328125 14.6484375 C12.174022 16.38378666 13.09661821 18.18907337 14 20 C13.505 21.485 13.505 21.485 13 23 C10.28421305 23.92760344 7.69905973 24.65028784 4.9140625 25.296875 C4.10133881 25.49476624 3.28861511 25.69265747 2.45126343 25.89654541 C0.7294187 26.31274478 -0.9939837 26.72254357 -2.71875 27.12646484 C-5.36089493 27.74668894 -7.99684927 28.38922208 -10.6328125 29.03515625 C-12.30436644 29.43623627 -13.97623224 29.83601924 -15.6484375 30.234375 C-16.43914642 30.42698914 -17.22985535 30.61960327 -18.04452515 30.8180542 C-23.65313919 32.11562027 -23.65313919 32.11562027 -27 31 C-26.45354896 27.08670547 -24.70064387 25.41281015 -21.875 22.75 C-18.9682766 19.94398198 -16.17895142 17.14104546 -13.5625 14.0625 C-9.31677931 9.10582137 -4.65403839 4.56976002 0 0 Z " fill="#4A6CF7" transform="translate(340,613)"/>
<path d="M0 0 C2.34822025 2.18645205 4.00931184 4.41394386 5.6796875 7.1484375 C6.44587402 8.39475952 6.44587402 8.39475952 7.22753906 9.66625977 C8.04303223 11.00708618 8.04303223 11.00708618 8.875 12.375 C10.03353147 14.26712471 11.19239584 16.15904561 12.3515625 18.05078125 C12.9487207 19.02740723 13.54587891 20.0040332 14.16113281 21.01025391 C15.99411758 23.99043598 17.84852004 26.95610516 19.7109375 29.91796875 C20.30406738 30.86430176 20.89719727 31.81063477 21.50830078 32.78564453 C22.65132551 34.60801113 23.79801876 36.42808295 24.94873047 38.24560547 C25.46580566 39.07334473 25.98288086 39.90108398 26.515625 40.75390625 C26.97227539 41.47908447 27.42892578 42.2042627 27.89941406 42.95141602 C28.98634672 44.97458637 29.55405539 46.75606485 30 49 C25.2786921 45.97109939 20.95194713 42.62744541 16.625 39.0625 C15.21499326 37.90736956 13.8048323 36.75242735 12.39453125 35.59765625 C11.67346191 35.0061377 10.95239258 34.41461914 10.20947266 33.80517578 C8.00564144 32.00460915 5.79189691 30.2170687 3.57421875 28.43359375 C2.85991699 27.85794678 2.14561523 27.2822998 1.40966797 26.68920898 C0.04703564 25.59164751 -1.31713851 24.49599648 -2.68310547 23.40258789 C-6.34443638 20.4450682 -9.73736833 17.39363601 -13 14 C-11.58474822 12.41540185 -10.1677358 10.83237609 -8.75 9.25 C-7.96109375 8.36828125 -7.1721875 7.4865625 -6.359375 6.578125 C-4.29407328 4.32133835 -2.18264936 2.14260074 0 0 Z " fill="#314698" transform="translate(615,429)"/>
<path d="M0 0 C3.28731688 1.09577229 3.88003756 1.77804601 6 4.375 C9.00862251 7.93180373 12.18298591 11.22854929 15.5 14.5 C22.333569 21.30525311 22.333569 21.30525311 25.25 24.4375 C25.81203125 25.03433594 26.3740625 25.63117187 26.953125 26.24609375 C28 28 28 28 27.671875 30.22265625 C27.45015625 30.80917969 27.2284375 31.39570312 27 32 C17.29992051 29.90300214 7.63076842 27.709659 -2 25.3125 C-3.2988916 24.99116089 -3.2988916 24.99116089 -4.62402344 24.66333008 C-5.4287207 24.46118896 -6.23341797 24.25904785 -7.0625 24.05078125 C-7.77535156 23.87200439 -8.48820313 23.69322754 -9.22265625 23.5090332 C-11 23 -11 23 -13 22 C-11.32887344 17.14895833 -8.67263602 13.05193955 -5.9375 8.75 C-5.47794922 8.0178125 -5.01839844 7.285625 -4.54492188 6.53125 C-1.15472274 1.15472274 -1.15472274 1.15472274 0 0 Z " fill="#4A6BF6" transform="translate(621,613)"/>
<path d="M0 0 C3.90285767 1.58667578 6.33520982 4.13350481 9.25 7.125 C10.14203125 8.03507812 11.0340625 8.94515625 11.953125 9.8828125 C12.62859375 10.58148438 13.3040625 11.28015625 14 12 C12.65353997 15.08754345 11.26519425 16.88996654 8.6484375 18.99609375 C7.63003784 19.82475952 7.63003784 19.82475952 6.59106445 20.67016602 C5.85976318 21.25338623 5.12846191 21.83660645 4.375 22.4375 C3.6224292 23.047146 2.8698584 23.65679199 2.09448242 24.28491211 C0.52128054 25.55847211 -1.05436595 26.82901769 -2.63232422 28.09667969 C-5.63811415 30.51296534 -8.62957059 32.94659559 -11.62060547 35.38110352 C-13.58215293 36.97680129 -15.54678756 38.5686288 -17.51171875 40.16015625 C-20.69790506 42.74590624 -23.85364638 45.36595588 -27 48 C-27.66 47.67 -28.32 47.34 -29 47 C-24.82950955 39.12595902 -20.32053484 31.53153837 -15.5625 24 C-14.61793945 22.49566406 -14.61793945 22.49566406 -13.65429688 20.9609375 C-11.7747352 17.97063794 -9.88844641 14.98469518 -8 12 C-7.34112793 10.95585937 -6.68225586 9.91171875 -6.00341797 8.8359375 C-5.37193848 7.83820313 -4.74045898 6.84046875 -4.08984375 5.8125 C-3.51999756 4.91144531 -2.95015137 4.01039063 -2.36303711 3.08203125 C-1 1 -1 1 0 0 Z " fill="#314697" transform="translate(346,430)"/>
<path d="M0 0 C4.57046272 2.5264746 8.43298791 5.68333201 12.4375 9 C16.60963365 12.43123777 20.7823878 15.8538861 25.0546875 19.16015625 C25.68834229 19.65064453 26.32199707 20.14113281 26.97485352 20.64648438 C28.16999021 21.56740809 29.36824348 22.48430613 30.57006836 23.39648438 C33.6581596 25.78037106 35.61071438 27.81428584 38 31 C34.37 34.96 30.74 38.92 27 43 C21.37818774 37.37818774 21.37818774 37.37818774 19.23828125 33.69921875 C18.76358398 32.89403809 18.28888672 32.08885742 17.79980469 31.25927734 C17.30899414 30.41059082 16.81818359 29.5619043 16.3125 28.6875 C15.26314872 26.90150281 14.21234427 25.1163587 13.16015625 23.33203125 C12.63566895 22.44080566 12.11118164 21.54958008 11.57080078 20.63134766 C8.79263531 15.9774671 5.88033629 11.40738038 2.9465332 6.8503418 C0 2.21398368 0 2.21398368 0 0 Z " fill="#4A6CF6" transform="translate(317,546)"/>
<path d="M0 0 C0.495 0.99 0.495 0.99 1 2 C0.20239258 3.76147461 0.20239258 3.76147461 -1.10546875 5.90234375 C-1.58894775 6.70172363 -2.07242676 7.50110352 -2.57055664 8.32470703 C-3.10414795 9.18692871 -3.63773926 10.04915039 -4.1875 10.9375 C-4.72689209 11.82034668 -5.26628418 12.70319336 -5.82202148 13.61279297 C-7.53900903 16.41418062 -9.26897893 19.20726667 -11 22 C-11.56170898 22.91442871 -12.12341797 23.82885742 -12.70214844 24.77099609 C-14.31413517 27.39413814 -15.93605237 30.01080453 -17.5625 32.625 C-18.06225342 33.43573975 -18.56200684 34.24647949 -19.0769043 35.08178711 C-19.54781494 35.83081299 -20.01872559 36.57983887 -20.50390625 37.3515625 C-20.91455322 38.00979004 -21.3252002 38.66801758 -21.74829102 39.34619141 C-23 41 -23 41 -26 43 C-27.46072532 41.39801112 -28.91849716 39.79332884 -30.375 38.1875 C-31.18710937 37.29417969 -31.99921875 36.40085937 -32.8359375 35.48046875 C-35 33 -35 33 -37 30 C-27.87240465 22.05150131 -18.57377454 14.40371898 -9 7 C-7.20812776 5.60443058 -5.41642958 4.2086376 -3.625 2.8125 C-2.41696018 1.87462181 -1.20876045 0.93694924 0 0 Z " fill="#4A6CF6" transform="translate(644,546)"/>
<path d="M0 0 C6.81852898 0.6287578 13.33709924 1.80945129 20 3.375 C21.42892578 3.68824219 21.42892578 3.68824219 22.88671875 4.0078125 C24.24216797 4.32492187 24.24216797 4.32492187 25.625 4.6484375 C26.44226563 4.83583496 27.25953125 5.02323242 28.1015625 5.21630859 C28.72804688 5.47492676 29.35453125 5.73354492 30 6 C31 9 31 9 29.48828125 12.13671875 C28.77409575 13.32702792 28.04832052 14.51044223 27.3125 15.6875 C26.95994141 16.29400391 26.60738281 16.90050781 26.24414062 17.52539062 C25.17578125 19.26171875 25.17578125 19.26171875 23 22 C19 22 19 22 17.34008789 20.70239258 C16.80633545 20.10579834 16.27258301 19.5092041 15.72265625 18.89453125 C15.12646484 18.24033203 14.53027344 17.58613281 13.91601562 16.91210938 C13.30435547 16.21923828 12.69269531 15.52636719 12.0625 14.8125 C10.84578675 13.46418043 9.62835205 12.1165115 8.41015625 10.76953125 C7.83281738 10.12322754 7.25547852 9.47692383 6.66064453 8.81103516 C5.17496317 7.19080811 3.64442046 5.65774944 2.05859375 4.13671875 C0 2 0 2 0 0 Z " fill="#4A6CF6" transform="translate(323,382)"/>
<path d="M0 0 C-1.33999498 3.006818 -2.79845291 4.99762609 -5.1875 7.25 C-8.45862722 10.41890449 -11.44934877 13.75135612 -14.421875 17.19921875 C-16.19649815 19.2242219 -18.05776935 21.13545857 -20 23 C-24.03441111 21.6551963 -25.12667247 19.04690097 -27.1875 15.5625 C-27.55552734 14.96373047 -27.92355469 14.36496094 -28.30273438 13.74804688 C-31 9.27929325 -31 9.27929325 -31 7 C-28.167031 6.20701081 -25.33364215 5.41557728 -22.5 4.625 C-21.70851563 4.40328125 -20.91703125 4.1815625 -20.1015625 3.953125 C-4.83295796 -0.30205987 -4.83295796 -0.30205987 0 0 Z " fill="#4A6CF6" transform="translate(639,382)"/>
</svg>
