<?xml version="1.0" encoding="UTF-8"?>
<svg version="1.1" xmlns="http://www.w3.org/2000/svg" width="1024" height="1024">
<path d="M0 0 C337.92 0 675.84 0 1024 0 C1024 337.92 1024 675.84 1024 1024 C686.08 1024 348.16 1024 0 1024 C0 686.08 0 348.16 0 0 Z " fill="#182038" transform="translate(0,0)"/>
<path d="M0 0 C1.09344727 0.49661133 2.18689453 0.99322266 3.31347656 1.50488281 C45.7480994 20.96774416 45.7480994 20.96774416 59 34 C59 34.33 59 34.66 59 35 C58.27296875 34.97679687 57.5459375 34.95359375 56.796875 34.9296875 C42.24983967 34.66858687 28.10748208 37.07427138 17 47.25 C9.38954617 55.80453545 5.62829847 65.65053837 6.28295898 76.98120117 C6.94375811 89.35474311 6.94375811 89.35474311 4.25 94.05078125 C1.9375 96.1875 1.9375 96.1875 -0.546875 98.08203125 C-10.03762718 105.50234864 -14.14559204 119.37676394 -15.68359375 130.86328125 C-16.19498604 136.50025211 -16.25515605 142.15592941 -16.3125 147.8125 C-16.33022461 148.8864502 -16.34794922 149.96040039 -16.36621094 151.06689453 C-16.36024155 157.46508599 -15.62919657 162.162518 -13 168 C-12.67 168.99 -12.34 169.98 -12 171 C-9.62374655 172.18391223 -9.62374655 172.18391223 -7 173 C-6.01 173.33 -5.02 173.66 -4 174 C-2.56682059 174.09454817 -1.12968899 174.13484782 0.30659485 174.14044189 C1.62500366 174.14900711 1.62500366 174.14900711 2.970047 174.15774536 C3.93166245 174.15886322 4.89327789 174.15998108 5.8840332 174.16113281 C7.40642105 174.16858017 7.40642105 174.16858017 8.95956421 174.17617798 C12.32331008 174.19080496 15.68700878 174.19760256 19.05078125 174.203125 C21.38624574 174.20887605 23.72171022 174.21463379 26.05717468 174.22039795 C30.95730815 174.23090949 35.8574252 174.23675115 40.75756836 174.24023438 C47.03572329 174.24571908 53.31366133 174.26974615 59.59174824 174.29820633 C64.41731906 174.31683228 69.24283765 174.3220383 74.06844139 174.32357025 C76.3828875 174.32659745 78.69733268 174.33462819 81.01174355 174.34775543 C84.25059115 174.36481445 87.48890887 174.36293579 90.7277832 174.35644531 C91.68332596 174.3656601 92.63886871 174.37487488 93.62336731 174.3843689 C98.84373615 174.35160681 102.48918647 173.92869972 107 171 C113.43452922 164.38673386 113.32749453 157.15934095 113.25 148.4375 C113.24395752 147.3657251 113.23791504 146.2939502 113.23168945 145.18969727 C113.22326285 129.97273279 113.22326285 129.97273279 108 116 C105.1154892 114.58857248 105.1154892 114.58857248 102 115 C99.37716666 116.28892287 99.37716666 116.28892287 98 119 C98.14000107 121.89335541 98.41982507 124.21317682 99 127 C100.21319253 133.43872489 100.18393386 139.71682254 100.1875 146.25 C100.19974609 147.44625 100.21199219 148.6425 100.22460938 149.875 C100.22750977 151.58429688 100.22750977 151.58429688 100.23046875 153.328125 C100.23457764 154.3687207 100.23868652 155.40931641 100.24291992 156.48144531 C100 159 100 159 98 161 C94.87645011 161.19904271 91.84151456 161.27260863 88.71679688 161.25878906 C87.27277245 161.26404602 87.27277245 161.26404602 85.79957581 161.26940918 C82.60589463 161.27823778 79.41243357 161.27237333 76.21875 161.265625 C74.00679481 161.26697132 71.79483991 161.26891158 69.58288574 161.27142334 C64.94243559 161.27437613 60.30206232 161.27007195 55.66162109 161.26074219 C49.70256175 161.24934761 43.74368255 161.25590625 37.78462982 161.26788712 C33.21570469 161.27510151 28.64682252 161.27281972 24.07789612 161.26763153 C21.88017251 161.26629387 19.68244506 161.2679468 17.48472595 161.27259064 C14.417446 161.27764894 11.35046101 161.26995539 8.28320312 161.25878906 C7.36781265 161.26283752 6.45242218 161.26688599 5.5092926 161.27105713 C-0.77147258 161.22852742 -0.77147258 161.22852742 -3 159 C-5.04094783 141.44270341 -3.96734534 123.46184263 7 109 C8.91541238 107.0758812 10.78139537 105.5847176 13 104 C13.38929688 104.43570313 13.77859375 104.87140625 14.1796875 105.3203125 C22.84106377 114.54048724 33.09614457 119.8621674 45.7956543 120.40283203 C58.87944351 120.62097199 69.27879101 116.87788645 79 108 C88.25258319 97.62953966 90.78014319 86.73378463 90.34375 73.20703125 C90.05481683 68.41095301 88.79517781 64.44891891 87 60 C87.33 59.01 87.66 58.02 88 57 C100.65306915 67.09887817 111.19659485 80.07791571 121.62792969 92.38378906 C122.78779653 93.7500379 123.95905583 95.10660288 125.1328125 96.4609375 C169.5276317 149.40036626 191.400317 225.79451026 186.56640625 294.2109375 C184.68325118 315.4164049 180.9767201 336.5701644 175 357 C174.58524414 358.43351807 174.58524414 358.43351807 174.16210938 359.89599609 C163.82775791 394.87066071 145.36345889 435.00342821 119 461 C118.09378906 461.9075 117.18757812 462.815 116.25390625 463.75 C115.13822266 464.86375 115.13822266 464.86375 114 466 C113.98018066 465.31075439 113.96036133 464.62150879 113.93994141 463.91137695 C114.53251806 441.63846823 114.53251806 441.63846823 108 421 C104.41136476 419.9384058 104.41136476 419.9384058 101 420 C99.27072025 421.51990778 99.27072025 421.51990778 98 424 C98.18178167 426.81761584 98.47332973 429.25936395 99 432 C100.20833984 438.44028552 100.18393327 444.71574362 100.1875 451.25 C100.19974609 452.44625 100.21199219 453.6425 100.22460938 454.875 C100.22750977 456.58429688 100.22750977 456.58429688 100.23046875 458.328125 C100.23457764 459.3687207 100.23868652 460.40931641 100.24291992 461.48144531 C100 464 100 464 98 466 C94.87645011 466.19904271 91.84151456 466.27260863 88.71679688 466.25878906 C87.27277245 466.26404602 87.27277245 466.26404602 85.79957581 466.26940918 C82.60589463 466.27823778 79.41243357 466.27237333 76.21875 466.265625 C74.00679481 466.26697132 71.79483991 466.26891158 69.58288574 466.27142334 C64.94243559 466.27437613 60.30206232 466.27007195 55.66162109 466.26074219 C49.70256175 466.24934761 43.74368255 466.25590625 37.78462982 466.26788712 C33.21570469 466.27510151 28.64682252 466.27281972 24.07789612 466.26763153 C21.88017251 466.26629387 19.68244506 466.2679468 17.48472595 466.27259064 C14.417446 466.27764894 11.35046101 466.26995539 8.28320312 466.25878906 C7.36781265 466.26283752 6.45242218 466.26688599 5.5092926 466.27105713 C-0.77147258 466.22852742 -0.77147258 466.22852742 -3 464 C-5.04094783 446.44270341 -3.96734534 428.46184263 7 414 C8.91541238 412.0758812 10.78139537 410.5847176 13 409 C13.60585938 409.59167969 14.21171875 410.18335938 14.8359375 410.79296875 C25.5279972 420.87640351 35.85488373 425.5722033 50.5546875 425.31640625 C59.52746931 424.49237527 67.81058139 421.42359649 75 416 C75.82242188 415.39414062 76.64484375 414.78828125 77.4921875 414.1640625 C84.67657766 407.96444856 89.31309704 398.48915034 90.17578125 389.08349609 C91.04676818 375.68585067 88.71034158 364.61698317 80 354 C75.29087678 349.06616758 70.27892905 345.62284378 64 343 C63.0925 342.608125 62.185 342.21625 61.25 341.8125 C47.22841373 338.30710343 35.35793692 340.84358578 22.9375 347.6875 C14.37560273 354.427717 8.16208698 363.17358604 6 374 C6.02049325 375.63040867 6.09821935 377.26064225 6.21875 378.88671875 C7.04061861 394.18297329 7.04061861 394.18297329 4.24609375 399.0625 C1.9375 401.1875 1.9375 401.1875 -0.55078125 403.09765625 C-9.59927669 410.12575398 -14.21822388 424.15769368 -15.6171875 435.17578125 C-16.16535552 440.96295738 -16.22228724 446.75321166 -16.25 452.5625 C-16.270625 453.64724609 -16.29125 454.73199219 -16.3125 455.84960938 C-16.34489236 462.51838684 -16.35335057 469.32541185 -11.58300781 474.55273438 C-7.75052329 477.90527173 -4.64756455 479.11644809 0.3469696 479.15821838 C1.23457977 479.1680072 2.12218994 479.17779602 3.03669739 479.18788147 C4.00773911 479.19363693 4.97878082 479.1993924 5.97924805 479.20532227 C7.00381104 479.21522186 8.02837402 479.22512146 9.08398438 479.23532104 C12.47653885 479.26695337 15.86910734 479.29170041 19.26171875 479.31640625 C21.61156075 479.33697427 23.96139903 479.3579707 26.31123352 479.37937927 C32.50079342 479.43461557 38.69038679 479.48401802 44.88000488 479.53222656 C51.19412216 479.58243018 57.50819073 479.6381222 63.82226562 479.69335938 C76.21480216 479.80096002 88.60738095 479.9024008 101 480 C95.59645096 489.2087056 87.25440682 495.41315011 79 502 C77.86373465 502.92604296 76.72835261 503.85317056 75.59375 504.78125 C8.12413648 559.75886503 -81.51708326 587.47204058 -168.42578125 578.65234375 C-205.33124216 574.56935506 -241.13083405 566.40476701 -275 551 C-276.6401709 550.25508301 -276.6401709 550.25508301 -278.31347656 549.49511719 C-302.50196786 538.40093935 -324.22435816 525.64388315 -345 509 C-345.58346191 508.53577637 -346.16692383 508.07155273 -346.76806641 507.59326172 C-349.88490444 505.1079334 -352.94845278 502.56479736 -356 500 C-357.09844453 499.09833204 -358.19743689 498.19733119 -359.296875 497.296875 C-365.33544068 492.31635954 -371.33069357 487.35025674 -376 481 C-376 480.67 -376 480.34 -376 480 C-374.6853476 479.99413376 -373.37069519 479.98826752 -372.01620483 479.98222351 C-359.62695881 479.92501108 -347.23788856 479.85225692 -334.84882164 479.76428509 C-328.47946818 479.71955736 -322.11017904 479.68030629 -315.74072266 479.65356445 C-309.59386712 479.62755581 -303.44725879 479.58717011 -297.30055618 479.53681374 C-294.95545145 479.52012862 -292.61030395 479.50862461 -290.26514816 479.50238609 C-286.9803755 479.4927632 -283.69623764 479.46472435 -280.41162109 479.43237305 C-278.95721115 479.43452568 -278.95721115 479.43452568 -277.47341919 479.4367218 C-271.00168636 479.34657717 -266.44722141 478.51519978 -261.75 473.6875 C-257.53439407 467.21353375 -257.68352104 460.91956282 -257.75 453.4375 C-257.75604248 452.3657251 -257.76208496 451.2939502 -257.76831055 450.18969727 C-257.86276857 442.63706274 -258.19022779 435.36508563 -260 428 C-260.18304688 427.24332031 -260.36609375 426.48664063 -260.5546875 425.70703125 C-261.16774107 423.5139205 -261.16774107 423.5139205 -263 421 C-266.58863524 419.9384058 -266.58863524 419.9384058 -270 420 C-271.72927975 421.51990778 -271.72927975 421.51990778 -273 424 C-272.77358961 427.56596363 -272.28397618 430.76921258 -271.48413086 434.23583984 C-270.53418724 439.65957241 -270.81536175 445.19579828 -270.8125 450.6875 C-270.80025391 451.93595703 -270.78800781 453.18441406 -270.77539062 454.47070312 C-270.77345703 455.65986328 -270.77152344 456.84902344 -270.76953125 458.07421875 C-270.76542236 459.16307373 -270.76131348 460.25192871 -270.75708008 461.3737793 C-271 464 -271 464 -273 466 C-276.12354989 466.19904271 -279.15848544 466.27260863 -282.28320312 466.25878906 C-283.72722755 466.26404602 -283.72722755 466.26404602 -285.20042419 466.26940918 C-288.39410537 466.27823778 -291.58756643 466.27237333 -294.78125 466.265625 C-296.99320519 466.26697132 -299.20516009 466.26891158 -301.41711426 466.27142334 C-306.05756441 466.27437613 -310.69793768 466.27007195 -315.33837891 466.26074219 C-321.29743825 466.24934761 -327.25631745 466.25590625 -333.21537018 466.26788712 C-337.78429531 466.27510151 -342.35317748 466.27281972 -346.92210388 466.26763153 C-349.11982749 466.26629387 -351.31755494 466.2679468 -353.51527405 466.27259064 C-356.582554 466.27764894 -359.64953899 466.26995539 -362.71679688 466.25878906 C-363.63218735 466.26283752 -364.54757782 466.26688599 -365.4907074 466.27105713 C-371.77147258 466.22852742 -371.77147258 466.22852742 -374 464 C-376.07319938 446.16525881 -374.75657638 428.80060894 -364 414 C-362.41189375 412.16725075 -360.82256389 410.6081446 -359 409 C-356 410 -356 410 -354.375 412.1875 C-347.39942961 420.44804388 -337.28181063 424.14639062 -326.734375 425.3828125 C-315.56541045 425.78748513 -304.9513546 422.75277628 -296 416 C-295.17757812 415.39542969 -294.35515625 414.79085938 -293.5078125 414.16796875 C-286.73723676 408.31490094 -281.62445989 398.98874699 -280.82421875 390.03271484 C-279.9716847 376.2612452 -282.02450174 364.94018105 -291 354 C-295.70912322 349.06616758 -300.72107095 345.62284378 -307 343 C-307.9075 342.608125 -308.815 342.21625 -309.75 341.8125 C-323.77158627 338.30710343 -335.64206308 340.84358578 -348.0625 347.6875 C-356.5552904 354.37331372 -363.15608264 363.160688 -365 374 C-365.01473556 376.67292547 -364.87120711 379.31294188 -364.71704102 381.98120117 C-364.05624189 394.35474311 -364.05624189 394.35474311 -366.75 399.05078125 C-369.0625 401.1875 -369.0625 401.1875 -371.546875 403.08203125 C-381.02005551 410.48861028 -385.10260631 424.30931732 -386.6953125 435.765625 C-387.60398354 445.7764076 -387.14612867 455.96096038 -387 466 C-390 466 -390 466 -392.57421875 463.5625 C-393.62611173 462.38750039 -394.66263373 461.19864593 -395.6875 460 C-396.253479 459.33846924 -396.81945801 458.67693848 -397.40258789 457.99536133 C-443.21754177 402.9490825 -467.66596611 325.47380321 -461.32470703 254.06738281 C-459.17421941 233.75255092 -455.74018969 213.62131899 -450 194 C-449.72349609 193.04432129 -449.44699219 192.08864258 -449.16210938 191.10400391 C-439.03800723 156.84088847 -421.19751345 118.2356609 -396.07421875 92.18359375 C-393.72596663 89.71151666 -391.62477982 87.10353182 -389.5 84.4375 C-385.94973746 80.04606028 -382.17509954 76.06250981 -378.12890625 72.12890625 C-376.07873158 70.07873158 -374.19021749 67.95786562 -372.3125 65.75 C-369.45909752 62.41658589 -366.45662446 59.69785324 -363 57 C-361.85447333 60.43658001 -362.13296402 60.82628193 -363.4609375 64 C-365.41471189 69.46968323 -364.98611938 74.28489333 -364.625 80 C-364.31478252 89.82355355 -364.31478252 89.82355355 -366.7109375 93.9375 C-369 96 -369 96 -371.48046875 97.890625 C-380.89844012 105.77543824 -385.4871151 120.94837731 -386.81469727 132.65283203 C-387.20501678 137.59687919 -387.22653479 142.54297488 -387.25 147.5 C-387.270625 148.58925781 -387.29125 149.67851562 -387.3125 150.80078125 C-387.34483153 157.48532548 -387.36596276 164.3121714 -382.58300781 169.55249023 C-378.7641468 172.89369913 -375.67392569 174.12104365 -370.69340515 174.14044189 C-369.37499634 174.14900711 -369.37499634 174.14900711 -368.029953 174.15774536 C-367.06833755 174.15886322 -366.10672211 174.15998108 -365.1159668 174.16113281 C-363.59357895 174.16858017 -363.59357895 174.16858017 -362.04043579 174.17617798 C-358.67668992 174.19080496 -355.31299122 174.19760256 -351.94921875 174.203125 C-349.61375426 174.20887605 -347.27828978 174.21463379 -344.94282532 174.22039795 C-340.04269185 174.23090949 -335.1425748 174.23675115 -330.24243164 174.24023438 C-323.96427671 174.24571908 -317.68633867 174.26974615 -311.40825176 174.29820633 C-306.58268094 174.31683228 -301.75716235 174.3220383 -296.93155861 174.32357025 C-294.6171125 174.32659745 -292.30266732 174.33462819 -289.98825645 174.34775543 C-286.74940885 174.36481445 -283.51109113 174.36293579 -280.2722168 174.35644531 C-279.31667404 174.3656601 -278.36113129 174.37487488 -277.37663269 174.3843689 C-272.0907085 174.3511954 -268.65438909 173.77000864 -264 171 C-263.34 171 -262.68 171 -262 171 C-261.31653318 169.34015202 -260.65411685 167.67163195 -260 166 C-259.65195312 165.18917969 -259.30390625 164.37835938 -258.9453125 163.54296875 C-257.5979271 158.49305734 -257.70376401 153.64126061 -257.75 148.4375 C-257.75604248 147.3657251 -257.76208496 146.2939502 -257.76831055 145.18969727 C-257.77673715 129.97273279 -257.77673715 129.97273279 -263 116 C-265.8845108 114.58857248 -265.8845108 114.58857248 -269 115 C-271.62283334 116.28892287 -271.62283334 116.28892287 -273 119 C-272.82789885 122.61412419 -272.29323365 125.73447985 -271.48193359 129.23583984 C-270.53617405 134.66030265 -270.81536181 140.19568413 -270.8125 145.6875 C-270.80025391 146.93595703 -270.78800781 148.18441406 -270.77539062 149.47070312 C-270.77345703 150.65986328 -270.77152344 151.84902344 -270.76953125 153.07421875 C-270.76542236 154.16307373 -270.76131348 155.25192871 -270.75708008 156.3737793 C-271 159 -271 159 -273 161 C-276.12354989 161.19904271 -279.15848544 161.27260863 -282.28320312 161.25878906 C-283.72722755 161.26404602 -283.72722755 161.26404602 -285.20042419 161.26940918 C-288.39410537 161.27823778 -291.58756643 161.27237333 -294.78125 161.265625 C-296.99320519 161.26697132 -299.20516009 161.26891158 -301.41711426 161.27142334 C-306.05756441 161.27437613 -310.69793768 161.27007195 -315.33837891 161.26074219 C-321.29743825 161.24934761 -327.25631745 161.25590625 -333.21537018 161.26788712 C-337.78429531 161.27510151 -342.35317748 161.27281972 -346.92210388 161.26763153 C-349.11982749 161.26629387 -351.31755494 161.2679468 -353.51527405 161.27259064 C-356.582554 161.27764894 -359.64953899 161.26995539 -362.71679688 161.25878906 C-363.63218735 161.26283752 -364.54757782 161.26688599 -365.4907074 161.27105713 C-371.77147258 161.22852742 -371.77147258 161.22852742 -374 159 C-376.05137419 141.35301047 -374.59896621 125.33715204 -364.87890625 110.33984375 C-362.83124333 107.78984356 -360.61896791 105.94513397 -358 104 C-357.41605469 104.65355469 -357.41605469 104.65355469 -356.8203125 105.3203125 C-348.15893623 114.54048724 -337.90385543 119.8621674 -325.2043457 120.40283203 C-312.12055649 120.62097199 -301.72120899 116.87788645 -292 108 C-282.84003897 97.73335223 -280.09519483 86.75099813 -280.6171875 73.31640625 C-281.37532219 62.35206216 -286.78464397 52.74882454 -294.6875 45.25 C-304.70458168 37.05766185 -316.55002859 34.43834267 -329.25 35.375 C-331.16820865 35.568622 -333.08563154 35.77151086 -335 36 C-332.0540915 31.92602409 -328.8002093 29.15397584 -324.625 26.4375 C-323.97853516 26.01331787 -323.33207031 25.58913574 -322.66601562 25.15209961 C-234.61241276 -31.461115 -122.80737251 -44.11153074 0 0 Z " fill="#0A2966" transform="translate(649,255)"/>
<path d="M0 0 C0.80981323 0.00060425 1.61962646 0.0012085 2.45397949 0.00183105 C24.32950933 0.04593278 45.47162678 2.29140604 67 6.1875 C68.49466797 6.45602783 68.49466797 6.45602783 70.01953125 6.72998047 C122.7199483 16.40841551 173.29152233 39.64605282 215 73.1875 C215.86866699 73.87948486 215.86866699 73.87948486 216.75488281 74.58544922 C219.87605819 77.07384652 222.94180827 79.62241206 226 82.1875 C227.00675781 82.99832031 228.01351562 83.80914062 229.05078125 84.64453125 C237.83742708 91.78301694 245.47654383 99.74349689 253 108.1875 C253.56251465 108.81736816 254.1250293 109.44723633 254.70458984 110.09619141 C258.5354846 114.405253 262.29427448 118.77041817 266 123.1875 C266.4753418 123.75259277 266.95068359 124.31768555 267.44042969 124.89990234 C275.61731486 134.71044792 282.44319309 145.24242414 289 156.1875 C289.52883789 157.0655127 290.05767578 157.94352539 290.60253906 158.84814453 C318.39813539 205.37192227 333.27241593 258.03039423 333.1875 312.25 C333.18659363 313.33074295 333.18659363 313.33074295 333.18566895 314.43331909 C333.15847426 326.44690514 332.67118968 338.28027353 331 350.1875 C330.87109375 351.11755859 330.7421875 352.04761719 330.609375 353.00585938 C322.68757775 408.34841516 300.40130677 463.11102989 263 505.1875 C261.56735493 506.88454944 260.14788621 508.59209382 258.72827148 510.30004883 C254.63076372 515.22002582 250.41741854 519.92382112 245.80859375 524.375 C244.01757543 526.16988661 242.42493215 528.04458106 240.8125 530 C235.84923266 535.74930515 229.88532875 540.42514936 224 545.1875 C223.18184814 545.85072266 223.18184814 545.85072266 222.34716797 546.52734375 C218.91659732 549.29396608 215.4474118 552.00618024 211.95019531 554.68798828 C210.61178896 555.71709342 209.27802806 556.75226006 207.94824219 557.79248047 C149.8336183 603.13247747 74.15482369 625.47669285 1 625.375 C0.19018677 625.37439575 -0.61962646 625.3737915 -1.45397949 625.37316895 C-23.32950933 625.32906722 -44.47162678 623.08359396 -66 619.1875 C-66.99644531 619.00848145 -67.99289062 618.82946289 -69.01953125 618.64501953 C-121.7199483 608.96658449 -172.29152233 585.72894718 -214 552.1875 C-214.57911133 551.72617676 -215.15822266 551.26485352 -215.75488281 550.78955078 C-218.87605819 548.30115348 -221.94180827 545.75258794 -225 543.1875 C-226.51013672 541.97126953 -226.51013672 541.97126953 -228.05078125 540.73046875 C-236.83742708 533.59198306 -244.47654383 525.63150311 -252 517.1875 C-252.56251465 516.55763184 -253.1250293 515.92776367 -253.70458984 515.27880859 C-257.5354846 510.969747 -261.29427448 506.60458183 -265 502.1875 C-265.4753418 501.62240723 -265.95068359 501.05731445 -266.44042969 500.47509766 C-274.61731486 490.66455208 -281.44319309 480.13257586 -288 469.1875 C-288.52883789 468.3094873 -289.05767578 467.43147461 -289.60253906 466.52685547 C-317.39813539 420.00307773 -332.27241593 367.34460577 -332.1875 313.125 C-332.18689575 312.4045047 -332.1862915 311.6840094 -332.18566895 310.94168091 C-332.15847426 298.92809486 -331.67118968 287.09472647 -330 275.1875 C-329.87109375 274.25744141 -329.7421875 273.32738281 -329.609375 272.36914062 C-321.68757775 217.02658484 -299.40130677 162.26397011 -262 120.1875 C-260.56735493 118.49045056 -259.14788621 116.78290618 -257.72827148 115.07495117 C-253.63076372 110.15497418 -249.41741854 105.45117888 -244.80859375 101 C-243.01757543 99.20511339 -241.42493215 97.33041894 -239.8125 95.375 C-234.84923266 89.62569485 -228.88532875 84.94985064 -223 80.1875 C-222.45456543 79.74535156 -221.90913086 79.30320312 -221.34716797 78.84765625 C-217.91659732 76.08103392 -214.4474118 73.36881976 -210.95019531 70.68701172 C-209.61178896 69.65790658 -208.27802806 68.62273994 -206.94824219 67.58251953 C-148.8336183 22.24252253 -73.15482369 -0.10169285 0 0 Z M-196 71.1875 C-196.33 71.8475 -196.66 72.5075 -197 73.1875 C-196.20078125 73.09210938 -195.4015625 72.99671875 -194.578125 72.8984375 C-179.95691301 71.42258746 -167.71693474 74.09124468 -155.76953125 82.81640625 C-148.23749923 89.71661218 -143.27699707 100.20085453 -142.62890625 110.3515625 C-142.25929364 123.72915439 -144.70367791 134.56134758 -153.703125 144.96484375 C-163.22643635 154.18042905 -173.93261299 157.7171572 -186.9621582 157.60742188 C-200.96882183 157.09177833 -210.77198319 150.06972512 -221 141.1875 C-231.80971606 152.06117887 -236.24051158 164.27762963 -236.2734375 179.390625 C-236.26183594 181.20820313 -236.26183594 181.20820313 -236.25 183.0625 C-236.25773437 184.29742187 -236.26546875 185.53234375 -236.2734375 186.8046875 C-236.26957031 188.568125 -236.26957031 188.568125 -236.265625 190.3671875 C-236.26224121 191.97182861 -236.26224121 191.97182861 -236.25878906 193.60888672 C-236.25834549 196.35112922 -236.25834549 196.35112922 -234 198.1875 C-230.87645011 198.38654271 -227.84151456 198.46010863 -224.71679688 198.44628906 C-223.75411392 198.4497937 -222.79143097 198.45329834 -221.79957581 198.45690918 C-218.60589463 198.46573778 -215.41243357 198.45987333 -212.21875 198.453125 C-210.00679481 198.45447132 -207.79483991 198.45641158 -205.58288574 198.45892334 C-200.94243559 198.46187613 -196.30206232 198.45757195 -191.66162109 198.44824219 C-185.70256175 198.43684761 -179.74368255 198.44340625 -173.78462982 198.45538712 C-169.21570469 198.46260151 -164.64682252 198.46031972 -160.07789612 198.45513153 C-157.88017251 198.45379387 -155.68244506 198.4554468 -153.48472595 198.46009064 C-150.417446 198.46514894 -147.35046101 198.45745539 -144.28320312 198.44628906 C-143.36781265 198.45033752 -142.45242218 198.45438599 -141.5092926 198.45855713 C-136.76958691 198.66420119 -136.76958691 198.66420119 -133 196.1875 C-132.68816207 193.51969878 -132.68816207 193.51969878 -132.734375 190.40234375 C-132.73179687 189.23123047 -132.72921875 188.06011719 -132.7265625 186.85351562 C-132.73429688 185.62310547 -132.74203125 184.39269531 -132.75 183.125 C-132.74226562 181.92166016 -132.73453125 180.71832031 -132.7265625 179.47851562 C-132.74136898 172.70085015 -133.33974321 166.74851477 -135 160.1875 C-134.8125 156.75 -134.8125 156.75 -134 154.1875 C-131 152.1875 -131 152.1875 -128 152.125 C-125 153.1875 -125 153.1875 -123.25 155.9375 C-120.00761037 165.54955447 -119.78722927 175.45779533 -119.6875 185.5 C-119.66985596 186.52601318 -119.65221191 187.55202637 -119.6340332 188.60913086 C-119.63963994 194.88103253 -120.44271107 199.45787796 -123 205.1875 C-123.33 206.1775 -123.66 207.1675 -124 208.1875 C-128.05759322 210.10951784 -131.81844856 211.31046136 -136.30659485 211.32794189 C-137.18553406 211.33365204 -138.06447327 211.33936218 -138.970047 211.34524536 C-140.41247017 211.34692215 -140.41247017 211.34692215 -141.8840332 211.34863281 C-142.89895844 211.35359772 -143.91388367 211.35856262 -144.95956421 211.36367798 C-148.32331008 211.37830496 -151.68700878 211.38510256 -155.05078125 211.390625 C-157.38624574 211.39637605 -159.72171022 211.40213379 -162.05717468 211.40789795 C-166.95730815 211.41840949 -171.8574252 211.42425115 -176.75756836 211.42773438 C-183.03572329 211.43321908 -189.31366133 211.45724615 -195.59174824 211.48570633 C-200.41731906 211.50433228 -205.24283765 211.5095383 -210.06844139 211.51107025 C-212.3828875 211.51409745 -214.69733268 211.52212819 -217.01174355 211.53525543 C-220.25059115 211.55231445 -223.48890887 211.55043579 -226.7277832 211.54394531 C-227.68332596 211.5531601 -228.63886871 211.56237488 -229.62336731 211.5718689 C-234.84373615 211.53910681 -238.48918647 211.11619972 -243 208.1875 C-250.28803866 200.69701582 -249.35296143 191.69023258 -249.29101562 181.92602539 C-248.9905984 162.65342604 -244.57527215 146.0819435 -230.8828125 132.0078125 C-230.26148438 131.40710938 -229.64015625 130.80640625 -229 130.1875 C-226.79123294 128.40836823 -226.79123294 128.40836823 -226.82055664 126.08374023 C-226.86490845 124.80285522 -226.86490845 124.80285522 -226.91015625 123.49609375 C-226.93013672 122.55056641 -226.95011719 121.60503906 -226.97070312 120.63085938 C-227.03107057 118.65414654 -227.09604302 116.67756802 -227.16601562 114.70117188 C-227.27905047 108.9285994 -226.78016363 104.40384184 -224.55639648 99.04711914 C-223.74662191 96.98948049 -223.74662191 96.98948049 -225 94.1875 C-237.65154524 104.28516188 -248.19376216 117.26225772 -258.62353516 129.56689453 C-259.79576294 130.94703785 -260.98057011 132.31648072 -262.16796875 133.68359375 C-276.10046581 150.25895623 -286.6188445 170.58432752 -295.96875 190.04199219 C-296.67135001 191.50374618 -297.37993491 192.96263506 -298.09375 194.41894531 C-330.22594812 260.32900101 -331.14942154 339.54879993 -307.8125 408.3125 C-296.4806617 440.00046433 -279.7080554 473.91618626 -256 498.1875 C-254.29676312 500.16051671 -252.6477303 502.16770157 -251 504.1875 C-250.34 503.8575 -249.68 503.5275 -249 503.1875 C-249.01571045 502.48367188 -249.0314209 501.77984375 -249.04760742 501.0546875 C-249.723339 466.11052609 -249.723339 466.11052609 -242 452.1875 C-241.57976562 451.38054687 -241.15953125 450.57359375 -240.7265625 449.7421875 C-238.02118955 444.85458002 -235.57471086 441.818442 -231.125 438.4375 C-228.56156437 436.05747158 -227.16239007 434.33203088 -226.66455078 430.82324219 C-226.52546236 426.98827692 -226.65133601 423.18846416 -226.80957031 419.35571289 C-227.09983254 412.13513518 -226.595326 406.60772501 -223 400.1875 C-222.34644531 398.99833984 -222.34644531 398.99833984 -221.6796875 397.78515625 C-216.65197765 389.52927204 -209.87980111 383.89678401 -201 380.1875 C-200.0925 379.795625 -199.185 379.40375 -198.25 379 C-184.22841373 375.49460343 -172.35793692 378.03108578 -159.9375 384.875 C-151.26713533 391.70060623 -145.37848628 400.32709836 -143 411.1875 C-142.10845748 425.93449024 -143.52262843 436.70288383 -152.80078125 448.7421875 C-160.09902461 456.85710818 -171.08048599 461.53112724 -181.875 462.42578125 C-195.31129429 462.74489324 -205.90248278 459.19434462 -216 450.1875 C-217.8046875 447.9375 -217.8046875 447.9375 -219 446.1875 C-226.4450642 449.53377617 -229.70815814 456.05808036 -232.921875 463.24609375 C-236.00582144 471.65990415 -236.30693895 479.14206399 -236.25 488.0625 C-236.25773437 489.29742188 -236.26546875 490.53234375 -236.2734375 491.8046875 C-236.26957031 493.568125 -236.26957031 493.568125 -236.265625 495.3671875 C-236.26224121 496.97182861 -236.26224121 496.97182861 -236.25878906 498.60888672 C-236.25834549 501.35112922 -236.25834549 501.35112922 -234 503.1875 C-230.87645011 503.38654271 -227.84151456 503.46010863 -224.71679688 503.44628906 C-223.75411392 503.4497937 -222.79143097 503.45329834 -221.79957581 503.45690918 C-218.60589463 503.46573778 -215.41243357 503.45987333 -212.21875 503.453125 C-210.00679481 503.45447132 -207.79483991 503.45641158 -205.58288574 503.45892334 C-200.94243559 503.46187613 -196.30206232 503.45757195 -191.66162109 503.44824219 C-185.70256175 503.43684761 -179.74368255 503.44340625 -173.78462982 503.45538712 C-169.21570469 503.46260151 -164.64682252 503.46031972 -160.07789612 503.45513153 C-157.88017251 503.45379387 -155.68244506 503.4554468 -153.48472595 503.46009064 C-150.417446 503.46514894 -147.35046101 503.45745539 -144.28320312 503.44628906 C-143.36781265 503.45033752 -142.45242218 503.45438599 -141.5092926 503.45855713 C-136.76958691 503.66420119 -136.76958691 503.66420119 -133 501.1875 C-132.68816207 498.51969878 -132.68816207 498.51969878 -132.734375 495.40234375 C-132.73179687 494.23123047 -132.72921875 493.06011719 -132.7265625 491.85351562 C-132.73429688 490.62310547 -132.74203125 489.39269531 -132.75 488.125 C-132.74226562 486.92166016 -132.73453125 485.71832031 -132.7265625 484.47851562 C-132.74137081 477.70001108 -133.34597786 471.75023301 -135 465.1875 C-134.60784314 459.79534314 -134.60784314 459.79534314 -132 457.1875 C-128.5625 457.125 -128.5625 457.125 -125 458.1875 C-123.30814147 460.75445778 -122.70556089 462.27085041 -122 465.1875 C-121.69449219 466.43080078 -121.69449219 466.43080078 -121.3828125 467.69921875 C-119.90912779 475.25942321 -119.76379628 482.81737226 -119.6875 490.5 C-119.66985596 491.52601318 -119.65221191 492.55202637 -119.6340332 493.60913086 C-119.63981079 500.07215117 -119.8147612 506.68993983 -124.41674805 511.74316406 C-128.26762559 515.10414585 -131.3725497 516.30419568 -136.38493347 516.34571838 C-137.72896996 516.36040161 -137.72896996 516.36040161 -139.10015869 516.37538147 C-140.08055115 516.38113693 -141.0609436 516.3868924 -142.07104492 516.39282227 C-143.10536148 516.40272186 -144.13967804 516.41262146 -145.20533752 516.42282104 C-148.63035784 516.45445462 -152.05539203 516.47920091 -155.48046875 516.50390625 C-157.85273096 516.52447417 -160.22498949 516.54547059 -162.59724426 516.56687927 C-168.8459882 516.62211668 -175.0947653 516.67151865 -181.34356689 516.71972656 C-187.71800697 516.76992936 -194.09239879 516.82562181 -200.46679688 516.88085938 C-212.9778231 516.98846139 -225.4888905 517.09008821 -238 517.1875 C-232.59645096 526.3962056 -224.25440682 532.60065011 -216 539.1875 C-214.86373465 540.11354296 -213.72835261 541.04067056 -212.59375 541.96875 C-208.76545182 545.08856611 -204.89624781 548.15303909 -201 551.1875 C-200.33145996 551.70860352 -199.66291992 552.22970703 -198.97412109 552.76660156 C-132.71128976 603.84452854 -41.39739377 625.27010782 41.05493164 614.63183594 C102.2510029 606.51012281 159.48839958 584.83762013 208 546.1875 C208.5863623 545.72182617 209.17272461 545.25615234 209.77685547 544.77636719 C212.89083876 542.2927248 215.95097125 539.7501806 219 537.1875 C220.09844453 536.28583204 221.19743689 535.38483119 222.296875 534.484375 C228.33544068 529.50385954 234.33069357 524.53775674 239 518.1875 C239 517.8575 239 517.5275 239 517.1875 C237.69787567 517.18163376 236.39575134 517.17576752 235.0541687 517.16972351 C222.78265074 517.11250969 210.51131022 517.0397548 198.23997307 516.95178509 C191.93115389 516.90705842 185.62239964 516.86780713 179.31347656 516.84106445 C173.22497447 516.81505474 167.1367219 516.77466828 161.04837418 516.72431374 C158.72559844 516.70762935 156.40277952 516.69612488 154.07995224 516.68988609 C150.82631015 516.6802624 147.57330873 516.65222265 144.31982422 516.61987305 C142.87944038 516.62202568 142.87944038 516.62202568 141.40995789 516.6242218 C134.96424338 516.53359242 130.42686697 515.68177995 125.75 510.875 C121.44547086 504.2644731 121.68398339 497.7648706 121.75 490.125 C121.75749268 489.0019043 121.76498535 487.87880859 121.77270508 486.72167969 C122.00177299 469.07705217 125.18836695 453.96092677 137 440.1875 C137.59756104 439.69314453 138.19512207 439.19878906 138.81079102 438.68945312 C142.6953744 435.38241379 142.6953744 435.38241379 144.49707031 430.74462891 C144.54520699 427.94809253 144.40430048 425.22578189 144.1875 422.4375 C143.87227601 414.20988326 143.87329986 407.55660739 148 400.1875 C148.43570312 399.39472656 148.87140625 398.60195313 149.3203125 397.78515625 C154.34802235 389.52927204 161.12019889 383.89678401 170 380.1875 C170.9075 379.795625 171.815 379.40375 172.75 379 C186.77158627 375.49460343 198.64206308 378.03108578 211.0625 384.875 C220.02979693 391.93436141 225.30777277 400.17902849 228 411.1875 C229.20812887 425.50242233 227.24243499 437.15990329 218.19921875 448.77734375 C210.83939743 456.84308044 199.93630749 461.52973538 189.125 462.42578125 C175.33248286 462.75335353 165.59141601 458.87789263 155 450.1875 C154.071875 449.445 153.14375 448.7025 152.1875 447.9375 C151.465625 447.36 150.74375 446.7825 150 446.1875 C139.01615385 457.22585655 134.7601461 468.97575464 134.7265625 484.390625 C134.73429687 485.60234375 134.74203125 486.8140625 134.75 488.0625 C134.74226563 489.29742188 134.73453125 490.53234375 134.7265625 491.8046875 C134.72914063 492.9803125 134.73171875 494.1559375 134.734375 495.3671875 C134.73775879 496.97182861 134.73775879 496.97182861 134.74121094 498.60888672 C134.74165451 501.35112922 134.74165451 501.35112922 137 503.1875 C140.12354989 503.38654271 143.15848544 503.46010863 146.28320312 503.44628906 C147.24588608 503.4497937 148.20856903 503.45329834 149.20042419 503.45690918 C152.39410537 503.46573778 155.58756643 503.45987333 158.78125 503.453125 C160.99320519 503.45447132 163.20516009 503.45641158 165.41711426 503.45892334 C170.05756441 503.46187613 174.69793768 503.45757195 179.33837891 503.44824219 C185.29743825 503.43684761 191.25631745 503.44340625 197.21537018 503.45538712 C201.78429531 503.46260151 206.35317748 503.46031972 210.92210388 503.45513153 C213.11982749 503.45379387 215.31755494 503.4554468 217.51527405 503.46009064 C220.582554 503.46514894 223.64953899 503.45745539 226.71679688 503.44628906 C227.63218735 503.45033752 228.54757782 503.45438599 229.4907074 503.45855713 C234.23041309 503.66420119 234.23041309 503.66420119 238 501.1875 C238.31162017 498.63399575 238.31162017 498.63399575 238.265625 495.65625 C238.26949219 493.97402344 238.26949219 493.97402344 238.2734375 492.2578125 C238.26570312 491.07960938 238.25796875 489.90140625 238.25 488.6875 C238.25773438 487.54023437 238.26546875 486.39296875 238.2734375 485.2109375 C238.25931444 479.01091379 237.87187522 473.2750009 236.40429688 467.2421875 C235.83324663 464.34003842 236.15608874 462.00053752 237 459.1875 C239 457.1875 239 457.1875 242.4375 457.125 C246 458.1875 246 458.1875 247.8125 460.9375 C252.18499578 474.403714 251.59778355 489.1998508 252 503.1875 C252.73347656 502.45402344 253.46695313 501.72054688 254.22265625 500.96484375 C255.86591843 499.32158157 257.51664864 497.68563916 259.18359375 496.06640625 C275.528561 479.268199 286.86798228 456.35325782 296.96875 435.33300781 C297.67135001 433.87125382 298.37993491 432.41236494 299.09375 430.95605469 C331.22594812 365.04599899 332.14942154 285.82620007 308.8125 217.0625 C297.88714846 186.51122131 281.76920663 152.91739789 259.0390625 129.3359375 C256.7039037 126.87552114 254.61435622 124.27702756 252.5 121.625 C248.94973746 117.23356028 245.17509954 113.25000981 241.12890625 109.31640625 C239.07873158 107.26623158 237.19021749 105.14536562 235.3125 102.9375 C232.45909752 99.60408589 229.45662446 96.88535324 226 94.1875 C224.60031287 97.30615209 224.60031287 97.30615209 226.4375 100.75 C230.17311598 111.40084928 229.1861135 124.12109184 224.6015625 134.2890625 C218.77040166 144.84204138 210.71889437 151.98419129 199.3125 156.125 C188.28713402 158.9295446 176.24246074 158.16324087 166 153.1875 C160.24652578 149.73868449 155.05685767 145.57898166 150 141.1875 C139.01615385 152.22585655 134.7601461 163.97575464 134.7265625 179.390625 C134.73429687 180.60234375 134.74203125 181.8140625 134.75 183.0625 C134.74226563 184.29742187 134.73453125 185.53234375 134.7265625 186.8046875 C134.72914063 187.9803125 134.73171875 189.1559375 134.734375 190.3671875 C134.73775879 191.97182861 134.73775879 191.97182861 134.74121094 193.60888672 C134.74165451 196.35112922 134.74165451 196.35112922 137 198.1875 C140.12354989 198.38654271 143.15848544 198.46010863 146.28320312 198.44628906 C147.24588608 198.4497937 148.20856903 198.45329834 149.20042419 198.45690918 C152.39410537 198.46573778 155.58756643 198.45987333 158.78125 198.453125 C160.99320519 198.45447132 163.20516009 198.45641158 165.41711426 198.45892334 C170.05756441 198.46187613 174.69793768 198.45757195 179.33837891 198.44824219 C185.29743825 198.43684761 191.25631745 198.44340625 197.21537018 198.45538712 C201.78429531 198.46260151 206.35317748 198.46031972 210.92210388 198.45513153 C213.11982749 198.45379387 215.31755494 198.4554468 217.51527405 198.46009064 C220.582554 198.46514894 223.64953899 198.45745539 226.71679688 198.44628906 C227.63218735 198.45033752 228.54757782 198.45438599 229.4907074 198.45855713 C234.23041309 198.66420119 234.23041309 198.66420119 238 196.1875 C238.31162017 193.63399575 238.31162017 193.63399575 238.265625 190.65625 C238.26949219 188.97402344 238.26949219 188.97402344 238.2734375 187.2578125 C238.26570312 186.07960938 238.25796875 184.90140625 238.25 183.6875 C238.25773438 182.54023438 238.26546875 181.39296875 238.2734375 180.2109375 C238.25931807 174.01250628 237.87217212 168.27461414 236.41040039 162.2421875 C235.82481008 159.310404 236.08096104 157.01531218 237 154.1875 C240 152.1875 240 152.1875 243 152.125 C246 153.1875 246 153.1875 247.75 155.9375 C250.99238963 165.54955447 251.21277073 175.45779533 251.3125 185.5 C251.33014404 186.52601318 251.34778809 187.55202637 251.3659668 188.60913086 C251.36018921 195.07215117 251.1852388 201.68993983 246.58325195 206.74316406 C242.76089745 210.07925141 239.67414049 211.30854281 234.69340515 211.32794189 C233.81446594 211.33365204 232.93552673 211.33936218 232.029953 211.34524536 C230.58752983 211.34692215 230.58752983 211.34692215 229.1159668 211.34863281 C228.10104156 211.35359772 227.08611633 211.35856262 226.04043579 211.36367798 C222.67668992 211.37830496 219.31299122 211.38510256 215.94921875 211.390625 C213.61375426 211.39637605 211.27828978 211.40213379 208.94282532 211.40789795 C204.04269185 211.41840949 199.1425748 211.42425115 194.24243164 211.42773438 C187.96427671 211.43321908 181.68633867 211.45724615 175.40825176 211.48570633 C170.58268094 211.50433228 165.75716235 211.5095383 160.93155861 211.51107025 C158.6171125 211.51409745 156.30266732 211.52212819 153.98825645 211.53525543 C150.74940885 211.55231445 147.51109113 211.55043579 144.2722168 211.54394531 C143.31667404 211.5531601 142.36113129 211.56237488 141.37663269 211.5718689 C136.0907085 211.5386954 132.65438909 210.95750864 128 208.1875 C127.34 208.1875 126.68 208.1875 126 208.1875 C125.31653318 206.52765202 124.65411685 204.85913195 124 203.1875 C123.65324219 202.383125 123.30648438 201.57875 122.94921875 200.75 C121.57689157 195.59953751 121.66054608 190.62083647 121.6875 185.3125 C121.69168945 184.20003906 121.69587891 183.08757812 121.70019531 181.94140625 C121.86405948 169.90610638 122.92862272 157.85132933 129 147.1875 C129.75796875 145.84945312 129.75796875 145.84945312 130.53125 144.484375 C133.43033784 139.66134705 135.88529211 136.1944861 140.4375 132.875 C142.81914414 130.68916981 143.88715458 129.10735524 144.28369141 125.875 C144.39718174 122.04278668 144.28194961 118.23643508 144.13989258 114.40625 C143.88929899 107.18332978 144.40546215 101.6063176 148 95.1875 C148.43570312 94.39472656 148.87140625 93.60195313 149.3203125 92.78515625 C155.52311242 82.59968424 164.40783341 76.37252779 175.94921875 73.4375 C182.97058573 72.11583092 189.87347194 71.96005762 197 72.1875 C189.90188168 64.37956985 180.55896323 59.12200309 171.4375 54 C169.95636719 53.16807129 169.95636719 53.16807129 168.4453125 52.31933594 C83.95452152 5.47742886 -18.03036271 -5.19160417 -196 71.1875 Z " fill="#000000" transform="translate(511,217.8125)"/>
<path d="M0 0 C0.93569824 -0.0065712 1.87139648 -0.0131424 2.83544922 -0.01991272 C5.92740977 -0.03959585 9.01932175 -0.05129977 12.11132812 -0.0612793 C13.70189781 -0.06739259 13.70189781 -0.06739259 15.32460022 -0.07362938 C20.94165856 -0.09447296 26.55869263 -0.10877981 32.17578125 -0.11816406 C37.9510595 -0.12920027 43.72594949 -0.16357314 49.501091 -0.20333576 C53.96407745 -0.22960313 58.42697298 -0.23786506 62.89002991 -0.24144554 C65.01728424 -0.24628855 67.14453514 -0.25783649 69.27171326 -0.27648354 C89.34076217 -0.44141909 104.19964279 2.56864652 119.32226562 16.7668457 C131.08229768 28.98223254 135.16578019 42.78443926 134.92382812 59.2590332 C134.35114233 74.16318092 127.00141182 85.97050405 116.64257812 96.17700195 C112.35742361 99.98192364 108.13779089 102.98756764 102.95507812 105.42700195 C98.0950736 107.98710796 96.5755813 111.45748447 94.22070312 116.27075195 C89.0257696 125.83765923 78.9807958 135.51096732 68.64257812 139.17700195 C67.61068314 136.081317 67.8688014 134.6002418 68.37695312 131.4777832 C69.70116341 121.41380892 69.70116341 121.41380892 66.64257812 112.17700195 C63.19477785 111.02773519 60.50489251 111.03835482 56.8671875 111.01928711 C56.18216156 111.01420639 55.49713562 111.00912567 54.79135132 111.00389099 C53.30341365 110.99319411 51.81545997 110.98457125 50.32749939 110.97777176 C47.96340666 110.96594983 45.59949393 110.94648425 43.23547363 110.9246521 C36.51348988 110.86317843 29.7915215 110.80920191 23.06933594 110.77563477 C18.95489271 110.75453894 14.84077333 110.71911011 10.72651672 110.67487717 C9.16705675 110.66082487 7.60753942 110.65201939 6.04801941 110.64882278 C-1.98427804 110.63063034 -9.42638035 110.38237648 -17.14831543 107.8531189 C-21.05995203 106.65592725 -24.63134473 106.26002347 -28.35742188 108.23950195 C-29.94237782 111.31035409 -29.03778894 113.89886971 -28.35742188 117.17700195 C-26.9263126 117.81649981 -25.4869473 118.43751523 -24.04492188 119.05200195 C-23.24441406 119.40004883 -22.44390625 119.7480957 -21.61914062 120.10668945 C-11.36178207 123.47257717 -0.85485427 123.58024138 9.83007812 123.80200195 C11.36981136 123.84028037 12.90952544 123.87933741 14.44921875 123.91918945 C18.18016096 124.01409019 21.91125054 124.09850143 25.64257812 124.17700195 C25.64257812 128.45395584 23.63540302 129.97885524 20.82617188 133.0480957 C10.20925083 143.39911891 -0.41810452 145.61701761 -14.88085938 145.6184082 C-16.14459381 145.63161606 -17.40832825 145.64482391 -18.71035767 145.65843201 C-22.03950115 145.69220906 -25.36826089 145.71472894 -28.69750977 145.72998047 C-33.40472237 145.75200582 -38.11172041 145.78465598 -42.8187561 145.83128357 C-45.31833398 145.85562601 -47.81802597 145.87049636 -50.31771851 145.87489319 C-52.01065536 145.89017311 -52.01065536 145.89017311 -53.73779297 145.90576172 C-54.72911224 145.91003677 -55.72043152 145.91431183 -56.74179077 145.91871643 C-59.44305457 146.18545792 -61.08262979 146.72042664 -63.35742188 148.17700195 C-65.00017634 151.78934162 -64.46787722 156.02417494 -64.41992188 159.92700195 C-64.41541016 160.62438477 -64.41089844 161.32176758 -64.40625 162.0402832 C-64.39452208 163.75255998 -64.3765884 165.46479229 -64.35742188 167.17700195 C-73.48501108 163.82241789 -79.12885603 156.86093371 -83.30273438 148.2199707 C-85.65422539 143.35810414 -88.31531059 141.86897609 -92.91992188 139.53637695 C-103.03811228 133.89354 -109.5925914 124.43685731 -112.82617188 113.4465332 C-115.91541848 100.24908999 -113.28151322 88.43676809 -106.41992188 76.92700195 C-99.27241863 67.39699762 -90.05815629 60.68430218 -78.35742188 58.17700195 C-75.54885367 57.88540198 -73.20803218 57.93542481 -70.35742188 58.17700195 C-67.44263664 62.5491798 -67.13668697 67.19329892 -66.23632812 72.31762695 C-65.31297851 76.37215773 -64.28682262 79.5041668 -62.35742188 83.17700195 C-58.91405414 84.50249027 -58.91405414 84.50249027 -55.35742188 84.17700195 C-53.54377617 83.00399415 -53.54377617 83.00399415 -52.35742188 81.17700195 C-52.13670403 79.18663234 -52.13670403 79.18663234 -52.54492188 77.05200195 C-52.6609375 76.24504883 -52.77695312 75.4380957 -52.89648438 74.60668945 C-53.31076238 72.42295283 -53.84400901 70.3220687 -54.41992188 68.17700195 C-57.58577481 54.35358303 -55.54867506 40.32910376 -48.66992188 27.98950195 C-39.94283279 14.51610126 -27.95682061 4.74671491 -12.26965332 0.62898254 C-8.17435642 -0.00661073 -4.13873896 0.01267542 0 0 Z " fill="#4A6BF6" transform="translate(503.357421875,443.822998046875)"/>
<path d="M0 0 C0.93102539 -0.0065712 1.86205078 -0.0131424 2.82128906 -0.01991272 C5.8933929 -0.03957105 8.96544787 -0.05129545 12.03759766 -0.0612793 C13.09331593 -0.06535482 14.14903419 -0.06943035 15.23674393 -0.07362938 C20.83132987 -0.09446441 26.42589152 -0.10877383 32.02050781 -0.11816406 C37.7607122 -0.12918658 43.50052449 -0.16354593 49.24059105 -0.20333576 C53.68654024 -0.2296594 58.1323985 -0.23787008 62.57841873 -0.24144554 C64.69202936 -0.24627566 66.80563693 -0.25778564 68.91917038 -0.27648354 C90.74104642 -0.45744456 109.95644395 2.84199819 127.04541016 17.66918945 C141.08876949 31.58251768 148.87673345 49.67292084 149.01416016 69.36450195 C148.867455 80.29170759 146.67008891 90.46816851 141.57666016 100.17700195 C141.10615234 101.11157227 140.63564453 102.04614258 140.15087891 103.0090332 C134.0838602 114.28876488 125.8441854 122.13880683 114.94384766 128.71606445 C110.01446928 131.75828807 107.3894936 135.43319817 104.45166016 140.30200195 C94.40914647 156.37002385 75.05635311 169.71711839 56.78369141 174.98168945 C53.63435274 175.26039199 52.08033156 173.98520908 49.57666016 172.17700195 C49.24666016 171.84700195 48.91666016 171.51700195 48.57666016 171.17700195 C48.89396678 164.72510058 50.44166272 159.39479471 52.58837891 153.3293457 C54.14318274 148.36995166 54.88390818 143.31795082 55.57666016 138.17700195 C51.04545183 137.88791893 46.96721065 137.94512088 42.57666016 139.17700195 C40.40298044 141.67538071 39.33457724 144.09633507 38.01416016 147.1262207 C32.68261648 158.44126313 21.65690809 165.8778323 10.26416016 170.05200195 C4.63084227 171.95711058 -0.53453021 173.27462038 -6.48901367 173.38232422 C-7.46965286 173.40226944 -8.45029205 173.42221466 -9.46064758 173.44276428 C-10.50665634 173.45947678 -11.5526651 173.47618927 -12.63037109 173.4934082 C-13.71090256 173.5141893 -14.79143402 173.5349704 -15.90470886 173.55638123 C-19.34835596 173.62164232 -22.79207779 173.6806527 -26.23583984 173.73950195 C-28.57373812 173.78270946 -30.91162891 173.82632446 -33.24951172 173.87036133 C-38.97404263 173.97729967 -44.69864749 174.07910922 -50.42333984 174.17700195 C-50.13108211 176.08677137 -49.8314734 177.99541671 -49.52880859 179.90356445 C-49.36276123 180.96655762 -49.19671387 182.02955078 -49.02563477 183.12475586 C-48.49604771 185.80854076 -47.79770671 188.04576616 -46.73583984 190.55200195 C-45.32613944 194.44546022 -45.06697155 196.28874618 -46.42333984 200.17700195 C-48.04833984 202.11450195 -48.04833984 202.11450195 -50.42333984 203.17700195 C-56.27214373 202.82738478 -60.56175602 200.97754798 -65.61083984 198.23950195 C-66.72241455 197.63996704 -66.72241455 197.63996704 -67.85644531 197.02832031 C-79.80455922 190.37483547 -88.56170709 182.03211876 -95.17333984 169.98950195 C-97.51807488 167.05858315 -99.41806628 165.83558088 -102.61083984 163.92700195 C-115.03209737 156.3353146 -121.88323055 144.48478638 -126.36083984 130.92700195 C-129.94531884 115.69296622 -127.68082581 99.36206679 -120.11083984 85.73950195 C-111.16787619 71.60507211 -99.10920793 63.00694464 -82.79833984 58.86450195 C-78.02392679 57.92714012 -73.26883092 57.99491669 -68.42333984 58.17700195 C-68.37177734 57.56856445 -68.32021484 56.96012695 -68.26708984 56.33325195 C-66.71754617 44.35950535 -60.47812179 32.15513695 -52.42333984 23.17700195 C-51.47587891 22.09225586 -51.47587891 22.09225586 -50.50927734 20.9855957 C-37.14317524 6.62311144 -19.31934905 0.05973327 0 0 Z M-44.43115234 35.5559082 C-53.89032269 48.31145609 -56.57825416 61.62843326 -55.42333984 77.17700195 C-54.8175897 80.39593006 -54.05596489 83.44022459 -53.07958984 86.5637207 C-52.16159655 90.21930113 -51.62927675 93.72900455 -53.48583984 97.11450195 C-56.54803638 98.79377102 -59.11704925 97.86321321 -62.42333984 97.17700195 C-65.35163201 90.75181721 -67.03556274 84.75276767 -67.93115234 77.7434082 C-68.29493492 74.94921426 -68.29493492 74.94921426 -70.42333984 72.17700195 C-79.04899501 71.05886147 -87.89299901 74.01704562 -94.86083984 79.11450195 C-105.05405159 87.51387727 -112.31099395 97.44620537 -114.17333984 110.73950195 C-115.2331255 124.07680444 -111.154261 135.78562372 -102.67333984 146.05200195 C-99.12105227 149.82972316 -95.28650838 152.36898424 -90.72021484 154.7902832 C-86.57735016 157.29150253 -84.15316295 160.27735084 -81.98583984 164.55200195 C-78.15199758 171.65041898 -73.27879888 176.9093652 -66.42333984 181.17700195 C-65.76333984 181.17700195 -65.10333984 181.17700195 -64.42333984 181.17700195 C-64.43494141 180.1405957 -64.44654297 179.10418945 -64.45849609 178.03637695 C-64.46787822 176.66658709 -64.47697796 175.29679528 -64.48583984 173.92700195 C-64.49421875 173.24508789 -64.50259766 172.56317383 -64.51123047 171.8605957 C-64.54625165 164.64623211 -64.54625165 164.64623211 -63.42333984 162.17700195 C-60.20491301 160.11673429 -57.61036722 159.92645388 -53.83544922 159.92163086 C-52.15219543 159.91119247 -52.15219543 159.91119247 -50.43493652 159.90054321 C-49.22454712 159.90154022 -48.01415771 159.90253723 -46.76708984 159.90356445 C-44.19156478 159.88326142 -41.61604398 159.86241039 -39.04052734 159.84106445 C-34.99007425 159.81643235 -30.93968381 159.80118146 -26.88916016 159.79614258 C-22.97315984 159.78655629 -19.05791817 159.75268816 -15.14208984 159.71606445 C-13.94789429 159.72110992 -12.75369873 159.7261554 -11.52331543 159.73135376 C0.65119854 159.59062214 10.65507372 156.67294018 19.57666016 148.17700195 C22.01998705 145.59341 24.34237415 142.94291871 26.57666016 140.17700195 C26.24666016 139.51700195 25.91666016 138.85700195 25.57666016 138.17700195 C24.65030762 138.16241943 23.72395508 138.14783691 22.76953125 138.1328125 C19.26150701 138.07097303 15.75416833 137.99668951 12.24658203 137.91455078 C10.74179666 137.88173365 9.23690091 137.8535746 7.73193359 137.83056641 C-2.3614933 137.67222493 -11.61177599 136.75267296 -21.42333984 134.17700195 C-22.20700928 133.97518311 -22.99067871 133.77336426 -23.7980957 133.56542969 C-25.73583984 132.92700195 -25.73583984 132.92700195 -28.42333984 131.17700195 C-29.54833984 127.67700195 -29.54833984 127.67700195 -29.42333984 124.17700195 C-28.42333984 122.23950195 -28.42333984 122.23950195 -26.42333984 121.17700195 C-22.02348153 120.62701966 -18.89941886 121.30154452 -14.71606445 122.67285156 C-7.11846204 124.78364996 0.44699384 124.61789826 8.26025391 124.6184082 C9.84921978 124.63020426 11.43817467 124.64357386 13.02711487 124.65843201 C17.17649524 124.69434671 21.32577805 124.71474521 25.47528076 124.72998047 C32.13978278 124.75497415 38.80406976 124.79449928 45.46837044 124.85188103 C47.7883274 124.86816654 50.10807835 124.87198175 52.42808533 124.87489319 C53.84797524 124.8846674 55.2678619 124.89493033 56.68774414 124.90576172 C57.92475571 124.91003677 59.16176727 124.91431183 60.43626404 124.91871643 C63.43511341 125.16536028 65.1468009 125.43413098 67.57666016 127.17700195 C70.14804693 134.89116228 68.65456164 144.22747851 67.57666016 152.17700195 C75.25246426 152.17700195 81.5940122 145.31056578 86.95166016 140.17700195 C91.22113321 135.7241773 94.47121576 130.92977527 96.77197266 125.20043945 C99.04192984 121.39752418 101.8367846 119.91502452 105.63916016 117.92700195 C119.70826928 110.01810076 129.00060074 98.66520304 133.57666016 83.17700195 C137.36338277 68.56025268 134.41049857 53.98714236 127.38916016 40.98950195 C118.85489824 27.11000169 106.16133034 19.02396513 90.68315029 14.64078999 C88.54277379 14.16954116 86.65156617 14.0431539 84.46266174 14.02983093 C83.24571373 14.01909798 83.24571373 14.01909798 82.00418091 14.00814819 C81.12261322 14.00545929 80.24104553 14.00277039 79.33276367 14 C78.39721146 13.9934288 77.46165924 13.9868576 76.49775696 13.98008728 C73.40035923 13.96037397 70.30301009 13.94869252 67.20556641 13.9387207 C65.61362111 13.93260741 65.61362111 13.93260741 63.9895153 13.92637062 C58.36597769 13.90551264 52.74246441 13.8912129 47.11889648 13.88183594 C41.33574243 13.87080614 35.5529768 13.83644495 29.76995945 13.79666424 C25.3026818 13.77039462 20.83549497 13.76213466 16.3681469 13.75855446 C14.23810151 13.75371079 12.10805958 13.74216089 9.97809029 13.72351646 C-12.22035586 13.54137091 -29.45361154 17.81014488 -44.43115234 35.5559082 Z " fill="#000000" transform="translate(503.42333984375,429.822998046875)"/>
<path d="M0 0 C7.34808231 4.91947883 13.00598398 12.02058555 14.77734375 20.80859375 C15.64773594 29.37508528 13.93635561 36.91791261 9 44 C2.71679587 51.03718863 -4.24778817 55.1970005 -13.73828125 56.0546875 C-23.01002729 55.8305002 -30.54675896 52.59380669 -37 46 C-42.89339705 39.05466326 -45.39206499 32.15379981 -44.9375 23.0625 C-43.83966081 14.93596624 -39.94989027 8.02161592 -33.96484375 2.46875 C-23.40051936 -5.42824 -11.58619984 -5.7255419 0 0 Z " fill="#314698" transform="translate(341,307)"/>
<path d="M0 0 C7.07087282 4.73388943 12.16332274 11.11031131 14.375 19.375 C16.04104202 28.68240782 13.96889406 36.19186235 8.71875 43.875 C3.19847576 50.99002013 -4.26541896 54.62888203 -13.10546875 55.90234375 C-21.54611094 56.18711575 -28.67510122 53.50322471 -35.02734375 48.015625 C-41.42914144 41.47438221 -44.82716578 34.74053454 -45.0625 25.5625 C-44.6066209 16.44491794 -40.63206216 8.65452813 -33.96484375 2.46875 C-23.40051936 -5.42824 -11.58619984 -5.7255419 0 0 Z " fill="#314698" transform="translate(712,307)"/>
<path d="M0 0 C7.8626474 5.57918393 13.39228162 12.03322036 15.5859375 21.5390625 C16.82851448 30.45800395 15.00791013 37.6226399 9.76953125 44.92578125 C4.56496781 51.02649469 -2.18121426 55.47046311 -10.19921875 56.3515625 C-18.38964858 56.68803421 -24.17713234 55.56539389 -31 51 C-31.58394531 50.61585938 -32.16789062 50.23171875 -32.76953125 49.8359375 C-38.86969413 45.2955631 -42.47047001 38.74481536 -43.77734375 31.34765625 C-44.65720289 22.07054498 -42.15313769 14.28489298 -36.39453125 6.95703125 C-27.07142699 -3.04877172 -12.41173623 -6.62803602 0 0 Z " fill="#314698" transform="translate(340,611)"/>
<path d="M0 0 C7.48506955 5.89250156 12.36269137 12.48772214 13.8125 22.0625 C14.43450258 30.97336306 11.76972456 38.49949557 6.04296875 45.30078125 C-1.45008661 52.46019407 -9.11873743 54.80932992 -19.28125 54.71484375 C-27.22061058 53.87005642 -33.71333847 50.1829129 -39.125 44.375 C-44.59251113 37.33774115 -46.65276638 29.79469803 -45.84765625 20.953125 C-44.05936017 11.07491806 -38.11774234 4.04741067 -30.0625 -1.6875 C-19.85461876 -7.03278282 -9.69164011 -5.34029149 0 0 Z " fill="#314698" transform="translate(713.0625,612.6875)"/>
<path d="M0 0 C2.41530412 1.06426193 4.78082591 2.1978934 7.14379883 3.3737793 C7.98410645 3.78684326 8.82441406 4.19990723 9.69018555 4.62548828 C11.34922444 5.44858854 13.00479725 6.27871917 14.65649414 7.11645508 C16.53441348 8.06689046 18.42733569 8.98760172 20.32348633 9.90112305 C26.30370964 13.02990655 26.30370964 13.02990655 27.84692383 16.2175293 C28.56123734 19.76264082 27.98867429 22.05902837 26.39379883 25.2487793 C23.7325864 27.37774924 22.38412257 27.75038369 19.02514648 27.6496582 C14.40583003 26.78082457 10.39417403 24.20359811 6.33129883 21.9362793 C4.49678586 20.93996006 2.6621536 19.94386043 0.82739258 18.94799805 C-0.02733643 18.47700684 -0.88206543 18.00601562 -1.76269531 17.52075195 C-3.69761171 16.47054731 -5.66397646 15.47850767 -7.63745117 14.50268555 C-10.49005373 13.05381621 -11.73521325 12.15204785 -13.10620117 9.2487793 C-13.04036855 5.49631979 -12.92218922 3.18565447 -10.41870117 0.3112793 C-6.80355906 -1.34973194 -3.77493285 -1.34640876 0 0 Z " fill="#000000" transform="translate(615.106201171875,277.751220703125)"/>
<path d="M0 0 C3.4544577 2.79691334 4.78191809 5.3840524 6.10546875 9.578125 C6.44900391 10.65707031 6.79253906 11.73601563 7.14648438 12.84765625 C7.49001953 13.97042969 7.83355469 15.09320312 8.1875 16.25 C8.72020508 17.91095703 8.72020508 17.91095703 9.26367188 19.60546875 C13.89237099 34.37866022 13.89237099 34.37866022 12 39.9375 C10 42 10 42 6.625 43.0625 C3 43 3 43 0.50390625 41.65625 C-3.16260256 37.76666188 -4.20518771 33.49897181 -5.6875 28.4375 C-5.98205078 27.49841797 -6.27660156 26.55933594 -6.58007812 25.59179688 C-11.88675752 8.21689379 -11.88675752 8.21689379 -9.75 2.875 C-6.72631223 -0.36466546 -4.33273174 -0.43327317 0 0 Z " fill="#000000" transform="translate(274,562)"/>
<path d="M0 0 C2.48405436 2.23564893 2.93906627 3.64201436 3.5 6.9375 C2.85375243 10.89576634 1.07691845 12.64028812 -2 15 C-5.07901975 16.74423193 -8.26756186 18.18946086 -11.5 19.625 C-13.17814217 20.38568926 -14.8552575 21.1486486 -16.53125 21.9140625 C-17.31387207 22.26936035 -18.09649414 22.6246582 -18.90283203 22.99072266 C-21.17035649 24.03714929 -21.17035649 24.03714929 -23.8359375 25.75 C-27.40722566 27.81283793 -29.9313653 27.39373884 -34 27 C-36.73883355 25.40970955 -36.94967699 24.16534703 -37.875 21.125 C-38.03354205 17.16144884 -37.46333616 16.11280331 -35 13 C-32.11683284 11.03468375 -29.05796002 9.49040919 -25.9375 7.9375 C-24.65129761 7.28334106 -24.65129761 7.28334106 -23.33911133 6.6159668 C-5.74506741 -2.24197752 -5.74506741 -2.24197752 0 0 Z " fill="#000000" transform="translate(418,278)"/>
<path d="M0 0 C1.23105469 0.43054688 2.46210938 0.86109375 3.73046875 1.3046875 C4.90738281 1.73523438 6.08429688 2.16578125 7.296875 2.609375 C8.36776367 2.99577148 9.43865234 3.38216797 10.54199219 3.78027344 C13.74183197 5.51693369 14.78419761 6.95035275 16.25 10.25 C16.18096951 13.70152438 15.89943318 15.50065402 13.625 18.125 C8.55673051 20.52575923 4.05313285 19.34130326 -1.03515625 17.60546875 C-2.96524056 16.89438506 -4.89097776 16.17140582 -6.8125 15.4375 C-7.77994141 15.08107422 -8.74738281 14.72464844 -9.74414062 14.35742188 C-22.57603254 9.57071339 -22.57603254 9.57071339 -25.75 6 C-27.16590124 2.10627159 -26.37312535 -0.00975462 -24.75 -3.75 C-18.67807147 -9.14726981 -6.43796232 -2.36217918 0 0 Z " fill="#000000" transform="translate(432.75,737.75)"/>
<path d="M0 0 C2.3125 1.125 2.3125 1.125 4 3 C5.08001155 7.34187621 4.95254848 10.32942567 3.671875 14.58984375 C3.36636719 15.62173828 3.06085937 16.65363281 2.74609375 17.71679688 C2.41738281 18.77962891 2.08867188 19.84246094 1.75 20.9375 C1.43675781 21.99646484 1.12351562 23.05542969 0.80078125 24.14648438 C-3.5216255 38.5216255 -3.5216255 38.5216255 -7 42 C-9.95982103 42.95994195 -11.65587688 43.0880315 -14.6875 42.3125 C-17 41 -17 41 -18.375 39.375 C-20.36556686 31.81084592 -16.38298635 22.85570316 -14.1875 15.6875 C-13.84396484 14.50865234 -13.50042969 13.32980469 -13.14648438 12.11523438 C-12.80294922 10.98794922 -12.45941406 9.86066406 -12.10546875 8.69921875 C-11.79762451 7.67658936 -11.48978027 6.65395996 -11.17260742 5.6003418 C-8.82253917 0.38889542 -5.50163474 -0.68770434 0 0 Z " fill="#000000" transform="translate(756,562)"/>
<path d="M0 0 C3.33343912 0.98768567 4.36872324 1.31525593 6.375 4 C6.74731445 6.33740234 6.74731445 6.33740234 6.73828125 9.0859375 C6.73916748 10.09374268 6.74005371 11.10154785 6.7409668 12.13989258 C6.72332275 13.20747803 6.70567871 14.27506348 6.6875 15.375 C6.6769458 16.45740967 6.6663916 17.53981934 6.65551758 18.6550293 C6.32526056 38.57953963 6.32526056 38.57953963 2.94921875 42.76953125 C0.73013545 44.50405045 -0.81444375 44.86616399 -3.625 45 C-6.3125 44 -6.3125 44 -8.625 42 C-11.08932782 35.17111453 -10.67969003 29.06660263 -10.19604492 21.92919922 C-10.06243182 19.87395119 -9.96696621 17.81911608 -9.87304688 15.76171875 C-9.74833008 13.80298828 -9.74833008 13.80298828 -9.62109375 11.8046875 C-9.55075928 10.61858887 -9.4804248 9.43249023 -9.40795898 8.21044922 C-8.10730997 2.87726104 -5.56474406 0 0 0 Z " fill="#000000" transform="translate(760.625,504)"/>
<path d="M0 0 C2.59393856 2.8371203 3.02858292 4.28542702 2.875 8.125 C1.94683667 11.1746795 1.38673889 12.01452068 -1 14 C-3.15722656 15.04321289 -3.15722656 15.04321289 -5.640625 15.97265625 C-6.99994141 16.48602539 -6.99994141 16.48602539 -8.38671875 17.00976562 C-9.33160156 17.35716797 -10.27648437 17.70457031 -11.25 18.0625 C-12.64412109 18.5894043 -12.64412109 18.5894043 -14.06640625 19.12695312 C-29.16977217 24.77736371 -29.16977217 24.77736371 -35 24 C-37.375 22.4375 -37.375 22.4375 -39 20 C-39.5243469 16.32957167 -39.77391769 14.08646138 -37.578125 11.00390625 C-33.82477773 8.08653178 -29.73842326 6.89329326 -25.25 5.4375 C-23.50494309 4.85365678 -21.76014795 4.26903051 -20.015625 3.68359375 C-18.74851685 3.2656958 -18.74851685 3.2656958 -17.45581055 2.83935547 C-15.14134871 2.04831066 -12.87286536 1.18177743 -10.59765625 0.28515625 C-6.45150807 -1.19593252 -4.19387004 -1.31572393 0 0 Z " fill="#000000" transform="translate(615,733)"/>
<path d="M0 0 C1.85362198 2.53348173 2.09231747 4.55110086 2.21679688 7.66308594 C1.19726562 10.24902344 1.19726562 10.24902344 -0.78320312 12.66308594 C-3.43531284 13.51802255 -5.62700122 14.03544492 -8.34570312 14.41308594 C-9.06588623 14.52885986 -9.78606934 14.64463379 -10.52807617 14.76391602 C-12.61035937 15.08967412 -14.69436194 15.38286276 -16.78320312 15.66308594 C-18.2140625 15.86224609 -18.2140625 15.86224609 -19.67382812 16.06542969 C-22.04570413 16.34469896 -24.3991268 16.52607006 -26.78320312 16.66308594 C-28.22373047 16.77716797 -28.22373047 16.77716797 -29.69335938 16.89355469 C-37.03886068 17.25163578 -37.03886068 17.25163578 -40.47070312 14.53808594 C-42.00072278 11.18661432 -42.40234692 9.30055575 -41.78320312 5.66308594 C-38.97651856 2.1764314 -36.97297447 1.1246458 -32.56445312 0.61621094 C-31.54867187 0.49375 -30.53289063 0.37128906 -29.48632812 0.24511719 C-28.42929687 0.13554688 -27.37226562 0.02597656 -26.28320312 -0.08691406 C-24.7440625 -0.27447266 -24.7440625 -0.27447266 -23.17382812 -0.46582031 C-3.60522839 -2.7029341 -3.60522839 -2.7029341 0 0 Z " fill="#000000" transform="translate(560.783203125,750.3369140625)"/>
<path d="M0 0 C1.05703125 0.10957031 2.1140625 0.21914063 3.203125 0.33203125 C4.72679687 0.51572266 4.72679687 0.51572266 6.28125 0.703125 C7.18939453 0.80786133 8.09753906 0.91259766 9.03320312 1.02050781 C12.15349159 1.94325345 13.49346928 3.21597925 15.5 5.75 C16.04407614 9.55853299 16.02035388 11.78362851 14.1875 15.1875 C7.18943165 19.25614439 -3.74037437 16.42072314 -11.4375 15.375 C-12.45134766 15.24867188 -13.46519531 15.12234375 -14.50976562 14.9921875 C-15.48494141 14.86328125 -16.46011719 14.734375 -17.46484375 14.6015625 C-18.77376587 14.42874756 -18.77376587 14.42874756 -20.10913086 14.25244141 C-22.5547816 13.73848764 -24.37284076 13.05440412 -26.5 11.75 C-28.05774936 8.63450128 -28.06480622 5.1455612 -27.5 1.75 C-22.47825329 -5.07248453 -7.37922518 -0.89922719 0 0 Z " fill="#000000" transform="translate(489.5,750.25)"/>
<path d="M0 0 C7.37555061 6.05208732 7.35904168 17.53436165 8.8125 26.4375 C8.96082275 27.30181641 9.10914551 28.16613281 9.26196289 29.05664062 C9.95394369 33.58211554 10.45613218 36.89588236 8 41 C5.8125 42.9375 5.8125 42.9375 3 44 C-0.6875 43.5 -0.6875 43.5 -4 42 C-6.97051115 36.20411668 -7.55435776 29.40615953 -8.6875 23.0625 C-8.92533203 21.79986328 -9.16316406 20.53722656 -9.40820312 19.23632812 C-9.62798828 18.01494141 -9.84777344 16.79355469 -10.07421875 15.53515625 C-10.27619873 14.425354 -10.47817871 13.31555176 -10.6862793 12.17211914 C-11.01501246 8.84820472 -10.79286149 6.23768798 -10 3 C-7.02991864 -0.3000904 -4.31091137 -0.62867458 0 0 Z " fill="#000000" transform="translate(756,447)"/>
<path d="M0 0 C1.98198314 3.13813998 2.17064058 4.72373465 1.5 8.375 C-2.8085384 14.47397547 -8.94523542 15.13267503 -15.9375 16.625 C-17.05705078 16.88023437 -18.17660156 17.13546875 -19.33007812 17.3984375 C-22.38203842 18.08671341 -25.4333088 18.75571706 -28.5 19.375 C-29.54293213 19.5925293 -30.58586426 19.81005859 -31.66040039 20.03417969 C-35.43592243 20.48733322 -37.32931794 19.36589339 -40.5 17.375 C-41.92041821 14.53416359 -41.81452272 12.52022722 -41.5 9.375 C-35.08286596 1.34978982 -9.1401528 -5.94109932 0 0 Z " fill="#000000" transform="translate(474.5,262.625)"/>
<path d="M0 0 C3.26986599 0.68532532 6.5109789 1.44916402 9.75585938 2.24414062 C10.86574219 2.49679687 11.975625 2.74945313 13.11914062 3.00976562 C23.5082992 5.5101648 23.5082992 5.5101648 27.00585938 9.49414062 C27.63796654 13.4272519 27.60606203 15.51881131 25.50585938 18.93164062 C20.19702664 22.24966108 13.98373664 20.3853372 8.20507812 19.10351562 C5.69871099 18.49375174 3.19483156 17.87368422 0.69335938 17.24414062 C-0.58087891 16.94378906 -1.85511719 16.6434375 -3.16796875 16.33398438 C-4.99424805 15.87958984 -4.99424805 15.87958984 -6.85742188 15.41601562 C-8.51704956 15.00754395 -8.51704956 15.00754395 -10.21020508 14.59082031 C-13.31846254 13.36638003 -14.37650522 12.3763964 -15.99414062 9.49414062 C-16.24917125 6.55574433 -15.65837532 4.43575141 -14.99414062 1.49414062 C-10.24674747 -1.67078815 -5.42479214 -0.91651739 0 0 Z " fill="#000000" transform="translate(562.994140625,261.505859375)"/>
<path d="M0 0 C3.96880274 3.82169377 4.58687755 6.87682132 4.93359375 12.27734375 C4.97944107 12.96631241 5.02528839 13.65528107 5.07252502 14.36512756 C5.16434212 15.81603896 5.24702127 17.26755448 5.32104492 18.71948242 C5.43707501 20.9294055 5.59043504 23.13449357 5.74804688 25.34179688 C5.83297879 26.75767935 5.91573349 28.17369445 5.99609375 29.58984375 C6.07013428 30.86722412 6.1441748 32.14460449 6.22045898 33.46069336 C5.97429156 37.41273001 5.17403425 39.70506155 3 43 C-0.46746597 44.00871737 -2.81485712 44.32030889 -6.3125 43.375 C-9.80420276 40.52990886 -10.09522886 36.80938179 -10.53125 32.5546875 C-11.0773242 26.74466901 -11.25582956 20.95827723 -11.3125 15.125 C-11.34150391 14.10664062 -11.37050781 13.08828125 -11.40039062 12.0390625 C-11.46329246 4.68438647 -11.46329246 4.68438647 -9.19921875 1.33984375 C-5.91986396 -0.65805802 -3.75483592 -0.60345577 0 0 Z " fill="#000000" transform="translate(268,505)"/>
<path d="M0 0 C2.16479492 1.24731445 2.16479492 1.24731445 4 3 C5.55984558 10.02978232 3.37878275 18.33374906 2.1875 25.3125 C2.02185547 26.37017578 1.85621094 27.42785156 1.68554688 28.51757812 C1.51474609 29.53916016 1.34394531 30.56074219 1.16796875 31.61328125 C0.94016724 32.98673706 0.94016724 32.98673706 0.70776367 34.38793945 C-0.17847098 37.65866197 -1.57671574 40.57671574 -4 43 C-11.2 43.46451613 -11.2 43.46451613 -13.9375 41.875 C-17.45625596 35.66543067 -15.37093805 28.67771814 -14.1875 22.0625 C-14.00896484 21.00353516 -13.83042969 19.94457031 -13.64648438 18.85351562 C-11.12155102 4.2417172 -11.12155102 4.2417172 -8.25 1.0625 C-5.26471987 -0.34721562 -3.26755284 -0.4084441 0 0 Z " fill="#000000" transform="translate(274,448)"/>
<path d="M0 0 C2.16393827 -0.00218237 4.3273631 -0.02033848 6.49121094 -0.03930664 C7.8740217 -0.04224172 9.25683488 -0.04422575 10.63964844 -0.04516602 C12.51982666 -0.05132935 12.51982666 -0.05132935 14.43798828 -0.05761719 C17.7314103 0.18008446 19.92586827 0.58595559 22.80371094 2.18530273 C24.30371094 5.49780273 24.30371094 5.49780273 24.80371094 9.18530273 C23.58887231 12.40105204 22.66971046 13.74539952 19.59863281 15.30541992 C16.32294863 16.33665383 13.58077124 16.44423326 10.14746094 16.45092773 C8.87773438 16.45350586 7.60800781 16.45608398 6.29980469 16.45874023 C4.98109375 16.45100586 3.66238281 16.44327148 2.30371094 16.43530273 C0.985 16.44303711 -0.33371094 16.45077148 -1.69238281 16.45874023 C-2.96210938 16.45616211 -4.23183594 16.45358398 -5.54003906 16.45092773 C-6.69697266 16.44867188 -7.85390625 16.44641602 -9.04589844 16.4440918 C-13.33044556 16.09213737 -16.14168947 15.23990233 -19.19628906 12.18530273 C-19.76462465 5.02427432 -19.76462465 5.02427432 -17.88378906 2.24780273 C-12.63119969 -1.05938317 -5.9834924 -0.00067717 0 0 Z " fill="#000000" transform="translate(509.1962890625,256.814697265625)"/>
</svg>
