<?xml version="1.0" encoding="UTF-8"?>
<svg
  version="1.1"
  xmlns="http://www.w3.org/2000/svg"
  width="3500"
  height="1700"
>
  <path
    d="M0 0 C3.93545059 0.56220723 4.55349011 1.36058806 7.0625 4.4375 C8.81165075 7.61346377 10.3156198 10.88656224 11.8125 14.1875 C12.22371094 15.07566406 12.63492188 15.96382813 13.05859375 16.87890625 C14.06780234 19.0616132 15.06876334 21.24771666 16.0625 23.4375 C19.02197096 19.84764846 21.64325985 16.14375156 24.1875 12.25 C27.84185943 6.65814057 27.84185943 6.65814057 30.0625 4.4375 C36.31570073 3.86902721 36.31570073 3.86902721 38.6574707 5.65161133 C40.33565524 7.78469905 41.16436027 9.77859746 42.10546875 12.32421875 C42.45673828 13.26201172 42.80800781 14.19980469 43.16992188 15.16601562 C43.52634766 16.14248047 43.88277344 17.11894531 44.25 18.125 C44.80204102 19.60709961 44.80204102 19.60709961 45.36523438 21.11914062 C46.27168904 23.55597329 47.17044452 25.99536731 48.0625 28.4375 C49.6477517 26.7100597 51.23072626 24.98062043 52.8125 23.25 C54.13507813 21.80560547 54.13507813 21.80560547 55.484375 20.33203125 C58.06578879 17.51117848 58.06578879 17.51117848 60.203125 14.609375 C62.0625 12.4375 62.0625 12.4375 65.0625 11.875 C68.81951726 12.57944074 69.7212768 13.43959225 72.0625 16.4375 C72.82712245 19.15076848 73.38463332 21.61400149 73.8125 24.375 C73.93753906 25.07818359 74.06257813 25.78136719 74.19140625 26.50585938 C74.81818695 30.18044731 75.20836775 33.71057908 75.0625 37.4375 C76.135 37.540625 77.2075 37.64375 78.3125 37.75 C82.115243 38.17628614 85.53527718 39.18768823 89.1875 40.3125 C92.22198823 41.17562627 92.22198823 41.17562627 95.0625 41.4375 C98.09764387 39.66123638 98.09764387 39.66123638 99.58984375 37.921875 C103.10964917 34.37406052 107.956422 32.62255288 112.86328125 32.19140625 C115.27759779 32.18799138 117.65553743 32.25660093 120.0625 32.4375 C120.48402344 31.51517578 120.48402344 31.51517578 120.9140625 30.57421875 C122.68678696 27.2759865 125.33110609 24.99401947 128.921875 23.83984375 C134.10175715 22.86625276 139.21604324 22.85821945 144.25 24.4375 C148.92363125 27.76097111 153.22600324 31.92800973 155.0625 37.4375 C155.81690556 44.40029228 154.89186459 49.54735286 151.0625 55.4375 C150.7325 55.7675 150.4025 56.0975 150.0625 56.4375 C156.41604365 56.56412639 162.76926289 56.65177701 169.1237793 56.7121582 C171.28601236 56.73732499 173.44816018 56.77146158 175.61010742 56.81469727 C178.71554572 56.87525296 181.81986097 56.90368787 184.92578125 56.92578125 C186.37903557 56.96449089 186.37903557 56.96449089 187.86164856 57.00398254 C190.36238205 57.00503107 192.61991615 56.97451882 195.0625 56.4375 C197.19332464 54.1370343 197.19332464 54.1370343 198.0625 51.4375 C200.67441533 49.30927269 202.8201561 49.32188079 206.0625 49.5625 C208.92198223 50.01959195 210.03980677 50.42077867 212.4375 52.1875 C214.0625 54.4375 214.0625 54.4375 214.8125 56.75 C216.50159573 60.38155583 219.08859799 62.22481697 222.1875 64.69140625 C225.23387194 67.52834012 225.96843042 69.52961916 226.3984375 73.6796875 C226.5293008 85.84997485 226.5293008 85.84997485 222.0625 90.4375 C216.48985771 95.85953034 210.20944899 96.67672374 202.65844727 96.75634766 C201.955168 96.76639328 201.25188873 96.7764389 200.52729797 96.78678894 C198.22784157 96.81741174 195.92850042 96.83459709 193.62890625 96.8515625 C192.02464317 96.87029104 190.42038977 96.88986569 188.81614685 96.9102478 C184.61261724 96.96139711 180.40905576 97.00111441 176.2053833 97.03839111 C171.90832749 97.07853911 167.61140232 97.129582 163.31445312 97.1796875 C154.89722493 97.2762429 146.47993164 97.36071231 138.0625 97.4375 C140.03732535 99.41232535 143.68254008 99.19322429 146.390625 99.56640625 C147.97301737 99.79394709 149.5552874 100.0223399 151.13745117 100.25146484 C151.9797226 100.37269714 152.82199402 100.49392944 153.68978882 100.61883545 C202.54375634 107.7188931 250.57709968 119.54987571 295.0625 141.4375 C296.03558105 141.91445313 297.00866211 142.39140625 298.01123047 142.8828125 C336.84277219 162.08994968 374.75768888 189.60663592 401.0625 224.4375 C402.06992664 225.7187769 403.0792006 226.99860244 404.08984375 228.27734375 C463.70231544 304.22778759 481.01507065 403.95530299 470.3515625 498.33911133 C462.0589022 567.01997022 433.77493286 630.25296197 386.421875 680.890625 C384.50003368 682.96519543 382.67093582 685.06784142 380.875 687.25 C378.21225642 690.41009511 375.20002953 693.02473908 372.0546875 695.6953125 C370.18744265 697.32823643 368.46987604 699.02679139 366.75 700.8125 C362.19364131 705.43057009 357.14250005 709.41445705 352.0625 713.4375 C351.06089844 714.23285156 350.05929687 715.02820312 349.02734375 715.84765625 C290.72042736 761.6713221 220.32826393 787.3685415 147.5 798.25 C145.56133057 798.54233521 145.56133057 798.54233521 143.58349609 798.84057617 C36.47828425 814.05415609 -72.75719025 802.4375 -180.9375 802.4375 C-180.9375 593.5475 -180.9375 384.6575 -180.9375 169.4375 C-182.5875 169.1075 -184.2375 168.7775 -185.9375 168.4375 C-197.60046313 162.4999915 -205.87466967 153.91621231 -211.9375 142.4375 C-212.3396875 141.68855469 -212.741875 140.93960938 -213.15625 140.16796875 C-217.15181047 132.47651484 -217.21643345 125.7476112 -217.28759766 117.23291016 C-217.30399572 115.80370619 -217.33106674 114.37457852 -217.36962891 112.94580078 C-217.85924326 94.65125389 -211.6966943 80.08132213 -199.17504883 66.62988281 C-195.12833418 62.44743646 -191.02325544 59.2313196 -185.9375 56.4375 C-184.98875 55.90382813 -184.04 55.37015625 -183.0625 54.8203125 C-172.08265753 48.96626383 -161.08436926 48.06502692 -148.87890625 46.86218262 C-136.3537038 45.61339011 -124.28515431 44.14543646 -112.21875 40.390625 C-108.9375 39.4375 -108.9375 39.4375 -104.9375 39.4375 C-104.68355469 38.27992188 -104.42960937 37.12234375 -104.16796875 35.9296875 C-103.82072046 34.3905329 -103.47304133 32.85147547 -103.125 31.3125 C-102.95935547 30.55195313 -102.79371094 29.79140625 -102.62304688 29.0078125 C-101.5866245 24.47102023 -100.39578466 20.45166102 -97.9375 16.4375 C-95.0625 15.25 -95.0625 15.25 -91.9375 15.4375 C-88.27684539 18.72193725 -85.20934723 22.42909224 -82.125 26.25 C-80.93970703 27.71373047 -80.93970703 27.71373047 -79.73046875 29.20703125 C-78.84294922 30.31111328 -78.84294922 30.31111328 -77.9375 31.4375 C-77.65084473 30.55227661 -77.65084473 30.55227661 -77.35839844 29.64916992 C-76.4820148 26.96966123 -75.58504646 24.29749038 -74.6875 21.625 C-74.38714844 20.69623047 -74.08679688 19.76746094 -73.77734375 18.81054688 C-73.47441406 17.91787109 -73.17148437 17.02519531 -72.859375 16.10546875 C-72.45090332 14.87219849 -72.45090332 14.87219849 -72.03417969 13.61401367 C-70.72410319 11.01398428 -69.42886909 9.91111196 -66.9375 8.4375 C-63.81831891 8.51547953 -62.4004686 9.02209002 -60.07421875 11.109375 C-57.59006111 13.8160623 -55.42926681 16.66768091 -53.25 19.625 C-50.7570344 23.17054596 -50.7570344 23.17054596 -47.9375 26.4375 C-47.71610352 25.85258789 -47.49470703 25.26767578 -47.26660156 24.66503906 C-46.25126664 22.00150176 -45.21959154 19.34458672 -44.1875 16.6875 C-43.83945312 15.76710938 -43.49140625 14.84671875 -43.1328125 13.8984375 C-39.76304901 5.2868197 -39.76304901 5.2868197 -35.9375 2.4375 C-33.5625 1.75 -33.5625 1.75 -30.9375 2.4375 C-24.72009052 8.37229995 -20.46480697 16.18374817 -15.9375 23.4375 C-15.65028076 22.84735107 -15.36306152 22.25720215 -15.06713867 21.64916992 C-13.75942703 18.971299 -12.44233634 16.29814844 -11.125 13.625 C-10.67318359 12.69623047 -10.22136719 11.76746094 -9.75585938 10.81054688 C-9.09360352 9.4715332 -9.09360352 9.4715332 -8.41796875 8.10546875 C-7.81311646 6.87219849 -7.81311646 6.87219849 -7.19604492 5.61401367 C-5.19274272 2.149525 -4.03330568 0.6007051 0 0 Z M-23.9375 239.4375 C-23.9375 377.7075 -23.9375 515.9775 -23.9375 658.4375 C39.27074515 659.49396178 39.27074515 659.49396178 102.6875 656.1875 C104.57577515 655.99571167 104.57577515 655.99571167 106.50219727 655.80004883 C167.10061445 649.28266809 227.39560143 630.09418793 267.34765625 581.53125 C275.00378492 571.8420694 281.24415363 561.3073444 287.0625 550.4375 C287.43358887 549.75139648 287.80467773 549.06529297 288.18701172 548.35839844 C305.09708577 516.56527628 309.50845288 479.91608815 309.4375 444.4375 C309.43695618 443.40868713 309.43641235 442.37987427 309.43585205 441.31988525 C309.30999302 389.39649159 292.98834253 344.89998598 258.0625 306.4375 C257.01642578 305.28121094 257.01642578 305.28121094 255.94921875 304.1015625 C242.25035485 289.72802222 224.5165868 278.62491495 207.0625 269.4375 C206.03189453 268.88860107 206.03189453 268.88860107 204.98046875 268.32861328 C134.8859653 231.50949215 51.88846129 239.4375 -23.9375 239.4375 Z "
    fill="#F76D37"
    transform="translate(405.9375,448.5625)"
  />
  <path
    d="M0 0 C1.22102417 0.00432037 2.44204834 0.00864075 3.70007324 0.01309204 C21.6881947 0.08757975 39.33038943 0.55802831 57.125 3.375 C58.23907227 3.54128906 59.35314453 3.70757813 60.50097656 3.87890625 C117.35942026 12.50592496 167.23374959 33.48493262 212.125 69.375 C213.08277344 70.14070312 214.04054688 70.90640625 215.02734375 71.6953125 C215.71957031 72.24960937 216.41179687 72.80390625 217.125 73.375 C215.70761511 76.62707092 213.99973588 78.68861067 211.4375 81.125 C208.84578619 83.65203646 206.35413949 86.18800884 204 88.9375 C200.5248607 92.97854501 196.8950053 96.86295673 193.25 100.75 C188.55316338 105.76135418 183.90272444 110.80564087 179.32421875 115.92578125 C175.42902917 120.26376325 171.4765627 124.54952574 167.53222656 128.84277344 C165.22791453 131.35177106 162.92655179 133.86347057 160.625 136.375 C157.85306824 139.39982361 155.08045292 142.42400597 152.3046875 145.4453125 C148.07733249 150.04849765 143.85973917 154.65913776 139.6875 159.3125 C136.23921977 163.15416693 132.75427152 166.9595286 129.25 170.75 C128.74815186 171.29309814 128.24630371 171.83619629 127.72924805 172.39575195 C125.67013956 174.62351562 123.61060816 176.85088017 121.54882812 179.07617188 C120.03062526 180.71567934 118.51508193 182.35760875 117 184 C116.11054687 184.96164062 115.22109375 185.92328125 114.3046875 186.9140625 C112.03048919 189.36895984 112.03048919 189.36895984 110.125 192.375 C109.465 192.375 108.805 192.375 108.125 192.375 C106.6796875 190.90625 106.6796875 190.90625 105 188.875 C82.06172265 162.19169777 47.29197777 150.63098315 13.125 146.375 C-22.75485749 144.59439238 -60.70201522 148.81824909 -88.875 173.375 C-99.47485425 183.57960544 -106.75747823 196.47704516 -107.11328125 211.40234375 C-107.40902998 227.11832442 -106.3710229 240.21424982 -96.875 253.375 C-96.38515625 254.05949219 -95.8953125 254.74398437 -95.390625 255.44921875 C-65.57138557 293.01850803 5.13683776 303.66757384 48.34277344 316.64160156 C88.35345962 328.67322858 129.6838818 343.94369298 160.671875 373.07421875 C162.81374432 375.08307389 165.00302312 376.98630093 167.25 378.875 C198.16302163 405.96308386 213.77454856 446.20013249 217.125 486.375 C217.27790986 490.04446587 217.31211907 493.71043759 217.328125 497.3828125 C217.33382507 498.42533173 217.33952515 499.46785095 217.34539795 500.54196167 C217.35480413 502.74557497 217.3613644 504.94920206 217.36523438 507.15283203 C217.37483078 510.44200003 217.40585104 513.73051236 217.4375 517.01953125 C217.53168031 535.64421205 215.97310718 553.96279317 211.375 572.0625 C211.11895996 573.0930249 210.86291992 574.1235498 210.59912109 575.18530273 C206.52404095 591.11348672 200.94736226 605.92672233 193.125 620.375 C192.60317139 621.3642749 192.60317139 621.3642749 192.07080078 622.37353516 C186.60875231 632.72017984 180.35721928 642.18128419 173.125 651.375 C172.70025391 651.91688965 172.27550781 652.4587793 171.83789062 653.01708984 C128.91688103 707.13416124 62.6298339 733.94498306 -4.51220703 742.23779297 C-20.59574422 744.06599716 -36.49396096 744.84947719 -52.67724609 744.76611328 C-56.37504926 744.74999979 -60.07176011 744.76610816 -63.76953125 744.78515625 C-114.54100079 744.83061305 -167.13217339 734.9726628 -212.875 712.375 C-213.78701172 711.92785645 -214.69902344 711.48071289 -215.63867188 711.02001953 C-244.46112837 696.77022052 -272.06237912 678.18762088 -294.875 655.375 C-290.17893992 649.90177505 -285.3240959 644.5870798 -280.4230957 639.29833984 C-276.62795049 635.19998492 -272.88042038 631.06187952 -269.15234375 626.90234375 C-266.57690225 624.04417797 -263.97814236 621.20789739 -261.375 618.375 C-258.02206883 614.72572829 -254.68501643 611.06330402 -251.375 607.375 C-247.59962783 603.16815673 -243.78519552 598.99825147 -239.9609375 594.8359375 C-237.08077393 591.69832914 -234.21968386 588.54479059 -231.375 585.375 C-227.59962783 581.16815673 -223.78519552 576.99825147 -219.9609375 572.8359375 C-217.08077393 569.69832914 -214.21968386 566.54479059 -211.375 563.375 C-207.60552132 559.17472375 -203.79768398 555.01072769 -199.97851562 550.85571289 C-196.20303263 546.74408411 -192.4687355 542.59666346 -188.75 538.43359375 C-187.16739478 536.6960251 -185.55472456 535.01798058 -183.875 533.375 C-179.54828864 534.94279659 -177.23403964 538.29314708 -174.4375 541.75 C-147.04418416 574.46710514 -106.85318614 593.16227812 -64.875 598.375 C-47.00692318 599.15187291 -28.32440849 599.72062305 -10.875 595.375 C-10.08206543 595.18164062 -9.28913086 594.98828125 -8.47216797 594.7890625 C14.24623774 589.05526429 37.48266179 579.09632134 50.80078125 558.82421875 C60.05662216 542.95378186 62.13963777 524.52050429 57.5625 506.6875 C51.18496374 488.26350635 38.26677493 477.12876978 22.125 467.375 C21.45114258 466.9639502 20.77728516 466.55290039 20.08300781 466.12939453 C11.36459691 460.87578269 2.39839311 456.46784447 -7.00390625 452.57421875 C-8.56806274 451.92558113 -8.56806274 451.92558113 -10.16381836 451.26383972 C-21.08689217 446.79317667 -32.18617199 442.93178845 -43.375 439.1875 C-45.53194948 438.45839524 -47.68884941 437.72914388 -49.84570312 436.99975586 C-64.95211381 431.91467954 -80.14361714 427.13239704 -95.375 422.4375 C-120.8661337 414.5682409 -145.00876241 405.39227337 -168.875 393.375 C-169.69355469 392.96894531 -170.51210937 392.56289063 -171.35546875 392.14453125 C-211.9487618 371.95126323 -247.71140574 337.63545108 -262.625 294.1875 C-279.36016704 243.36062054 -274.83149428 181.11992463 -251.0625 133.25 C-249.70393122 130.60405381 -248.30013486 127.985617 -246.875 125.375 C-246.50536133 124.69228027 -246.13572266 124.00956055 -245.75488281 123.30615234 C-237.24084549 107.75235428 -226.71694231 93.67232491 -214.38085938 80.93212891 C-213.31858117 79.83368364 -212.26321763 78.72853079 -211.21289062 77.61865234 C-201.86383792 67.75337836 -191.97308057 59.21904539 -180.875 51.375 C-180.22402344 50.91174316 -179.57304688 50.44848633 -178.90234375 49.97119141 C-146.43369551 27.16934526 -108.97601685 13.7479458 -70.3125 6.0625 C-69.16910156 5.83216064 -68.02570313 5.60182129 -66.84765625 5.36450195 C-44.684738 1.19825249 -22.5147021 -0.15222022 0 0 Z "
    fill="#F86D37"
    transform="translate(1224.875,524.625)"
  />
  <path
    d="M0 0 C1.31486444 -0.00769232 1.31486444 -0.00769232 2.6562918 -0.01554003 C4.1135764 -0.00872221 4.1135764 -0.00872221 5.60030109 -0.00176666 C6.63150164 -0.00481976 7.66270218 -0.00787285 8.72515122 -0.01101846 C12.22807167 -0.01889702 15.73082339 -0.01235506 19.23374505 -0.0060359 C21.76231085 -0.00872567 24.29087584 -0.01229143 26.8194393 -0.01666037 C32.3589697 -0.02418494 37.89844818 -0.02540885 43.43798118 -0.02124848 C51.73089887 -0.0150543 60.02378191 -0.02030868 68.31669707 -0.0278459 C82.44740653 -0.04034356 96.57810375 -0.04325368 110.70881791 -0.04101095 C125.03716943 -0.03876546 139.36551055 -0.04081827 153.69386048 -0.04815588 C154.59744827 -0.04861519 155.50103605 -0.04907449 156.43200529 -0.04954772 C160.11192793 -0.0514309 163.79185056 -0.05334227 167.47177317 -0.0552901 C205.9029955 -0.07560256 244.334212 -0.08170294 282.76543909 -0.08287432 C286.90491138 -0.08300381 291.04438367 -0.08313969 295.18385596 -0.08328114 C296.2110151 -0.08331515 297.23817425 -0.08334915 298.29645942 -0.08338419 C321.03610295 -0.08420035 343.77574535 -0.08857772 366.51538828 -0.09359283 C375.87233038 -0.09564947 385.2292725 -0.0976295 394.58621461 -0.09962533 C395.62000743 -0.09984651 396.65380025 -0.10006768 397.71892012 -0.10029557 C456.97838322 -0.11294772 516.23784559 -0.12119336 575.49731011 -0.12027846 C577.71606364 -0.1202469 579.93481718 -0.12021543 582.15357071 -0.12018404 C592.17156794 -0.12003727 602.18956516 -0.11986093 612.20756238 -0.11967627 C616.67505114 -0.11959402 621.14253991 -0.11951373 625.61002867 -0.11943364 C627.84608993 -0.11939285 630.08215118 -0.11935081 632.31821244 -0.11930752 C703.03990815 -0.11794674 773.76158384 -0.13258505 844.48327393 -0.16038809 C862.30303642 -0.16738978 880.12279893 -0.17432854 897.94256157 -0.18091688 C899.03970419 -0.18132263 900.1368468 -0.18172838 901.26723617 -0.18214642 C935.06571507 -0.19457047 968.86419233 -0.20210639 1002.66267342 -0.20463286 C1004.25367136 -0.20475271 1004.25367136 -0.20475271 1005.87681067 -0.20487498 C1029.15756493 -0.20658129 1052.43831909 -0.207104 1075.71907341 -0.20653423 C1084.04872846 -0.20634125 1092.37838351 -0.20623717 1100.70803856 -0.20617677 C1102.78035206 -0.20616094 1104.85266556 -0.20614053 1106.92497906 -0.20611552 C1139.98641136 -0.20576244 1173.04782655 -0.21717646 1206.10925394 -0.23442316 C1239.39587636 -0.2516991 1272.68247507 -0.25612614 1305.96910009 -0.24290051 C1310.56309875 -0.24107577 1315.15709745 -0.23938925 1319.7510962 -0.23778448 C1321.10199214 -0.23730422 1321.10199214 -0.23730422 1322.48017892 -0.23681426 C1336.77260038 -0.23209793 1351.06498098 -0.2408471 1365.35739476 -0.25512686 C1379.3922086 -0.26886999 1393.42696174 -0.26846533 1407.46177419 -0.25274258 C1415.70233524 -0.24394064 1423.94271815 -0.24621537 1432.18326468 -0.26447615 C1438.28265421 -0.27678432 1444.38182487 -0.26848838 1450.48121196 -0.25180955 C1452.94705659 -0.24833954 1455.41292173 -0.25171151 1457.87874559 -0.26241197 C1461.20508462 -0.27589072 1464.53045932 -0.26510754 1467.85675938 -0.24786232 C1468.82350096 -0.25766156 1469.79024254 -0.26746079 1470.78627932 -0.27755698 C1477.21653631 -0.20736127 1477.21653631 -0.20736127 1480.4161994 2.09492646 C1482.55737223 5.3063678 1482.97996119 7.87604287 1482.99432129 11.64048471 C1483.00288651 12.98630373 1483.00288651 12.98630373 1483.01162476 14.35931101 C1483.01274262 15.34119898 1483.01386048 16.32308695 1483.01501221 17.3347291 C1483.01997712 18.37076776 1483.02494202 19.40680643 1483.03005738 20.47424021 C1483.04468408 23.90772368 1483.05148154 27.34116097 1483.0570044 30.7746705 C1483.06275501 33.15737112 1483.06851275 35.54007173 1483.07427735 37.92277231 C1483.08478849 42.9212588 1483.09063056 47.9197292 1483.09411377 52.91822519 C1483.09960163 59.32651296 1483.1236356 65.73458859 1483.15208573 72.14280977 C1483.17069804 77.06527541 1483.17591694 81.98768977 1483.17744965 86.91018762 C1483.1804794 89.27290848 1483.18851869 91.63562837 1483.20163483 93.99831476 C1483.2186671 97.30202401 1483.21682186 100.60521265 1483.21032471 103.90894785 C1483.21953949 104.88678736 1483.22875428 105.86462686 1483.2382483 106.87209787 C1483.19964949 113.12960627 1482.40268929 116.70242311 1477.8538794 121.251233 C1476.00583792 121.50173909 1476.00583792 121.50173909 1473.7077588 121.50246601 C1472.8311825 121.50759422 1471.95460621 121.51272243 1471.051467 121.51800604 C1469.5941824 121.51118822 1469.5941824 121.51118822 1468.1074577 121.50423267 C1466.56065689 121.50881231 1466.56065689 121.50881231 1464.98260758 121.51348447 C1461.47968713 121.52136303 1457.97693541 121.51482107 1454.47401375 121.50850191 C1451.94544795 121.51119168 1449.41688296 121.51475744 1446.8883195 121.51912638 C1441.3487891 121.52665095 1435.80931061 121.52787486 1430.26977762 121.52371449 C1421.97685993 121.51752031 1413.68397689 121.52277469 1405.39106173 121.53031191 C1391.26035227 121.54280957 1377.12965505 121.54571969 1362.99894089 121.54347696 C1348.67058937 121.54123147 1334.34224825 121.54328428 1320.01389832 121.55062189 C1319.11031053 121.5510812 1318.20672275 121.5515405 1317.27575351 121.55201373 C1313.59583087 121.55389691 1309.91590824 121.55580828 1306.23598563 121.55775611 C1267.8047633 121.57806857 1229.37354679 121.58416894 1190.94231971 121.58534033 C1186.80284742 121.58546982 1182.66337513 121.5856057 1178.52390284 121.58574715 C1176.98316413 121.58579816 1176.98316413 121.58579816 1175.41129938 121.5858502 C1152.67165585 121.58666636 1129.93201345 121.59104373 1107.19237051 121.59605883 C1097.83542842 121.59811548 1088.4784863 121.60009551 1079.12154419 121.60209133 C1078.08775137 121.60231251 1077.05395855 121.60253369 1075.98883867 121.60276157 C1016.72937558 121.61541373 957.46991321 121.62365937 898.21044869 121.62274446 C895.99169516 121.62271291 893.77294162 121.62268143 891.55418809 121.62265005 C881.53619086 121.62250327 871.51819364 121.62232693 861.50019642 121.62214228 C857.03270766 121.62206003 852.56521889 121.62197974 848.09773013 121.62189965 C845.86166887 121.62185886 843.62560761 121.62181682 841.38954636 121.62177353 C770.66785065 121.62041275 699.94617496 121.63505106 629.22448487 121.6628541 C611.40472238 121.66985579 593.58495987 121.67679455 575.76519722 121.68338289 C574.66805461 121.68378864 573.57091199 121.68419439 572.44052263 121.68461243 C538.64204373 121.69703648 504.84356647 121.7045724 471.04508538 121.70709886 C469.45408744 121.70721872 469.45408744 121.70721872 467.83094813 121.70734099 C444.55019386 121.7090473 421.26943971 121.70957001 397.98868539 121.70900024 C389.65903034 121.70880726 381.32937529 121.70870318 372.99972024 121.70864278 C370.92740674 121.70862695 368.85509324 121.70860654 366.78277974 121.70858153 C333.72134744 121.70822845 300.65993225 121.71964246 267.59850486 121.73688916 C234.31188243 121.75416511 201.02528373 121.75859215 167.73865871 121.74536652 C163.14466005 121.74354178 158.55066135 121.74185526 153.9566626 121.74025049 C153.0560653 121.73993032 152.15546801 121.73961014 151.22757988 121.73928026 C136.93515842 121.73456394 122.64277782 121.74331311 108.35036404 121.75759286 C94.3155502 121.771336 80.28079706 121.77093134 66.24598461 121.75520859 C58.00542356 121.74640665 49.76504065 121.74868138 41.52449412 121.76694216 C35.42510459 121.77925033 29.32593393 121.77095439 23.22654684 121.75427556 C20.76070221 121.75080555 18.29483707 121.75417752 15.82901321 121.76487797 C12.50267418 121.77835672 9.17729948 121.76757355 5.85099942 121.75032832 C4.88425784 121.76012756 3.91751626 121.7699268 2.92147948 121.78002299 C-3.50877752 121.70982728 -3.50877752 121.70982728 -6.7084406 119.40753955 C-8.84961343 116.19609821 -9.27220239 113.62642314 -9.28656249 109.8619813 C-9.29227264 108.96476862 -9.29798278 108.06755594 -9.30386596 107.143155 C-9.30498382 106.16126703 -9.30610168 105.17937906 -9.30725341 104.16773691 C-9.31221832 103.13169824 -9.31718322 102.09565958 -9.32229858 101.0282258 C-9.33692528 97.59474233 -9.34372274 94.16130504 -9.3492456 90.7277955 C-9.35499621 88.34509488 -9.36075395 85.96239428 -9.36651855 83.5796937 C-9.37702969 78.58120721 -9.38287176 73.58273681 -9.38635498 68.58424082 C-9.39184283 62.17595305 -9.4158768 55.76787742 -9.44432693 49.35965624 C-9.46293925 44.4371906 -9.46815814 39.51477624 -9.46969085 34.59227838 C-9.4727206 32.22955753 -9.48075989 29.86683764 -9.49387603 27.50415125 C-9.51090831 24.200442 -9.50906306 20.89725336 -9.50256591 17.59351816 C-9.5117807 16.61567865 -9.52099548 15.63783914 -9.5304895 14.63036814 C-9.48798431 7.73957042 -8.32243612 0.00263252 0 0 Z "
    fill="#110A6B"
    transform="translate(231.14612060040236,1292.7487669959664)"
  />
  <path
    d="M0 0 C51.48 0 102.96 0 156 0 C156 233.64 156 467.28 156 708 C104.52 708 53.04 708 0 708 C0 474.36 0 240.72 0 0 Z "
    fill="#F86D37"
    transform="translate(1556,543)"
  />
  <path
    d="M0 0 C3.93545059 0.56220723 4.55349011 1.36058806 7.0625 4.4375 C8.81165075 7.61346377 10.3156198 10.88656224 11.8125 14.1875 C12.22371094 15.07566406 12.63492188 15.96382813 13.05859375 16.87890625 C14.06780234 19.0616132 15.06876334 21.24771666 16.0625 23.4375 C19.02197096 19.84764846 21.64325985 16.14375156 24.1875 12.25 C27.84185943 6.65814057 27.84185943 6.65814057 30.0625 4.4375 C36.31570073 3.86902721 36.31570073 3.86902721 38.6574707 5.65161133 C40.33565524 7.78469905 41.16436027 9.77859746 42.10546875 12.32421875 C42.45673828 13.26201172 42.80800781 14.19980469 43.16992188 15.16601562 C43.52634766 16.14248047 43.88277344 17.11894531 44.25 18.125 C44.80204102 19.60709961 44.80204102 19.60709961 45.36523438 21.11914062 C46.27168904 23.55597329 47.17044452 25.99536731 48.0625 28.4375 C49.6477517 26.7100597 51.23072626 24.98062043 52.8125 23.25 C54.13507813 21.80560547 54.13507813 21.80560547 55.484375 20.33203125 C58.06578879 17.51117848 58.06578879 17.51117848 60.203125 14.609375 C62.0625 12.4375 62.0625 12.4375 65.0625 11.875 C68.81951726 12.57944074 69.7212768 13.43959225 72.0625 16.4375 C72.82712245 19.15076848 73.38463332 21.61400149 73.8125 24.375 C73.93753906 25.07818359 74.06257813 25.78136719 74.19140625 26.50585938 C74.81818695 30.18044731 75.20836775 33.71057908 75.0625 37.4375 C76.135 37.540625 77.2075 37.64375 78.3125 37.75 C82.115243 38.17628614 85.53527718 39.18768823 89.1875 40.3125 C92.22198823 41.17562627 92.22198823 41.17562627 95.0625 41.4375 C98.09764387 39.66123638 98.09764387 39.66123638 99.58984375 37.921875 C103.10964917 34.37406052 107.956422 32.62255288 112.86328125 32.19140625 C115.27759779 32.18799138 117.65553743 32.25660093 120.0625 32.4375 C120.48402344 31.51517578 120.48402344 31.51517578 120.9140625 30.57421875 C122.68678696 27.2759865 125.33110609 24.99401947 128.921875 23.83984375 C134.10175715 22.86625276 139.21604324 22.85821945 144.25 24.4375 C148.92363125 27.76097111 153.22600324 31.92800973 155.0625 37.4375 C155.81690556 44.40029228 154.89186459 49.54735286 151.0625 55.4375 C150.7325 55.7675 150.4025 56.0975 150.0625 56.4375 C156.41604365 56.56412639 162.76926289 56.65177701 169.1237793 56.7121582 C171.28601236 56.73732499 173.44816018 56.77146158 175.61010742 56.81469727 C178.71554572 56.87525296 181.81986097 56.90368787 184.92578125 56.92578125 C186.37903557 56.96449089 186.37903557 56.96449089 187.86164856 57.00398254 C190.36238205 57.00503107 192.61991615 56.97451882 195.0625 56.4375 C197.19332464 54.1370343 197.19332464 54.1370343 198.0625 51.4375 C200.67441533 49.30927269 202.8201561 49.32188079 206.0625 49.5625 C208.92198223 50.01959195 210.03980677 50.42077867 212.4375 52.1875 C214.0625 54.4375 214.0625 54.4375 214.8125 56.75 C216.50159573 60.38155583 219.08859799 62.22481697 222.1875 64.69140625 C225.23387194 67.52834012 225.96843042 69.52961916 226.3984375 73.6796875 C226.5293008 85.84997485 226.5293008 85.84997485 222.0625 90.4375 C216.48985771 95.85953034 210.20944899 96.67672374 202.65844727 96.75634766 C201.955168 96.76639328 201.25188873 96.7764389 200.52729797 96.78678894 C198.22784157 96.81741174 195.92850042 96.83459709 193.62890625 96.8515625 C192.02464317 96.87029104 190.42038977 96.88986569 188.81614685 96.9102478 C184.61261724 96.96139711 180.40905576 97.00111441 176.2053833 97.03839111 C171.90832749 97.07853911 167.61140232 97.129582 163.31445312 97.1796875 C154.89722493 97.2762429 146.47993164 97.36071231 138.0625 97.4375 C138.79593628 99.08117554 138.79593628 99.08117554 139.54418945 100.75805664 C140.97414392 104.22337965 141.40084006 106.20455855 141.25 109.875 C141.22292969 110.73996094 141.19585938 111.60492187 141.16796875 112.49609375 C141.13316406 113.13675781 141.09835937 113.77742187 141.0625 114.4375 C138.02176471 115.95786765 134.85930537 115.5848129 131.5234375 115.58276367 C130.74607239 115.58612228 129.96870728 115.5894809 129.16778564 115.59294128 C126.59100764 115.6024621 124.01429451 115.60439484 121.4375 115.60546875 C119.65152967 115.60868011 117.86555961 115.61204408 116.07958984 115.61555481 C112.33365265 115.6215486 108.58773853 115.62339441 104.84179688 115.62280273 C100.03288807 115.622701 95.22412654 115.63636398 90.41525269 115.65357494 C86.72647415 115.66467125 83.03773151 115.66672269 79.34893799 115.66619301 C77.57545462 115.6673763 75.80197043 115.67181747 74.02850342 115.67952538 C71.55275016 115.68927936 69.07732053 115.68646579 66.6015625 115.68041992 C65.86383606 115.68603943 65.12610962 115.69165894 64.36602783 115.69744873 C59.29081695 115.66581695 59.29081695 115.66581695 57.0625 113.4375 C57.0625 107.4975 57.0625 101.5575 57.0625 95.4375 C18.9475 95.9325 18.9475 95.9325 -19.9375 96.4375 C-17.9575 100.8925 -17.9575 100.8925 -15.9375 105.4375 C-15.50225159 108.61046094 -15.73275654 111.21279051 -15.9375 114.4375 C-18.98296625 115.96023313 -22.15183401 115.57604124 -25.49243164 115.56689453 C-26.66088875 115.56952301 -26.66088875 115.56952301 -27.85295105 115.57220459 C-30.43454193 115.5766154 -33.01606464 115.5736881 -35.59765625 115.5703125 C-37.38602207 115.57098569 -39.17438779 115.57195585 -40.9627533 115.57321167 C-44.7128893 115.57468754 -48.46300152 115.57253737 -52.21313477 115.56787109 C-57.03106864 115.56216976 -61.84894686 115.56545607 -66.6668787 115.57144356 C-70.35990319 115.57504864 -74.05291438 115.5739109 -77.74593925 115.57131577 C-79.52303512 115.57064656 -81.30013217 115.57147468 -83.07722664 115.57379532 C-85.55550485 115.57632143 -88.03369154 115.57248205 -90.51196289 115.56689453 C-91.62394547 115.56993088 -91.62394547 115.56993088 -92.75839233 115.57302856 C-97.8232365 115.5517635 -97.8232365 115.5517635 -98.9375 114.4375 C-99.02401611 113.02179877 -99.04454904 111.601905 -99.03515625 110.18359375 C-99.03032227 108.90258789 -99.03032227 108.90258789 -99.02539062 107.59570312 C-99.01282227 106.24895508 -99.01282227 106.24895508 -99 104.875 C-98.99548828 103.97330078 -98.99097656 103.07160156 -98.98632812 102.14257812 C-98.97450225 99.90748686 -98.9580222 97.67252563 -98.9375 95.4375 C-106.81441505 95.42914528 -114.69052353 95.45344 -122.56714249 95.5177784 C-126.22592184 95.54667346 -129.88406839 95.56492305 -133.54296875 95.55761719 C-137.08370893 95.55095944 -140.62320578 95.57386649 -144.16368866 95.61605453 C-146.15074897 95.63238213 -148.1379827 95.61921728 -150.12506104 95.60525513 C-158.7761343 95.74172977 -165.82686728 97.2760859 -172.9375 102.4375 C-178.62122297 109.60568099 -180.85297342 116.35801019 -179.9375 125.4375 C-177.19122108 135.96727411 -172.04522708 144.31707654 -162.9375 150.4375 C-153.0849151 154.13212404 -142.7457394 155.27918969 -132.3371582 156.22027588 C-128.17016652 156.59748423 -124.00723564 157.01584586 -119.84375 157.4296875 C-119.00638306 157.51193573 -118.16901611 157.59418396 -117.30627441 157.67892456 C-109.32646671 158.47323703 -101.38437017 159.49272902 -93.4375 160.5625 C-83.57123537 161.8875358 -73.7252688 163.03328841 -63.79492188 163.75439453 C-58.91541647 164.13445163 -54.59669524 164.92200907 -49.9375 166.4375 C-49.6075 168.0875 -49.2775 169.7375 -48.9375 171.4375 C-52.10725916 173.55067277 -52.86973162 173.6890377 -56.49397278 173.69819641 C-57.42866394 173.70528122 -58.3633551 173.71236603 -59.32637024 173.71966553 C-60.86214973 173.7159494 -60.86214973 173.7159494 -62.42895508 173.7121582 C-63.50905853 173.71726913 -64.58916199 173.72238007 -65.70199585 173.72764587 C-69.28706349 173.74158808 -72.87193964 173.74058022 -76.45703125 173.73828125 C-78.95269339 173.74216845 -81.44835488 173.74650317 -83.9440155 173.75126648 C-89.18722154 173.75874067 -94.43037808 173.75856911 -99.67358398 173.75317383 C-106.36350244 173.74650532 -113.05309802 173.76423501 -119.74298573 173.7875185 C-124.90516244 173.80232671 -130.06727319 173.8031174 -135.22946739 173.80000877 C-137.69359575 173.80051942 -140.15772805 173.80570861 -142.62183571 173.81582069 C-167.10593786 173.9038862 -167.10593786 173.9038862 -178.9375 170.4375 C-179.79483231 170.21471878 -180.65216461 169.99193756 -181.53547668 169.7624054 C-193.04008408 166.68899034 -203.08328487 157.4026312 -209.1875 147.4375 C-210.12269551 145.78115918 -211.04031329 144.11473331 -211.9375 142.4375 C-212.34097656 141.68726563 -212.74445313 140.93703125 -213.16015625 140.1640625 C-217.14923305 132.47186422 -217.21644402 125.74634635 -217.28759766 117.23291016 C-217.30399572 115.80370619 -217.33106674 114.37457852 -217.36962891 112.94580078 C-217.85924326 94.65125389 -211.6966943 80.08132213 -199.17504883 66.62988281 C-195.12833418 62.44743646 -191.02325544 59.2313196 -185.9375 56.4375 C-184.98875 55.90382813 -184.04 55.37015625 -183.0625 54.8203125 C-172.08265753 48.96626383 -161.08436926 48.06502692 -148.87890625 46.86218262 C-136.3537038 45.61339011 -124.28515431 44.14543646 -112.21875 40.390625 C-108.9375 39.4375 -108.9375 39.4375 -104.9375 39.4375 C-104.68355469 38.27992188 -104.42960937 37.12234375 -104.16796875 35.9296875 C-103.82072046 34.3905329 -103.47304133 32.85147547 -103.125 31.3125 C-102.95935547 30.55195313 -102.79371094 29.79140625 -102.62304688 29.0078125 C-101.5866245 24.47102023 -100.39578466 20.45166102 -97.9375 16.4375 C-95.0625 15.25 -95.0625 15.25 -91.9375 15.4375 C-88.27684539 18.72193725 -85.20934723 22.42909224 -82.125 26.25 C-80.93970703 27.71373047 -80.93970703 27.71373047 -79.73046875 29.20703125 C-78.84294922 30.31111328 -78.84294922 30.31111328 -77.9375 31.4375 C-77.65084473 30.55227661 -77.65084473 30.55227661 -77.35839844 29.64916992 C-76.4820148 26.96966123 -75.58504646 24.29749038 -74.6875 21.625 C-74.38714844 20.69623047 -74.08679688 19.76746094 -73.77734375 18.81054688 C-73.47441406 17.91787109 -73.17148437 17.02519531 -72.859375 16.10546875 C-72.45090332 14.87219849 -72.45090332 14.87219849 -72.03417969 13.61401367 C-70.72410319 11.01398428 -69.42886909 9.91111196 -66.9375 8.4375 C-63.81831891 8.51547953 -62.4004686 9.02209002 -60.07421875 11.109375 C-57.59006111 13.8160623 -55.42926681 16.66768091 -53.25 19.625 C-50.7570344 23.17054596 -50.7570344 23.17054596 -47.9375 26.4375 C-47.71610352 25.85258789 -47.49470703 25.26767578 -47.26660156 24.66503906 C-46.25126664 22.00150176 -45.21959154 19.34458672 -44.1875 16.6875 C-43.83945312 15.76710938 -43.49140625 14.84671875 -43.1328125 13.8984375 C-39.76304901 5.2868197 -39.76304901 5.2868197 -35.9375 2.4375 C-33.5625 1.75 -33.5625 1.75 -30.9375 2.4375 C-24.72009052 8.37229995 -20.46480697 16.18374817 -15.9375 23.4375 C-15.65028076 22.84735107 -15.36306152 22.25720215 -15.06713867 21.64916992 C-13.75942703 18.971299 -12.44233634 16.29814844 -11.125 13.625 C-10.67318359 12.69623047 -10.22136719 11.76746094 -9.75585938 10.81054688 C-9.09360352 9.4715332 -9.09360352 9.4715332 -8.41796875 8.10546875 C-7.81311646 6.87219849 -7.81311646 6.87219849 -7.19604492 5.61401367 C-5.19274272 2.149525 -4.03330568 0.6007051 0 0 Z "
    fill="#9EC666"
    transform="translate(405.9375,448.5625)"
  />
  <path
    d="M0 0 C1.28725227 -0.01913956 1.28725227 -0.01913956 2.60050964 -0.03866577 C3.53067398 -0.04089142 4.46083832 -0.04311707 5.41918945 -0.04541016 C6.37638382 -0.05206696 7.33357819 -0.05872375 8.31977844 -0.06558228 C10.3498848 -0.07572274 12.38002459 -0.08039887 14.41015625 -0.08007812 C17.50292831 -0.08443108 20.59425013 -0.12067978 23.68676758 -0.15869141 C25.66007 -0.16456347 27.63337919 -0.16853025 29.60668945 -0.17041016 C30.98675423 -0.19196671 30.98675423 -0.19196671 32.3946991 -0.21395874 C39.16060718 -0.16632056 43.66738975 1.15484856 48.62231445 6.04443359 C52.27180081 11.73370021 52.39463336 16.64571662 51.8449707 23.29052734 C52.44825195 23.46068359 53.0515332 23.63083984 53.6730957 23.80615234 C54.47231445 24.04849609 55.2715332 24.29083984 56.0949707 24.54052734 C56.88387695 24.77255859 57.6727832 25.00458984 58.4855957 25.24365234 C60.8449707 26.29052734 60.8449707 26.29052734 62.49932861 28.32757568 C65.75870161 31.05518348 68.67715887 30.82315986 72.73461914 30.74462891 C73.52524246 30.74521301 74.31586578 30.74579712 75.13044739 30.74639893 C77.73886303 30.74361633 80.34613017 30.71251717 82.9543457 30.68115234 C84.76466243 30.67369055 86.57498724 30.66799733 88.38531494 30.66400146 C93.14648805 30.64874023 97.90717186 30.60945426 102.66815186 30.56518555 C107.52780539 30.52424337 112.3875381 30.5059927 117.24731445 30.48583984 C126.78008133 30.44296043 136.3124853 30.37470319 145.8449707 30.29052734 C147.65036736 26.915423 148.11466498 24.57047418 148.1887207 20.72021484 C148.21836914 19.65931641 148.24801758 18.59841797 148.27856445 17.50537109 C148.32299056 15.27099918 148.36726031 13.03662414 148.41137695 10.80224609 C148.44102539 9.74392578 148.47067383 8.68560547 148.5012207 7.59521484 C148.51991211 6.62567871 148.53860352 5.65614258 148.55786133 4.65722656 C148.8449707 2.29052734 148.8449707 2.29052734 150.8449707 0.29052734 C152.70878601 0.02310181 152.70878601 0.02310181 155 0 C156.28725227 -0.01913956 156.28725227 -0.01913956 157.60050964 -0.03866577 C158.53067398 -0.04089142 159.46083832 -0.04311707 160.41918945 -0.04541016 C161.37638382 -0.05206696 162.33357819 -0.05872375 163.31977844 -0.06558228 C165.3498848 -0.07572274 167.38002459 -0.08039887 169.41015625 -0.08007812 C172.50292831 -0.08443108 175.59425013 -0.12067978 178.68676758 -0.15869141 C180.66007 -0.16456347 182.63337919 -0.16853025 184.60668945 -0.17041016 C185.98675423 -0.19196671 185.98675423 -0.19196671 187.3946991 -0.21395874 C193.41107138 -0.17159798 196.91097374 0.79699931 201.8449707 4.29052734 C205.47398521 8.21378627 206.00083358 11.27378453 206.4699707 16.41552734 C206.79269361 19.55618816 206.79269361 19.55618816 207.8449707 22.29052734 C210.25004832 23.95661463 212.4279713 24.63543273 215.23168945 25.44287109 C219.26404415 26.75082471 222.06599829 29.13667889 224.8449707 32.29052734 C226.1574707 34.91552734 226.1574707 34.91552734 226.8449707 37.29052734 C227.18657227 37.89123047 227.52817383 38.49193359 227.88012695 39.11083984 C229.04637839 41.74552933 229.04543318 43.67295314 228.9699707 46.54052734 C228.95192383 47.43255859 228.93387695 48.32458984 228.9152832 49.24365234 C228.88047852 50.25685547 228.88047852 50.25685547 228.8449707 51.29052734 C225.80423541 52.81089499 222.64177608 52.43784024 219.3059082 52.43579102 C218.52854309 52.43914963 217.75117798 52.44250824 216.95025635 52.44596863 C214.37347834 52.45548945 211.79676522 52.45742218 209.2199707 52.45849609 C207.43400037 52.46170745 205.64803031 52.46507143 203.86206055 52.46858215 C200.11612335 52.47457595 196.37020924 52.47642175 192.62426758 52.47583008 C187.81535878 52.47572834 183.00659724 52.48939132 178.19772339 52.50660229 C174.50894485 52.51769859 170.82020221 52.51975003 167.13140869 52.51922035 C165.35792533 52.52040364 163.58444113 52.52484481 161.81097412 52.53255272 C159.33522086 52.5423067 156.85979123 52.53949313 154.3840332 52.53344727 C153.64630676 52.53906677 152.90858032 52.54468628 152.14849854 52.55047607 C147.07328765 52.51884429 147.07328765 52.51884429 144.8449707 50.29052734 C144.8449707 44.35052734 144.8449707 38.41052734 144.8449707 32.29052734 C106.7299707 32.78552734 106.7299707 32.78552734 67.8449707 33.29052734 C69.8249707 37.74552734 69.8249707 37.74552734 71.8449707 42.29052734 C72.28021912 45.46348828 72.04971416 48.06581786 71.8449707 51.29052734 C68.79950445 52.81326047 65.63063669 52.42906859 62.29003906 52.41992188 C61.51106766 52.42167419 60.73209625 52.42342651 59.92951965 52.42523193 C57.34792877 52.42964274 54.76640607 52.42671545 52.18481445 52.42333984 C50.39644864 52.42401304 48.60808291 52.42498319 46.81971741 52.42623901 C43.0695814 52.42771488 39.31946918 52.42556472 35.56933594 52.42089844 C30.75140206 52.4151971 25.93352384 52.41848341 21.115592 52.4244709 C17.42256751 52.42807599 13.72955633 52.42693824 10.03653145 52.42434311 C8.25943559 52.42367391 6.48233854 52.42450203 4.70524406 52.42682266 C2.22696586 52.42934877 -0.25122083 52.42550939 -2.72949219 52.41992188 C-3.84147476 52.42295822 -3.84147476 52.42295822 -4.97592163 52.42605591 C-10.04076579 52.40479085 -10.04076579 52.40479085 -11.1550293 51.29052734 C-11.1550293 45.02052734 -11.1550293 38.75052734 -11.1550293 32.29052734 C-30.2950293 32.29052734 -49.4350293 32.29052734 -69.1550293 32.29052734 C-69.1550293 31.96052734 -69.1550293 31.63052734 -69.1550293 31.29052734 C-50.0150293 31.29052734 -30.8750293 31.29052734 -11.1550293 31.29052734 C-10.4950293 29.64052734 -9.8350293 27.99052734 -9.1550293 26.29052734 C-8.4950293 25.63052734 -7.8350293 24.97052734 -7.1550293 24.29052734 C-6.81731454 21.99772406 -6.81731454 21.99772406 -6.8112793 19.35302734 C-6.78163086 18.37591797 -6.75198242 17.39880859 -6.72143555 16.39208984 C-6.69952148 15.36857422 -6.67760742 14.34505859 -6.6550293 13.29052734 C-6.61175763 11.26948613 -6.5600896 9.24860179 -6.4987793 7.22802734 C-6.48008789 6.32955078 -6.46139648 5.43107422 -6.44213867 4.50537109 C-5.90019971 0.32469913 -3.70976207 0.03740471 0 0 Z "
    fill="#8EB25D"
    transform="translate(318.155029296875,511.70947265625)"
  />
  <path
    d="M0 0 C7.77259431 4.6203755 12.24460856 10.65960693 15.109375 19.25390625 C16.12852698 29.66473726 15.2470284 37.44889128 9.109375 46.25390625 C3.75866763 52.69818885 -3.54992843 55.82595025 -11.7734375 56.63671875 C-21.89319085 57.07660436 -29.11163622 55.41828079 -37.140625 49.12890625 C-43.45200878 43.10784613 -46.09817071 37.20161158 -46.41992188 28.51879883 C-46.43087891 27.73013428 -46.44183594 26.94146973 -46.453125 26.12890625 C-46.46794922 25.37697998 -46.48277344 24.62505371 -46.49804688 23.8503418 C-46.36621032 16.68486813 -43.80207282 10.56513178 -38.640625 5.50390625 C-28.5782665 -3.99461319 -12.42516185 -5.98325747 0 0 Z "
    fill="#F9F9FA"
    transform="translate(1229.890625,1326.74609375)"
  />
  <path
    d="M0 0 C3.93545059 0.56220723 4.55349011 1.36058806 7.0625 4.4375 C8.81165075 7.61346377 10.3156198 10.88656224 11.8125 14.1875 C12.22371094 15.07566406 12.63492188 15.96382813 13.05859375 16.87890625 C14.06780234 19.0616132 15.06876334 21.24771666 16.0625 23.4375 C19.02197096 19.84764846 21.64325985 16.14375156 24.1875 12.25 C27.84185943 6.65814057 27.84185943 6.65814057 30.0625 4.4375 C36.31570073 3.86902721 36.31570073 3.86902721 38.6574707 5.65161133 C40.33565524 7.78469905 41.16436027 9.77859746 42.10546875 12.32421875 C42.63237305 13.7309082 42.63237305 13.7309082 43.16992188 15.16601562 C43.52634766 16.14248047 43.88277344 17.11894531 44.25 18.125 C44.61802734 19.11306641 44.98605469 20.10113281 45.36523438 21.11914062 C46.27168904 23.55597329 47.17044452 25.99536731 48.0625 28.4375 C49.6477517 26.7100597 51.23072626 24.98062043 52.8125 23.25 C54.13507813 21.80560547 54.13507813 21.80560547 55.484375 20.33203125 C58.06578879 17.51117848 58.06578879 17.51117848 60.203125 14.609375 C62.0625 12.4375 62.0625 12.4375 65.0625 11.875 C68.81951726 12.57944074 69.7212768 13.43959225 72.0625 16.4375 C72.82712245 19.15076848 73.38463332 21.61400149 73.8125 24.375 C73.93753906 25.07818359 74.06257812 25.78136719 74.19140625 26.50585938 C74.81818695 30.18044731 75.20836775 33.71057908 75.0625 37.4375 C67.46570863 36.5506242 59.96658118 35.46403166 52.46557617 33.96679688 C29.95128872 29.47512712 8.09947837 29.08529275 -14.78869629 29.40753174 C-16.75069024 29.43489466 -18.71274668 29.45767853 -20.67480469 29.47998047 C-37.37397611 29.71399082 -53.65048876 31.60238714 -70.14208984 34.08618164 C-72.9375 34.4375 -72.9375 34.4375 -76.9375 34.4375 C-76.51928846 26.35207695 -74.99886046 15.30959317 -68.92578125 9.51953125 C-66.9375 8.4375 -66.9375 8.4375 -64.4375 8.5 C-59.28067897 10.43380789 -56.41930017 15.32418109 -53.25 19.625 C-50.7570344 23.17054596 -50.7570344 23.17054596 -47.9375 26.4375 C-47.71610352 25.85258789 -47.49470703 25.26767578 -47.26660156 24.66503906 C-46.25126664 22.00150176 -45.21959154 19.34458672 -44.1875 16.6875 C-43.66542969 15.30691406 -43.66542969 15.30691406 -43.1328125 13.8984375 C-39.76304901 5.2868197 -39.76304901 5.2868197 -35.9375 2.4375 C-33.5625 1.75 -33.5625 1.75 -30.9375 2.4375 C-24.72009052 8.37229995 -20.46480697 16.18374817 -15.9375 23.4375 C-15.65028076 22.84735107 -15.36306152 22.25720215 -15.06713867 21.64916992 C-13.75942703 18.971299 -12.44233634 16.29814844 -11.125 13.625 C-10.67318359 12.69623047 -10.22136719 11.76746094 -9.75585938 10.81054688 C-9.31435547 9.91787109 -8.87285156 9.02519531 -8.41796875 8.10546875 C-8.01473389 7.28328857 -7.61149902 6.4611084 -7.19604492 5.61401367 C-5.19274272 2.149525 -4.03330568 0.6007051 0 0 Z "
    fill="#89AD5C"
    transform="translate(405.9375,448.5625)"
  />
  <path
    d="M0 0 C34.75 0 34.75 0 46 9 C47.546875 11.25390625 47.546875 11.25390625 48.75 13.5625 C49.15734375 14.32691406 49.5646875 15.09132813 49.984375 15.87890625 C53.26857034 22.73782189 53.21257881 31.69931161 51.1640625 38.96484375 C48.31442627 45.17093071 44.53169488 49.04878937 39 53 C28 57 28 57 0 57 C0 38.19 0 19.38 0 0 Z "
    fill="#FCFCFC"
    transform="translate(363,1325)"
  />
  <path
    d="M0 0 C6.27 0 12.54 0 19 0 C20.03125 2.805 21.0625 5.61 22.125 8.5 C25.3810301 17.34681941 28.67797606 26.17777524 32 35 C32.60982873 33.27215194 33.21963466 31.54429584 33.8293457 29.81640625 C34.36396536 28.30195131 34.89896468 26.78763036 35.43432617 25.2734375 C36.86483377 21.22569897 38.28875693 17.17586485 39.69921875 13.12109375 C39.96976074 12.34628662 40.24030273 11.57147949 40.51904297 10.77319336 C41.04250746 9.27350787 41.5637166 7.773033 42.08251953 6.27172852 C43.88756759 1.11243241 43.88756759 1.11243241 45 0 C51.27 0 57.54 0 64 0 C64 18.81 64 37.62 64 57 C59.71 57 55.42 57 51 57 C50.67 44.13 50.34 31.26 50 18 C48.35 23.28 46.7 28.56 45 34 C42.9375 39.1875 42.9375 39.1875 41.98046875 41.47265625 C40.01317605 46.54372547 38.53659102 51.78539854 37 57 C33.37 57 29.74 57 26 57 C24.46610582 52.44809435 22.93631344 47.89483758 21.41015625 43.34033203 C20.89139993 41.79406397 20.37156293 40.248158 19.85058594 38.70263672 C19.09800056 36.46939007 18.34942929 34.23483058 17.6015625 32 C17.3712735 31.31945557 17.1409845 30.63891113 16.90371704 29.93774414 C16.57360123 28.94762329 16.57360123 28.94762329 16.23681641 27.9375 C16.04584381 27.36902344 15.85487122 26.80054688 15.65811157 26.21484375 C14.655986 22.84223696 13.85332334 19.41329335 13 16 C12.67 29.53 12.34 43.06 12 57 C8.04 57 4.08 57 0 57 C0 38.19 0 19.38 0 0 Z "
    fill="#FAFAFB"
    transform="translate(1306,1325)"
  />
  <path
    d="M0 0 C3.37493951 2.04223945 5.23528536 3.65956866 7.44921875 6.98046875 C8.15439517 12.20369412 8.09762396 16.65964332 5.76171875 21.41796875 C3.49016263 23.9350985 1.1956997 25.99689918 -1.55078125 27.98046875 C0.09921875 29.63046875 1.74921875 31.28046875 3.44921875 32.98046875 C4.43921875 32.65046875 5.42921875 32.32046875 6.44921875 31.98046875 C6.84753906 31.14128906 7.24585938 30.30210938 7.65625 29.4375 C8.24792969 28.62667969 8.83960938 27.81585937 9.44921875 26.98046875 C12.23521446 26.59986824 14.38294626 26.5008397 17.13671875 26.66796875 C17.83861328 26.69052734 18.54050781 26.71308594 19.26367188 26.73632812 C20.99310205 26.79515228 22.72143313 26.88483486 24.44921875 26.98046875 C21.04367796 32.24676894 17.57253013 37.25078805 13.44921875 41.98046875 C14.8701048 45.15614908 16.61330498 47.47445339 18.94921875 50.04296875 C21.00737436 52.31478882 22.74060046 54.41754132 24.44921875 56.98046875 C21.8439477 57.08839712 19.24313564 57.16771753 16.63671875 57.23046875 C15.89873047 57.26398438 15.16074219 57.2975 14.40039062 57.33203125 C12.2421875 57.37109375 12.2421875 57.37109375 8.44921875 56.98046875 C6.4375 54.96484375 6.4375 54.96484375 5.44921875 52.98046875 C4.91296875 53.24859375 4.37671875 53.51671875 3.82421875 53.79296875 C3.04046875 54.18484375 2.25671875 54.57671875 1.44921875 54.98046875 C0.55203125 55.4909375 -0.34515625 56.00140625 -1.26953125 56.52734375 C-7.36640591 59.22738824 -14.65742428 59.05220154 -21.0625 57.2890625 C-26.29865595 54.90536484 -29.96732126 51.14738874 -32.55078125 45.98046875 C-33.10452261 41.44160513 -33.01808129 37.93376083 -30.98828125 33.79296875 C-28.10986212 30.47171591 -24.98970719 27.70456177 -21.55078125 24.98046875 C-22.78828125 23.55734375 -22.78828125 23.55734375 -24.05078125 22.10546875 C-26.80860569 18.22087604 -27.29291643 15.05893962 -27.03515625 10.34765625 C-26.01816584 5.37752572 -23.03647909 3.09474213 -19.05078125 0.10546875 C-12.92863042 -1.86236545 -6.07068573 -2.42641497 0 0 Z "
    fill="#F8F8FA"
    transform="translate(995.55078125,1325.01953125)"
  />
  <path
    d="M0 0 C17 0 17 0 20.8984375 3.5234375 C22.20410156 5.84448242 22.20410156 5.84448242 23.375 8.375 C24.31456081 10.10836755 25.25468004 11.84143251 26.1953125 13.57421875 C26.65067383 14.46802246 27.10603516 15.36182617 27.57519531 16.28271484 C29.42833251 19.816885 31.50312148 23.1866348 33.61669922 26.56958008 C35.77433719 30.02792866 37.88234959 33.51702236 40 37 C40.33 24.79 40.66 12.58 41 0 C45.29 0 49.58 0 54 0 C54 18.81 54 37.62 54 57 C48.39 57 42.78 57 37 57 C33.76760448 53.68850247 32.79354281 52.0407265 31 48 C29.59897978 45.67087634 28.17757314 43.36607126 26.73046875 41.06640625 C25.97708989 39.83043464 25.22646327 38.59278147 24.47851562 37.35351562 C22.93389034 34.79745368 21.38724938 32.24264907 19.83789062 29.68945312 C14.15629186 20.31258372 14.15629186 20.31258372 13 18 C12.67 30.87 12.34 43.74 12 57 C8.04 57 4.08 57 0 57 C0 38.19 0 19.38 0 0 Z "
    fill="#FAFAFB"
    transform="translate(1075,1325)"
  />
  <path
    d="M0 0 C17 0 17 0 20.8984375 3.5234375 C22.20410156 5.84448242 22.20410156 5.84448242 23.375 8.375 C24.31456081 10.10836755 25.25468004 11.84143251 26.1953125 13.57421875 C26.65067383 14.46802246 27.10603516 15.36182617 27.57519531 16.28271484 C29.42833251 19.816885 31.50312148 23.1866348 33.61669922 26.56958008 C35.77433719 30.02792866 37.88234959 33.51702236 40 37 C40.33 24.79 40.66 12.58 41 0 C45.29 0 49.58 0 54 0 C54 18.81 54 37.62 54 57 C48.39 57 42.78 57 37 57 C33.76760448 53.68850247 32.79354281 52.0407265 31 48 C29.59897978 45.67087634 28.17757314 43.36607126 26.73046875 41.06640625 C25.97708989 39.83043464 25.22646327 38.59278147 24.47851562 37.35351562 C22.93389034 34.79745368 21.38724938 32.24264907 19.83789062 29.68945312 C14.15629186 20.31258372 14.15629186 20.31258372 13 18 C12.67 30.87 12.34 43.74 12 57 C8.04 57 4.08 57 0 57 C0 38.19 0 19.38 0 0 Z "
    fill="#FAFAFB"
    transform="translate(772,1325)"
  />
  <path
    d="M0 0 C7.1775 -0.12375 7.1775 -0.12375 14.5 -0.25 C15.99337891 -0.28641602 17.48675781 -0.32283203 19.02539062 -0.36035156 C27.18465574 -0.42838201 33.41039764 -0.29037019 39.62890625 5.52270508 C42.88526735 9.031295 43.3601424 12.35978817 43.5 17.0625 C43.21474186 23.23795324 42.05603698 26.99668191 37.5625 31.375 C35 33 35 33 31 33 C31.38857178 33.62044189 31.77714355 34.24088379 32.17749023 34.88012695 C33.93406349 37.68890888 35.6858304 40.5006576 37.4375 43.3125 C38.04916016 44.28896484 38.66082031 45.26542969 39.29101562 46.27148438 C39.87431641 47.20927734 40.45761719 48.14707031 41.05859375 49.11328125 C41.59798584 49.97735596 42.13737793 50.84143066 42.69311523 51.73168945 C44 54 44 54 45 57 C40.05 57 35.1 57 30 57 C29.38511719 55.90300781 28.77023437 54.80601563 28.13671875 53.67578125 C27.32035083 52.22133265 26.50394244 50.76690677 25.6875 49.3125 C25.08131836 48.2306543 25.08131836 48.2306543 24.46289062 47.12695312 C23.67109486 45.71717041 22.87288725 44.31096699 22.06787109 42.90869141 C21.17860256 41.31923063 20.36953552 39.68522972 19.58203125 38.04296875 C17.80408061 35.26923949 17.80408061 35.26923949 12 35 C12 42.26 12 49.52 12 57 C8.04 57 4.08 57 0 57 C0 38.19 0 19.38 0 0 Z "
    fill="#FCFCFC"
    transform="translate(1254,1325)"
  />
  <path
    d="M0 0 C-2.47309408 2.66206805 -5.22269305 4.65916294 -8.1875 6.75 C-24.42375171 18.51539979 -36.58861945 34.73599096 -40 55 C-41.57065495 73.73538288 -38.79648628 90.28513993 -27.0625 105.375 C-21.89909476 111.45901238 -16.39708535 117.20218599 -10 122 C-23.30245851 120.84428995 -32.69804276 115.23896606 -41.8125 105.61328125 C-45.10381412 101.68133634 -47.63502691 97.53718975 -50 93 C-50.40089844 92.25234375 -50.80179688 91.5046875 -51.21484375 90.734375 C-55.2168658 83.04365647 -55.27892282 76.31138368 -55.35009766 67.79541016 C-55.36649572 66.36620619 -55.39356674 64.93707852 -55.43212891 63.50830078 C-55.92174326 45.21375389 -49.7591943 30.64382213 -37.23754883 17.19238281 C-27.42574673 7.051481 -14.25027681 -0.27941719 0 0 Z "
    fill="#8AAE5C"
    transform="translate(244,498)"
  />
  <path
    d="M0 0 C2.83203125 0.03255208 5.6640625 0.06510417 8.49609375 0.09765625 C12.29847276 7.4352754 15.62751607 14.91011816 18.80859375 22.53515625 C19.76951062 24.82552949 20.73044831 27.11589399 21.69140625 29.40625 C22.16223633 30.53144043 22.63306641 31.65663086 23.11816406 32.81591797 C24.39781877 35.8636002 25.68969596 38.90565711 26.98828125 41.9453125 C27.36170654 42.82195557 27.73513184 43.69859863 28.11987305 44.60180664 C28.81420447 46.2309437 29.51087684 47.85908561 30.21020508 49.48608398 C32.49609375 54.8726515 32.49609375 54.8726515 32.49609375 57.09765625 C27.87609375 57.09765625 23.25609375 57.09765625 18.49609375 57.09765625 C14.49609375 47.34765625 14.49609375 47.34765625 14.49609375 45.09765625 C6.90609375 45.09765625 -0.68390625 45.09765625 -8.50390625 45.09765625 C-8.83390625 46.74765625 -9.16390625 48.39765625 -9.50390625 50.09765625 C-10.39696499 52.48994314 -11.45286651 54.76708987 -12.50390625 57.09765625 C-17.12390625 57.09765625 -21.74390625 57.09765625 -26.50390625 57.09765625 C-24.31418431 50.21491588 -21.71246463 43.61033255 -18.87109375 36.97265625 C-18.21513718 35.43049438 -18.21513718 35.43049438 -17.54592896 33.85717773 C-16.62817614 31.70175319 -15.7087065 29.54705891 -14.78759766 27.39306641 C-13.37207419 24.08167372 -11.96300397 20.76758827 -10.5546875 17.453125 C-9.66053475 15.35530738 -8.76601667 13.25764543 -7.87109375 11.16015625 C-7.44819061 10.1654834 -7.02528748 9.17081055 -6.58956909 8.14599609 C-6.00358444 6.77822021 -6.00358444 6.77822021 -5.40576172 5.3828125 C-5.06173309 4.577229 -4.71770447 3.77164551 -4.36325073 2.94165039 C-3.04776785 0.1188677 -3.04776785 0.1188677 0 0 Z "
    fill="#F9F9FB"
    transform="translate(1401.50390625,1324.90234375)"
  />
  <path
    d="M0 0 C2.83203125 0.03255208 5.6640625 0.06510417 8.49609375 0.09765625 C12.29847276 7.4352754 15.62751607 14.91011816 18.80859375 22.53515625 C19.76951062 24.82552949 20.73044831 27.11589399 21.69140625 29.40625 C22.16223633 30.53144043 22.63306641 31.65663086 23.11816406 32.81591797 C24.39781877 35.8636002 25.68969596 38.90565711 26.98828125 41.9453125 C27.36170654 42.82195557 27.73513184 43.69859863 28.11987305 44.60180664 C28.81420447 46.2309437 29.51087684 47.85908561 30.21020508 49.48608398 C32.49609375 54.8726515 32.49609375 54.8726515 32.49609375 57.09765625 C27.87609375 57.09765625 23.25609375 57.09765625 18.49609375 57.09765625 C14.49609375 47.34765625 14.49609375 47.34765625 14.49609375 45.09765625 C6.90609375 45.09765625 -0.68390625 45.09765625 -8.50390625 45.09765625 C-8.83390625 46.74765625 -9.16390625 48.39765625 -9.50390625 50.09765625 C-10.39696499 52.48994314 -11.45286651 54.76708987 -12.50390625 57.09765625 C-17.12390625 57.09765625 -21.74390625 57.09765625 -26.50390625 57.09765625 C-24.31418431 50.21491588 -21.71246463 43.61033255 -18.87109375 36.97265625 C-18.21513718 35.43049438 -18.21513718 35.43049438 -17.54592896 33.85717773 C-16.62817614 31.70175319 -15.7087065 29.54705891 -14.78759766 27.39306641 C-13.37207419 24.08167372 -11.96300397 20.76758827 -10.5546875 17.453125 C-9.66053475 15.35530738 -8.76601667 13.25764543 -7.87109375 11.16015625 C-7.44819061 10.1654834 -7.02528748 9.17081055 -6.58956909 8.14599609 C-6.00358444 6.77822021 -6.00358444 6.77822021 -5.40576172 5.3828125 C-5.06173309 4.577229 -4.71770447 3.77164551 -4.36325073 2.94165039 C-3.04776785 0.1188677 -3.04776785 0.1188677 0 0 Z "
    fill="#F9F9FB"
    transform="translate(535.50390625,1324.90234375)"
  />
  <path
    d="M0 0 C2.83203125 0.03255208 5.6640625 0.06510417 8.49609375 0.09765625 C12.29847276 7.4352754 15.62751607 14.91011816 18.80859375 22.53515625 C19.76951062 24.82552949 20.73044831 27.11589399 21.69140625 29.40625 C22.16223633 30.53144043 22.63306641 31.65663086 23.11816406 32.81591797 C24.39781877 35.8636002 25.68969596 38.90565711 26.98828125 41.9453125 C27.36170654 42.82195557 27.73513184 43.69859863 28.11987305 44.60180664 C28.81420447 46.2309437 29.51087684 47.85908561 30.21020508 49.48608398 C32.49609375 54.8726515 32.49609375 54.8726515 32.49609375 57.09765625 C27.87609375 57.09765625 23.25609375 57.09765625 18.49609375 57.09765625 C14.49609375 47.34765625 14.49609375 47.34765625 14.49609375 45.09765625 C6.90609375 45.09765625 -0.68390625 45.09765625 -8.50390625 45.09765625 C-8.83390625 46.74765625 -9.16390625 48.39765625 -9.50390625 50.09765625 C-10.39696499 52.48994314 -11.45286651 54.76708987 -12.50390625 57.09765625 C-17.12390625 57.09765625 -21.74390625 57.09765625 -26.50390625 57.09765625 C-24.31418431 50.21491588 -21.71246463 43.61033255 -18.87109375 36.97265625 C-18.21513718 35.43049438 -18.21513718 35.43049438 -17.54592896 33.85717773 C-16.62817614 31.70175319 -15.7087065 29.54705891 -14.78759766 27.39306641 C-13.37207419 24.08167372 -11.96300397 20.76758827 -10.5546875 17.453125 C-9.66053475 15.35530738 -8.76601667 13.25764543 -7.87109375 11.16015625 C-7.44819061 10.1654834 -7.02528748 9.17081055 -6.58956909 8.14599609 C-6.00358444 6.77822021 -6.00358444 6.77822021 -5.40576172 5.3828125 C-5.06173309 4.577229 -4.71770447 3.77164551 -4.36325073 2.94165039 C-3.04776785 0.1188677 -3.04776785 0.1188677 0 0 Z "
    fill="#F9F9FB"
    transform="translate(444.50390625,1324.90234375)"
  />
  <path
    d="M0 0 C12.87 0 25.74 0 39 0 C39 3.96 39 7.92 39 12 C30.42 12 21.84 12 13 12 C13 15.3 13 18.6 13 22 C20.92 22 28.84 22 37 22 C37 25.96 37 29.92 37 34 C29.08 34 21.16 34 13 34 C13 37.63 13 41.26 13 45 C21.91 45 30.82 45 40 45 C40 48.96 40 52.92 40 57 C26.8 57 13.6 57 0 57 C0 38.19 0 19.38 0 0 Z "
    fill="#FCFCFD"
    transform="translate(892,1325)"
  />
  <path
    d="M0 0 C12.87 0 25.74 0 39 0 C39 3.96 39 7.92 39 12 C30.42 12 21.84 12 13 12 C13 15.3 13 18.6 13 22 C20.92 22 28.84 22 37 22 C37 25.96 37 29.92 37 34 C29.08 34 21.16 34 13 34 C13 37.63 13 41.26 13 45 C21.91 45 30.82 45 40 45 C40 48.96 40 52.92 40 57 C26.8 57 13.6 57 0 57 C0 38.19 0 19.38 0 0 Z "
    fill="#FCFCFD"
    transform="translate(722,1325)"
  />
  <path
    d="M0 0 C2.44534816 1.40085271 4.18958721 2.62708721 6.1875 4.625 C6.1875 7.625 6.1875 7.625 4.75390625 9.3359375 C2.60714162 11.11863093 0.74944779 12.50201289 -1.8125 13.625 C-4.29748818 13.27062669 -6.21814983 12.45133835 -8.515625 11.453125 C-12.40460528 10.05097565 -15.88375408 10.55217861 -19.8125 11.625 C-23.81293055 13.55113323 -25.43578625 14.98458663 -27.6875 18.8125 C-29.51085142 24.99163536 -29.816706 30.06702661 -27.0625 36 C-24.99816057 39.65620681 -22.97967829 41.80296685 -19 43.3125 C-14.06933032 44.01688138 -10.90230097 44.26243076 -6.5 41.6875 C-5.613125 41.006875 -4.72625 40.32625 -3.8125 39.625 C-3.1525 39.295 -2.4925 38.965 -1.8125 38.625 C1.1575 40.935 4.1275 43.245 7.1875 45.625 C6.05458963 50.15664148 5.55983085 50.4537432 1.8125 52.8125 C1.02101563 53.32167969 0.22953125 53.83085938 -0.5859375 54.35546875 C-7.07103222 58.05311047 -16.37568826 57.68778607 -23.51953125 55.9765625 C-31.58521928 52.67118422 -38.34941564 46.74798446 -41.96484375 38.76953125 C-43.07575491 34.64840919 -43.31588007 30.75533119 -43.375 26.5 C-43.38982422 25.74807373 -43.40464844 24.99614746 -43.41992188 24.22143555 C-43.28808532 17.05596188 -40.72394782 10.93622553 -35.5625 5.875 C-26.23391515 -2.93086242 -11.65595623 -5.79389637 0 0 Z "
    fill="#F8F8FA"
    transform="translate(1542.8125,1326.375)"
  />
  <path
    d="M0 0 C2.44534816 1.40085271 4.18958721 2.62708721 6.1875 4.625 C6.1875 7.625 6.1875 7.625 4.75390625 9.3359375 C2.60714162 11.11863093 0.74944779 12.50201289 -1.8125 13.625 C-4.29748818 13.27062669 -6.21814983 12.45133835 -8.515625 11.453125 C-12.40460528 10.05097565 -15.88375408 10.55217861 -19.8125 11.625 C-23.81293055 13.55113323 -25.43578625 14.98458663 -27.6875 18.8125 C-29.51085142 24.99163536 -29.816706 30.06702661 -27.0625 36 C-24.99816057 39.65620681 -22.97967829 41.80296685 -19 43.3125 C-14.06933032 44.01688138 -10.90230097 44.26243076 -6.5 41.6875 C-5.613125 41.006875 -4.72625 40.32625 -3.8125 39.625 C-3.1525 39.295 -2.4925 38.965 -1.8125 38.625 C1.1575 40.935 4.1275 43.245 7.1875 45.625 C6.05458963 50.15664148 5.55983085 50.4537432 1.8125 52.8125 C1.02101563 53.32167969 0.22953125 53.83085938 -0.5859375 54.35546875 C-7.07103222 58.05311047 -16.37568826 57.68778607 -23.51953125 55.9765625 C-31.58521928 52.67118422 -38.34941564 46.74798446 -41.96484375 38.76953125 C-43.07575491 34.64840919 -43.31588007 30.75533119 -43.375 26.5 C-43.38982422 25.74807373 -43.40464844 24.99614746 -43.41992188 24.22143555 C-43.28808532 17.05596188 -40.72394782 10.93622553 -35.5625 5.875 C-26.23391515 -2.93086242 -11.65595623 -5.79389637 0 0 Z "
    fill="#F8F8FA"
    transform="translate(877.8125,1326.375)"
  />
  <path
    d="M0 0 C2.44534816 1.40085271 4.18958721 2.62708721 6.1875 4.625 C6.1875 7.625 6.1875 7.625 4.75390625 9.3359375 C2.60714162 11.11863093 0.74944779 12.50201289 -1.8125 13.625 C-4.29748818 13.27062669 -6.21814983 12.45133835 -8.515625 11.453125 C-12.40460528 10.05097565 -15.88375408 10.55217861 -19.8125 11.625 C-23.81293055 13.55113323 -25.43578625 14.98458663 -27.6875 18.8125 C-29.51085142 24.99163536 -29.816706 30.06702661 -27.0625 36 C-24.99816057 39.65620681 -22.97967829 41.80296685 -19 43.3125 C-14.06933032 44.01688138 -10.90230097 44.26243076 -6.5 41.6875 C-5.613125 41.006875 -4.72625 40.32625 -3.8125 39.625 C-3.1525 39.295 -2.4925 38.965 -1.8125 38.625 C1.1575 40.935 4.1275 43.245 7.1875 45.625 C6.05458963 50.15664148 5.55983085 50.4537432 1.8125 52.8125 C1.02101563 53.32167969 0.22953125 53.83085938 -0.5859375 54.35546875 C-7.07103222 58.05311047 -16.37568826 57.68778607 -23.51953125 55.9765625 C-31.58521928 52.67118422 -38.34941564 46.74798446 -41.96484375 38.76953125 C-43.07575491 34.64840919 -43.31588007 30.75533119 -43.375 26.5 C-43.38982422 25.74807373 -43.40464844 24.99614746 -43.41992188 24.22143555 C-43.28808532 17.05596188 -40.72394782 10.93622553 -35.5625 5.875 C-26.23391515 -2.93086242 -11.65595623 -5.79389637 0 0 Z "
    fill="#F8F8FA"
    transform="translate(683.8125,1326.375)"
  />
  <path
    d="M0 0 C1.39154757 0.8053973 2.77395835 1.62836022 4.125 2.5 C2.51795711 6.8788233 0.80423092 9.52157497 -2.875 12.5 C-4.7578125 12.17578125 -4.7578125 12.17578125 -6.875 11.5 C-8.36986837 11.23945076 -9.87061514 11.01085211 -11.375 10.8125 C-12.1278125 10.70550781 -12.880625 10.59851562 -13.65625 10.48828125 C-16.23821678 10.5019184 -17.67662393 11.19596329 -19.875 12.5 C-19.875 14.48 -19.875 16.46 -19.875 18.5 C-18.01294922 19.17095703 -18.01294922 19.17095703 -16.11328125 19.85546875 C-14.47108687 20.46542666 -12.82917441 21.07614399 -11.1875 21.6875 C-10.37087891 21.97947266 -9.55425781 22.27144531 -8.71289062 22.57226562 C-3.62121276 24.48937511 -0.41253625 26.34845351 3.125 30.5 C3.455 30.83 3.785 31.16 4.125 31.5 C4.79513443 37.11237585 5.417718 42.94525166 2.80859375 48.1015625 C-0.61036189 52.18595245 -4.52768051 55.55527632 -9.875 56.5 C-18.13193068 57.22882405 -26.01925521 57.71671069 -32.875 52.5 C-35.375 50.25 -35.375 50.25 -36.875 48.5 C-36.38128906 48.01789063 -35.88757812 47.53578125 -35.37890625 47.0390625 C-34.73824219 46.40742187 -34.09757812 45.77578125 -33.4375 45.125 C-32.79941406 44.49851562 -32.16132812 43.87203125 -31.50390625 43.2265625 C-29.79617824 41.58276939 -29.79617824 41.58276939 -28.875 39.5 C-28.33875 39.78875 -27.8025 40.0775 -27.25 40.375 C-21.23096903 43.22611993 -17.35628299 43.7962566 -10.875 42.5 C-10.215 41.84 -9.555 41.18 -8.875 40.5 C-8.80953102 37.98952515 -8.80953102 37.98952515 -9.875 35.5 C-12.87721211 32.98201565 -16.10771335 32.10586612 -19.8125 31.0625 C-25.5061237 29.4212474 -29.33012958 27.28879733 -33.25 22.75 C-35.25634765 18.73730469 -35.58086734 15.89402422 -34.875 11.5 C-32.78940775 5.36590514 -28.3009405 1.19847811 -22.56640625 -1.64453125 C-15.10444529 -4.01633016 -6.96298498 -3.50632482 0 0 Z "
    fill="#F8F8FA"
    transform="translate(1588.875,1326.5)"
  />
  <path
    d="M0 0 C1.39154757 0.8053973 2.77395835 1.62836022 4.125 2.5 C2.51795711 6.8788233 0.80423092 9.52157497 -2.875 12.5 C-4.7578125 12.17578125 -4.7578125 12.17578125 -6.875 11.5 C-8.36986837 11.23945076 -9.87061514 11.01085211 -11.375 10.8125 C-12.1278125 10.70550781 -12.880625 10.59851562 -13.65625 10.48828125 C-16.23821678 10.5019184 -17.67662393 11.19596329 -19.875 12.5 C-19.875 14.48 -19.875 16.46 -19.875 18.5 C-18.01294922 19.17095703 -18.01294922 19.17095703 -16.11328125 19.85546875 C-14.47108687 20.46542666 -12.82917441 21.07614399 -11.1875 21.6875 C-10.37087891 21.97947266 -9.55425781 22.27144531 -8.71289062 22.57226562 C-3.62121276 24.48937511 -0.41253625 26.34845351 3.125 30.5 C3.455 30.83 3.785 31.16 4.125 31.5 C4.79513443 37.11237585 5.417718 42.94525166 2.80859375 48.1015625 C-0.61036189 52.18595245 -4.52768051 55.55527632 -9.875 56.5 C-18.13193068 57.22882405 -26.01925521 57.71671069 -32.875 52.5 C-35.375 50.25 -35.375 50.25 -36.875 48.5 C-36.38128906 48.01789063 -35.88757813 47.53578125 -35.37890625 47.0390625 C-34.73824219 46.40742187 -34.09757813 45.77578125 -33.4375 45.125 C-32.79941406 44.49851562 -32.16132812 43.87203125 -31.50390625 43.2265625 C-29.79617824 41.58276939 -29.79617824 41.58276939 -28.875 39.5 C-28.33875 39.78875 -27.8025 40.0775 -27.25 40.375 C-21.23096903 43.22611993 -17.35628299 43.7962566 -10.875 42.5 C-10.215 41.84 -9.555 41.18 -8.875 40.5 C-8.80953102 37.98952515 -8.80953102 37.98952515 -9.875 35.5 C-12.87721211 32.98201565 -16.10771335 32.10586612 -19.8125 31.0625 C-25.5061237 29.4212474 -29.33012958 27.28879733 -33.25 22.75 C-35.25634765 18.73730469 -35.58086734 15.89402422 -34.875 11.5 C-32.78940775 5.36590514 -28.3009405 1.19847811 -22.56640625 -1.64453125 C-15.10444529 -4.01633016 -6.96298498 -3.50632482 0 0 Z "
    fill="#F8F8FA"
    transform="translate(629.875,1326.5)"
  />
  <path
    d="M0 0 C12.54 0 25.08 0 38 0 C38 3.96 38 7.92 38 12 C29.75 12 21.5 12 13 12 C13 15.63 13 19.26 13 23 C20.59 23 28.18 23 36 23 C36 26.96 36 30.92 36 35 C28.41 35 20.82 35 13 35 C13 42.26 13 49.52 13 57 C8.71 57 4.42 57 0 57 C0 38.19 0 19.38 0 0 Z "
    fill="#FBFBFC"
    transform="translate(1140,1325)"
  />
  <path
    d="M0 0 C15.18 0 30.36 0 46 0 C46 3.63 46 7.26 46 11 C40.39 11 34.78 11 29 11 C29 26.18 29 41.36 29 57 C25.04 57 21.08 57 17 57 C17 41.82 17 26.64 17 11 C11.39 11 5.78 11 0 11 C0 7.37 0 3.74 0 0 Z "
    fill="#FCFCFD"
    transform="translate(1427,1325)"
  />
  <path
    d="M0 0 C15.18 0 30.36 0 46 0 C46 3.63 46 7.26 46 11 C40.39 11 34.78 11 29 11 C29 26.18 29 41.36 29 57 C25.04 57 21.08 57 17 57 C17 41.82 17 26.64 17 11 C11.39 11 5.78 11 0 11 C0 7.37 0 3.74 0 0 Z "
    fill="#FCFCFD"
    transform="translate(470,1325)"
  />
  <path
    d="M0 0 C4.3079506 3.56944479 7.69158567 7.27832574 8.49609375 13.01171875 C8.81209571 19.11151416 7.84570641 22.55053276 3.81640625 27.1875 C-0.45179571 31.44546646 -4.34127112 32.45259838 -10.24609375 32.875 C-15.59723701 32.74468296 -19.41259978 31.21240022 -23.1875 27.4375 C-26.60850419 21.91126246 -27.67418906 17.27516792 -26.8125 10.8125 C-25.38681278 6.21141852 -23.5628232 3.4221376 -19.8125 0.375 C-13.4010205 -2.96431224 -6.66860243 -2.81563214 0 0 Z "
    fill="#130C6C"
    transform="translate(1223.8125,1338.1875)"
  />
  <path
    d="M0 0 C9.36683002 0 15.26533489 0.07861089 22.9375 4.8125 C26.99875311 9.11988966 27.45484015 14.11249661 27.3203125 19.8203125 C26.69027114 24.10766713 24.21656797 26.78343203 21.25 29.75 C14.33730967 33.59038352 7.91362049 33 0 33 C0 22.11 0 11.22 0 0 Z "
    fill="#16106D"
    transform="translate(375,1337)"
  />
  <path
    d="M0 0 C4.29 0 8.58 0 13 0 C13 18.81 13 37.62 13 57 C8.71 57 4.42 57 0 57 C0 38.19 0 19.38 0 0 Z "
    fill="#F6F6F8"
    transform="translate(1478,1325)"
  />
  <path
    d="M0 0 C4.29 0 8.58 0 13 0 C13 18.81 13 37.62 13 57 C8.71 57 4.42 57 0 57 C0 38.19 0 19.38 0 0 Z "
    fill="#F6F6F8"
    transform="translate(1050,1325)"
  />
  <path
    d="M0 0 C4.29 0 8.58 0 13 0 C13 18.81 13 37.62 13 57 C8.71 57 4.42 57 0 57 C0 38.19 0 19.38 0 0 Z "
    fill="#F6F6F8"
    transform="translate(697,1325)"
  />
  <path
    d="M0 0 C17.56598474 1.12186121 34.99722326 2.94005952 52.44381714 5.26766968 C61.99327752 6.5394637 71.5290162 7.61928599 81.13842773 8.31640625 C86.01938115 8.69690416 90.33936815 9.48404179 95 11 C95.495 13.475 95.495 13.475 96 16 C85.06724427 15.07163192 74.26247743 13.80527162 63.4375 12 C56.03178648 10.7649642 48.66179594 9.65672768 41.1875 8.9375 C5.47243411 5.47243411 5.47243411 5.47243411 0 0 Z "
    fill="#8FAB5A"
    transform="translate(261,604)"
  />
  <path
    d="M0 0 C2.1953125 2.109375 2.1953125 2.109375 4.125 4.75 C4.76695312 5.61109375 5.40890625 6.4721875 6.0703125 7.359375 C6.70710938 8.23078125 7.34390625 9.1021875 8 10 C8.73992187 10.85078125 9.47984375 11.7015625 10.2421875 12.578125 C12 15 12 15 12 19 C9.00025462 19.48080596 6.00022231 19.95968682 3 20.4375 C2.16082031 20.57220703 1.32164062 20.70691406 0.45703125 20.84570312 C-4.68651294 21.66308805 -9.82846341 22.3834858 -15 23 C-14.40532938 20.28926794 -13.79964449 17.58179163 -13.1875 14.875 C-12.9390332 13.73417969 -12.9390332 13.73417969 -12.68554688 12.5703125 C-11.64715122 8.02488248 -10.40527987 4.05299128 -8 0 C-5.00461743 -1.49769129 -3.1835365 -0.87328931 0 0 Z "
    fill="#89AD5C"
    transform="translate(316,465)"
  />
  <path
    d="M0 0 C12.24185013 -0.40357748 12.24185013 -0.40357748 17 3 C18 4 18 4 18.1875 6.9375 C18 10 18 10 16 12 C10.96326761 13.80369471 5.24710876 13.05703379 0 13 C0 8.71 0 4.42 0 0 Z "
    fill="#19126F"
    transform="translate(1266,1336)"
  />
  <path
    d="M0 0 C1.9375 1.0625 1.9375 1.0625 3 3 C3.36528977 6.4093712 3.6140629 8.88023824 1.9375 11.9375 C-1.11976176 13.6140629 -3.5906288 13.36528977 -7 13 C-9.69786128 11.38128323 -9.97500723 10.07831069 -10.9375 7.0625 C-11 4 -11 4 -9.5 1.625 C-6.1204721 -0.57169314 -3.95601633 -0.50349299 0 0 Z "
    fill="#5E7740"
    transform="translate(546,484)"
  />
  <path
    d="M0 0 C8.20224719 6.74157303 8.20224719 6.74157303 10 10 C9 13 9 13 6.875 14.25 C3.24648573 15.19656894 0.63682776 14.8234327 -3 14 C-5 12 -5 12 -5.4375 8.125 C-5.37907414 4.5545306 -5.19622257 4.19622257 -2.5 1.5 C-1.675 1.005 -0.85 0.51 0 0 Z "
    fill="#19126E"
    transform="translate(982,1357)"
  />
  <path
    d="M0 0 C2.75361142 2.75361142 3.47414027 5.99845364 4.625 9.625 C4.85445312 10.33140625 5.08390625 11.0378125 5.3203125 11.765625 C5.88562421 13.50866945 6.44352544 15.25411416 7 17 C2.71 17 -1.58 17 -6 17 C-5.15813297 12.79066487 -4.10885537 9.58732921 -2.4375 5.6875 C-1.75494141 4.08455078 -1.75494141 4.08455078 -1.05859375 2.44921875 C-0.53458984 1.23685547 -0.53458984 1.23685547 0 0 Z "
    fill="#1B1570"
    transform="translate(1404,1342)"
  />
  <path
    d="M0 0 C2.75361142 2.75361142 3.47414027 5.99845364 4.625 9.625 C4.85445312 10.33140625 5.08390625 11.0378125 5.3203125 11.765625 C5.88562421 13.50866945 6.44352544 15.25411416 7 17 C2.71 17 -1.58 17 -6 17 C-5.15813297 12.79066487 -4.10885537 9.58732921 -2.4375 5.6875 C-1.75494141 4.08455078 -1.75494141 4.08455078 -1.05859375 2.44921875 C-0.53458984 1.23685547 -0.53458984 1.23685547 0 0 Z "
    fill="#1B1570"
    transform="translate(538,1342)"
  />
  <path
    d="M0 0 C2.75361142 2.75361142 3.47414027 5.99845364 4.625 9.625 C4.85445313 10.33140625 5.08390625 11.0378125 5.3203125 11.765625 C5.88562421 13.50866945 6.44352544 15.25411416 7 17 C2.71 17 -1.58 17 -6 17 C-5.15813297 12.79066487 -4.10885537 9.58732921 -2.4375 5.6875 C-1.75494141 4.08455078 -1.75494141 4.08455078 -1.05859375 2.44921875 C-0.53458984 1.23685547 -0.53458984 1.23685547 0 0 Z "
    fill="#1B1570"
    transform="translate(447,1342)"
  />
  <path
    d="M0 0 C0.928125 0.20625 1.85625 0.4125 2.8125 0.625 C3.625 3.3125 3.625 3.3125 3.8125 6.625 C1.375 9.5 1.375 9.5 -1.1875 11.625 C-4.34865776 10.25516497 -5.1802092 9.6359362 -7.1875 6.625 C-7 4.0625 -7 4.0625 -6.1875 1.625 C-3.1875 -0.375 -3.1875 -0.375 0 0 Z "
    fill="#1B146F"
    transform="translate(988.1875,1334.375)"
  />
</svg>
